<svg width="22" height="27" viewBox="0 0 22 27" fill="none" xmlns="http://www.w3.org/2000/svg">
<g clip-path="url(#clip0_100_966)">
<path d="M6.28633 3.32614C5.86953 3.41638 5.46992 3.63552 5.17344 3.932C4.71367 4.38747 4.55469 4.86872 4.55469 5.79685C4.55469 6.72497 4.71797 7.20192 5.17773 7.66599C6.07148 8.55544 7.68281 8.55114 8.57656 7.66169C9.03633 7.20622 9.19531 6.72497 9.19531 5.79685C9.19531 4.86872 9.03633 4.39177 8.57227 3.92771C8.01797 3.37341 7.13711 3.14138 6.28633 3.32614ZM7.60117 4.38747C8.09102 4.63239 8.25 4.98044 8.25 5.79685C8.25 6.61755 8.09102 6.957 7.58828 7.21482C7.30898 7.35661 7.26602 7.36521 6.875 7.36521C6.48398 7.36521 6.44102 7.35661 6.16172 7.21482C5.81797 7.03864 5.62461 6.79372 5.54727 6.44138C5.48711 6.16208 5.48711 5.43591 5.54727 5.15661C5.68047 4.53786 6.22188 4.18552 6.97813 4.22419C7.25742 4.24138 7.36914 4.26716 7.60117 4.38747Z" />
<path d="M14.5363 3.32612C13.7887 3.4894 13.1828 4.00502 12.925 4.71401C12.8434 4.92885 12.8305 5.05346 12.8305 5.77534C12.8262 6.52299 12.8348 6.61752 12.925 6.88393C13.041 7.21049 13.3117 7.6058 13.5609 7.80346C14.5105 8.55541 15.9973 8.49096 16.8223 7.66596C17.2863 7.2019 17.4453 6.72495 17.4453 5.79682C17.4453 4.8687 17.2863 4.39174 16.8223 3.92768C16.268 3.37338 15.3871 3.14135 14.5363 3.32612ZM15.8512 4.38745C16.341 4.63237 16.5 4.98041 16.5 5.79682C16.5 6.61752 16.341 6.95698 15.8383 7.21479C15.559 7.35659 15.516 7.36518 15.125 7.36518C14.734 7.36518 14.691 7.35659 14.4117 7.21479C14.068 7.03862 13.8746 6.7937 13.7973 6.44135C13.7371 6.16205 13.7371 5.43588 13.7973 5.15659C13.9305 4.53784 14.4719 4.18549 15.2281 4.22416C15.5074 4.24135 15.6191 4.26713 15.8512 4.38745Z" />
<path d="M10.4113 7.45112C9.66367 7.6144 9.05781 8.13002 8.79999 8.83901C8.71835 9.05385 8.70546 9.17846 8.70546 9.90034C8.70117 10.648 8.70976 10.7425 8.79999 11.0089C8.91601 11.3355 9.18671 11.7308 9.43593 11.9285C10.3855 12.6804 11.8723 12.616 12.6973 11.791C13.1613 11.3269 13.3203 10.8499 13.3203 9.92182C13.3203 8.9937 13.1613 8.51674 12.6973 8.05268C12.143 7.49838 11.2621 7.26635 10.4113 7.45112ZM11.7262 8.51245C12.216 8.75737 12.375 9.10541 12.375 9.92182C12.375 10.7425 12.216 11.082 11.7133 11.3398C11.434 11.4816 11.391 11.4902 11 11.4902C10.609 11.4902 10.566 11.4816 10.2867 11.3398C9.94296 11.1636 9.7496 10.9187 9.67226 10.5664C9.6121 10.2871 9.6121 9.56088 9.67226 9.28159C9.80546 8.66284 10.3469 8.31049 11.1031 8.34916C11.3824 8.36635 11.4941 8.39213 11.7262 8.51245Z" />
<path d="M3.9959 8.8305C3.17949 9.00667 2.54355 9.59964 2.3416 10.3731C2.25137 10.7211 2.25137 11.8727 2.3416 12.2207C2.65098 13.3981 3.92715 14.077 5.21621 13.7461C6.01543 13.5442 6.56973 13.0457 6.78887 12.3325C6.91348 11.9371 6.91348 10.6567 6.78887 10.2614C6.45371 9.17425 5.25059 8.5598 3.9959 8.8305ZM5.2334 9.83597C5.5041 9.95199 5.80488 10.27 5.87793 10.5149C5.94668 10.734 5.94668 11.8555 5.87793 12.0789C5.80918 12.3196 5.53848 12.6032 5.25059 12.745C5.03574 12.8481 4.9541 12.8653 4.61895 12.8653C3.9916 12.8653 3.61348 12.6805 3.35996 12.2508C3.24824 12.0575 3.24395 12.0145 3.22676 11.4043C3.21816 11.0176 3.23105 10.6868 3.26113 10.5836C3.32129 10.3559 3.52324 10.0809 3.7252 9.94769C4.10762 9.69417 4.78652 9.64691 5.2334 9.83597Z" />
<path d="M16.9727 8.79182C16.5344 8.86486 16.0789 9.0926 15.7566 9.40197C15.2367 9.89611 15.125 10.227 15.125 11.2969C15.125 12.3496 15.2238 12.6547 15.718 13.1617C16.2551 13.7117 17.1359 13.9438 17.9824 13.7676C18.816 13.5914 19.452 13.0028 19.6582 12.2207C19.7484 11.8727 19.7484 10.7211 19.6582 10.3731C19.452 9.59103 18.816 9.00236 17.9824 8.82619C17.6988 8.76603 17.2176 8.74885 16.9727 8.79182ZM18.0082 9.81447C18.2617 9.90471 18.4895 10.0938 18.6398 10.343C18.7516 10.5363 18.7559 10.5793 18.7687 11.1766C18.7902 11.9844 18.7344 12.2035 18.4379 12.5C18.1672 12.7707 17.8922 12.8653 17.3809 12.8653C17.0715 12.861 16.9469 12.8395 16.7664 12.7621C16.4957 12.6418 16.1949 12.3238 16.1219 12.0789C16.0574 11.8598 16.0531 10.7383 16.1219 10.5192C16.2164 10.1926 16.5773 9.87463 16.9727 9.76291C17.2133 9.69416 17.7418 9.71994 18.0082 9.81447Z" />
<path d="M10.3337 12.9168C9.30243 13.0113 7.95321 13.4152 7.19696 13.8578C6.77157 14.107 6.28603 14.584 6.13134 14.9062C5.93368 15.3102 5.92509 15.482 5.93798 17.9055L5.95087 20.1699L6.06259 20.4578C6.21728 20.8531 6.39774 21.1195 6.72001 21.4289C6.96923 21.6695 7.4161 21.9359 7.6911 22.009C7.77704 22.0305 7.77704 22.0562 7.77704 23.1949V24.3594H8.2497H8.72235V20.4492V16.5391H8.2497H7.77704V18.7734C7.77704 20.0023 7.75985 21.0078 7.74267 21.0078C7.68681 21.0078 7.38603 20.7801 7.25282 20.6383C7.18837 20.5695 7.08524 20.3977 7.01649 20.2559L6.89618 19.998L6.88329 17.8281C6.8747 16.2555 6.88329 15.6066 6.92196 15.4734C7.12392 14.7473 8.67938 14.0426 10.4755 13.8664C12.3489 13.6859 14.8454 14.5625 15.0774 15.4863C15.1075 15.6109 15.1247 16.3586 15.1247 17.7293C15.1247 19.9508 15.1118 20.0969 14.8927 20.4363C14.7509 20.6641 14.3642 21.0078 14.2567 21.0078C14.2352 21.0078 14.2224 20.0023 14.2224 18.7734V16.5391H13.7497H13.277V20.4492V24.3594H13.7497H14.2224V23.1949V22.0305L14.3169 22.0047C14.3727 21.9918 14.5618 21.9059 14.738 21.8199C15.2708 21.5492 15.7306 21.025 15.9454 20.4363C16.0442 20.1742 16.0442 20.1398 16.0614 17.9055C16.07 16.423 16.0571 15.5551 16.027 15.3918C15.8681 14.5109 15.0302 13.802 13.5778 13.325C12.5595 12.9855 11.2962 12.8266 10.3337 12.9168Z" />
<path d="M4.49011 14.2918C4.06042 14.3434 3.48035 14.4637 3.06355 14.5883C1.57253 15.0395 0.657299 15.7957 0.472533 16.7324C0.438158 16.9129 0.429564 17.652 0.438158 19.2504L0.451049 21.5062L0.61433 21.8328C0.721752 22.0562 0.846361 22.2238 0.992455 22.357C1.25027 22.5891 1.71003 22.8297 2.04089 22.9027L2.27722 22.9543V23.659V24.3594H2.74988H3.22253V21.1367V17.9141H2.74988H2.27722V19.9551V21.9918L2.10105 21.9316C1.82175 21.8328 1.63699 21.6996 1.51238 21.5105L1.39636 21.3344V19.0785C1.39636 16.8441 1.39636 16.8184 1.49089 16.6465C1.8905 15.8988 3.63933 15.207 5.13035 15.207H5.49988V14.7344V14.2617L5.0616 14.266C4.81667 14.2703 4.56316 14.2832 4.49011 14.2918Z" />
<path d="M16.5 14.7301V15.207H16.8695C18.1285 15.207 19.7441 15.7527 20.2941 16.3629C20.6207 16.7281 20.6035 16.5562 20.6035 19.0785V21.3344L20.4875 21.5105C20.3629 21.6996 20.1781 21.8328 19.8988 21.9316L19.7227 21.9918V19.9551V17.9141H19.25H18.7773V21.1367V24.3594H19.25H19.7227V23.659V22.9543L19.959 22.9027C20.2855 22.8297 20.7496 22.5891 21.0031 22.3613C21.2438 22.1465 21.4543 21.777 21.523 21.4461C21.5875 21.1324 21.5875 17.016 21.523 16.7023C21.3727 15.9848 20.7668 15.3574 19.8 14.9105C18.9965 14.5367 18.0383 14.3133 17.093 14.2746L16.5 14.2488V14.7301Z" />
</g>
<defs>
<clipPath id="clip0_100_966">
<rect width="22" height="26"  transform="translate(0 0.359375)"/>
</clipPath>
</defs>
</svg>
