<svg width="22" height="27" viewBox="0 0 22 27" fill="none" xmlns="http://www.w3.org/2000/svg">
<g clip-path="url(#clip0_82_2383)">
<path d="M6.28633 3.32627C5.86953 3.4165 5.46992 3.63564 5.17344 3.93213C4.71367 4.38759 4.55469 4.86884 4.55469 5.79697C4.55469 6.72509 4.71797 7.20205 5.17773 7.66611C6.07148 8.55556 7.68281 8.55127 8.57656 7.66181C9.03633 7.20634 9.19531 6.72509 9.19531 5.79697C9.19531 4.86884 9.03633 4.39189 8.57227 3.92783C8.01797 3.37353 7.13711 3.1415 6.28633 3.32627ZM7.60117 4.38759C8.09102 4.63252 8.25 4.98056 8.25 5.79697C8.25 6.61767 8.09102 6.95712 7.58828 7.21494C7.30898 7.35673 7.26602 7.36533 6.875 7.36533C6.48398 7.36533 6.44102 7.35673 6.16172 7.21494C5.81797 7.03877 5.62461 6.79384 5.54727 6.4415C5.48711 6.1622 5.48711 5.43603 5.54727 5.15673C5.68047 4.53798 6.22188 4.18564 6.97813 4.22431C7.25742 4.2415 7.36914 4.26728 7.60117 4.38759Z" />
<path d="M14.5368 3.32624C13.7892 3.48952 13.1833 4.00515 12.9255 4.71413C12.8438 4.92897 12.831 5.05358 12.831 5.77546C12.8267 6.52311 12.8352 6.61765 12.9255 6.88405C13.0415 7.21061 13.3122 7.60593 13.5614 7.80358C14.511 8.55554 15.9977 8.49108 16.8227 7.66608C17.2868 7.20202 17.4458 6.72507 17.4458 5.79694C17.4458 4.86882 17.2868 4.39186 16.8227 3.9278C16.2685 3.3735 15.3876 3.14147 14.5368 3.32624ZM15.8517 4.38757C16.3415 4.63249 16.5005 4.98054 16.5005 5.79694C16.5005 6.61765 16.3415 6.9571 15.8388 7.21491C15.5595 7.35671 15.5165 7.3653 15.1255 7.3653C14.7345 7.3653 14.6915 7.35671 14.4122 7.21491C14.0685 7.03874 13.8751 6.79382 13.7977 6.44147C13.7376 6.16218 13.7376 5.436 13.7977 5.15671C13.931 4.53796 14.4724 4.18561 15.2286 4.22429C15.5079 4.24147 15.6196 4.26725 15.8517 4.38757Z" />
<path d="M10.4118 7.45124C9.66415 7.61452 9.05829 8.13015 8.80048 8.83913C8.71884 9.05397 8.70595 9.17858 8.70595 9.90046C8.70165 10.6481 8.71025 10.7426 8.80048 11.0091C8.9165 11.3356 9.1872 11.7309 9.43642 11.9286C10.386 12.6805 11.8727 12.6161 12.6977 11.7911C13.1618 11.327 13.3208 10.8501 13.3208 9.92194C13.3208 8.99382 13.1618 8.51686 12.6977 8.0528C12.1435 7.4985 11.2626 7.26647 10.4118 7.45124ZM11.7267 8.51257C12.2165 8.75749 12.3755 9.10554 12.3755 9.92194C12.3755 10.7426 12.2165 11.0821 11.7138 11.3399C11.4345 11.4817 11.3915 11.4903 11.0005 11.4903C10.6095 11.4903 10.5665 11.4817 10.2872 11.3399C9.94345 11.1637 9.75009 10.9188 9.67275 10.5665C9.61259 10.2872 9.61259 9.561 9.67275 9.28171C9.80595 8.66296 10.3474 8.31061 11.1036 8.34929C11.3829 8.36647 11.4946 8.39225 11.7267 8.51257Z" />
<path d="M3.99639 8.8305C3.17998 9.00667 2.54404 9.59964 2.34209 10.3731C2.25186 10.7211 2.25186 11.8727 2.34209 12.2207C2.65146 13.3981 3.92764 14.077 5.2167 13.7461C6.01592 13.5442 6.57021 13.0457 6.78936 12.3325C6.91396 11.9371 6.91396 10.6567 6.78936 10.2614C6.4542 9.17425 5.25107 8.5598 3.99639 8.8305ZM5.23389 9.83597C5.50459 9.95199 5.80537 10.27 5.87842 10.5149C5.94717 10.734 5.94717 11.8555 5.87842 12.0789C5.80967 12.3196 5.53896 12.6032 5.25107 12.745C5.03623 12.8481 4.95459 12.8653 4.61943 12.8653C3.99209 12.8653 3.61396 12.6805 3.36045 12.2508C3.24873 12.0575 3.24443 12.0145 3.22725 11.4043C3.21865 11.0176 3.23154 10.6868 3.26162 10.5836C3.32178 10.3559 3.52373 10.0809 3.72568 9.94769C4.10811 9.69417 4.78701 9.64691 5.23389 9.83597Z" />
<path d="M16.9727 8.79169C16.5344 8.86474 16.0789 9.09247 15.7566 9.40185C15.2367 9.89599 15.125 10.2268 15.125 11.2968C15.125 12.3495 15.2238 12.6546 15.718 13.1616C16.2551 13.7116 17.1359 13.9436 17.9824 13.7675C18.816 13.5913 19.452 13.0026 19.6582 12.2206C19.7484 11.8726 19.7484 10.721 19.6582 10.3729C19.452 9.59091 18.816 9.00224 17.9824 8.82607C17.6988 8.76591 17.2176 8.74872 16.9727 8.79169ZM18.0082 9.81435C18.2617 9.90458 18.4895 10.0936 18.6398 10.3429C18.7516 10.5362 18.7559 10.5792 18.7687 11.1765C18.7902 11.9843 18.7344 12.2034 18.4379 12.4999C18.1672 12.7706 17.8922 12.8651 17.3809 12.8651C17.0715 12.8608 16.9469 12.8393 16.7664 12.762C16.4957 12.6417 16.1949 12.3237 16.1219 12.0788C16.0574 11.8597 16.0531 10.7382 16.1219 10.519C16.2164 10.1925 16.5773 9.87451 16.9727 9.76279C17.2133 9.69404 17.7418 9.71982 18.0082 9.81435Z" />
<path d="M10.3342 12.9168C9.30292 13.0113 7.9537 13.4152 7.19745 13.8578C6.77206 14.107 6.28651 14.584 6.13183 14.9062C5.93417 15.3102 5.92558 15.482 5.93847 17.9055L5.95136 20.1699L6.06308 20.4578C6.21776 20.8531 6.39823 21.1195 6.7205 21.4289C6.96972 21.6695 7.41659 21.9359 7.69159 22.009C7.77753 22.0305 7.77753 22.0562 7.77753 23.1949V24.3594H8.25019H8.72284V20.4492V16.5391H8.25019H7.77753V18.7734C7.77753 20.0023 7.76034 21.0078 7.74315 21.0078C7.68729 21.0078 7.38651 20.7801 7.25331 20.6383C7.18886 20.5695 7.08573 20.3977 7.01698 20.2559L6.89667 19.998L6.88378 17.8281C6.87519 16.2555 6.88378 15.6066 6.92245 15.4734C7.1244 14.7473 8.67987 14.0426 10.476 13.8664C12.3494 13.6859 14.8459 14.5625 15.0779 15.4863C15.108 15.6109 15.1252 16.3586 15.1252 17.7293C15.1252 19.9508 15.1123 20.0969 14.8932 20.4363C14.7514 20.6641 14.3646 21.0078 14.2572 21.0078C14.2357 21.0078 14.2228 20.0023 14.2228 18.7734V16.5391H13.7502H13.2775V20.4492V24.3594H13.7502H14.2228V23.1949V22.0305L14.3174 22.0047C14.3732 21.9918 14.5623 21.9059 14.7385 21.8199C15.2713 21.5492 15.731 21.025 15.9459 20.4363C16.0447 20.1742 16.0447 20.1398 16.0619 17.9055C16.0705 16.423 16.0576 15.5551 16.0275 15.3918C15.8685 14.5109 15.0307 13.802 13.5783 13.325C12.56 12.9855 11.2967 12.8266 10.3342 12.9168Z" />
<path d="M4.4906 14.2918C4.06091 14.3434 3.48083 14.4637 3.06404 14.5883C1.57302 15.0395 0.657787 15.7957 0.473021 16.7324C0.438646 16.9129 0.430053 17.652 0.438646 19.2504L0.451537 21.5062L0.614818 21.8328C0.72224 22.0562 0.84685 22.2238 0.992943 22.357C1.25076 22.5891 1.71052 22.8297 2.04138 22.9027L2.27771 22.9543V23.659V24.3594H2.75037H3.22302V21.1367V17.9141H2.75037H2.27771V19.9551V21.9918L2.10154 21.9316C1.82224 21.8328 1.63747 21.6996 1.51287 21.5105L1.39685 21.3344V19.0785C1.39685 16.8441 1.39685 16.8184 1.49138 16.6465C1.89099 15.8988 3.63982 15.207 5.13083 15.207H5.50037V14.7344V14.2617L5.06208 14.266C4.81716 14.2703 4.56365 14.2832 4.4906 14.2918Z" />
<path d="M16.5 14.7301V15.207H16.8695C18.1285 15.207 19.7441 15.7527 20.2941 16.3629C20.6207 16.7281 20.6035 16.5562 20.6035 19.0785V21.3344L20.4875 21.5105C20.3629 21.6996 20.1781 21.8328 19.8988 21.9316L19.7227 21.9918V19.9551V17.9141H19.25H18.7773V21.1367V24.3594H19.25H19.7227V23.659V22.9543L19.959 22.9027C20.2855 22.8297 20.7496 22.5891 21.0031 22.3613C21.2438 22.1465 21.4543 21.777 21.523 21.4461C21.5875 21.1324 21.5875 17.016 21.523 16.7023C21.3727 15.9848 20.7668 15.3574 19.8 14.9105C18.9965 14.5367 18.0383 14.3133 17.093 14.2746L16.5 14.2488V14.7301Z" />
</g>
<defs>
<clipPath id="clip0_82_2383">
<rect width="22" height="26"  transform="translate(0 0.359375)"/>
</clipPath>
</defs>
</svg>
