<svg width="22" height="27" viewBox="0 0 22 27" fill="none" xmlns="http://www.w3.org/2000/svg">
<g clip-path="url(#clip0_100_984)">
<path d="M2.06268 4.09104C1.30213 4.31878 0.709165 4.81721 0.369712 5.51331C0.0689308 6.14065 0.0861183 5.74534 0.0861183 12.0145V17.6649L0.176353 17.7895C0.223618 17.8582 0.31815 17.9442 0.3869 17.9785C0.679087 18.1289 0.713462 18.1117 2.71151 16.9688L4.58495 15.8946H5.14784H5.71502V17.0332C5.71502 18.0516 5.72362 18.2106 5.80526 18.5071C5.91698 18.9282 6.00721 19.1344 6.22206 19.4524C6.53573 19.9078 7.02557 20.2817 7.60995 20.4965L7.88495 20.5996L12.6974 20.6211L17.5099 20.6426L19.2931 21.6567C21.4416 22.8813 21.2267 22.7696 21.4459 22.7696C21.5963 22.7696 21.6478 22.7438 21.7896 22.602L21.9572 22.4344V16.7324C21.9572 11.6965 21.9486 11.0004 21.8885 10.7641C21.6951 9.99495 21.1365 9.31604 20.4189 8.97659C19.9162 8.73596 19.7701 8.71877 17.974 8.71877H16.3369L16.3154 7.43831C16.3025 6.30393 16.2896 6.13206 16.2123 5.90432C15.9674 5.16956 15.4732 4.59807 14.7814 4.25002C14.24 3.97932 14.558 3.99221 8.18143 3.99651H2.38495L2.06268 4.09104ZM14.2572 5.25549C14.601 5.41448 14.9533 5.78401 15.0779 6.11917C15.1596 6.3426 15.1681 6.45003 15.1681 7.53713V8.71877H11.6189C7.6744 8.71877 7.84198 8.70588 7.21893 9.01096C6.76776 9.2301 6.26502 9.73284 6.04588 10.1797C5.72792 10.8328 5.71502 10.9403 5.71502 12.9684V14.7731L4.95448 14.786L4.18963 14.7989L2.96502 15.5121C2.29042 15.9032 1.6287 16.2856 1.4912 16.3629L1.24627 16.5047L1.25487 11.3742L1.26776 6.24807L1.36229 6.04612C1.54706 5.64651 1.97674 5.28557 2.40213 5.16956C2.55682 5.12659 3.87167 5.11799 8.29315 5.12229L13.9865 5.13088L14.2572 5.25549ZM19.8174 9.94338C20.1353 10.0809 20.3932 10.2871 20.5564 10.5321C20.8529 10.9789 20.84 10.7297 20.84 16.2469C20.84 18.984 20.8314 21.2227 20.8228 21.2227C20.8056 21.2227 20.5349 21.068 18.7775 20.0582L17.8537 19.5254L12.9982 19.5039L8.14276 19.4824L7.90213 19.3836C7.4037 19.186 7.06424 18.8164 6.93963 18.3395C6.8494 18 6.8451 11.3442 6.93534 11.0047C7.04706 10.5922 7.34354 10.2141 7.70018 10.025C8.05682 9.83596 7.96659 9.84026 13.9435 9.84885C19.5166 9.85745 19.6197 9.85745 19.8174 9.94338Z" />
<path d="M8.03516 13.3164V13.832H13.8574H19.6797V13.3164V12.8008H13.8574H8.03516V13.3164Z" />
<path d="M8.03516 16.0234V16.5391H12.5469H17.0586V16.0234V15.5078H12.5469H8.03516V16.0234Z" />
</g>
<defs>
<clipPath id="clip0_100_984">
<rect width="22" height="26"  transform="translate(0 0.359375)"/>
</clipPath>
</defs>
</svg>
