<svg version="1.0" xmlns="http://www.w3.org/2000/svg" width="22" height="27" viewBox="0 0 256.000000 256.000000" preserveAspectRatio="xMidYMid meet">
        <metadata>
        Created by potrace 1.16, written by Peter Selinger 2001-2019
        </metadata>
        <g transform="translate(0.000000,256.000000) scale(0.100000,-0.100000)" fill="#000000" stroke="none">
        <path d="M1230 2541 c-5 -11 -10 -85 -10 -167 l0 -148 -48 47 c-69 68 -132 64
        -132 -8 0 -24 19 -50 103 -138 137 -144 133 -144 278 -1 113 112 132 143 103
        175 -31 34 -73 24 -126 -28 l-48 -47 0 145 c0 170 -7 189 -70 189 -29 0 -42
        -5 -50 -19z"></path>
        <path d="M222 2338 c-7 -7 -12 -28 -12 -47 0 -33 10 -46 117 -148 l118 -113
        -77 0 c-56 0 -81 -4 -92 -16 -19 -19 -21 -54 -3 -78 12 -16 31 -18 175 -19
        138 -1 165 2 179 16 14 14 16 41 16 178 0 146 -2 163 -18 176 -25 18 -60 17
        -79 -3 -12 -11 -16 -36 -16 -92 l0 -77 -113 118 c-102 107 -115 117 -147 117
        -20 0 -41 -5 -48 -12z"></path>
        <path d="M2148 2233 l-118 -117 0 75 c0 84 -14 109 -61 109 -46 0 -49 -13 -49
        -191 0 -137 3 -169 15 -179 11 -9 60 -13 178 -12 174 1 187 5 187 57 0 40 -30
        55 -110 55 l-74 0 117 118 c74 75 117 127 117 140 0 22 -43 62 -68 62 -8 0
        -68 -53 -134 -117z"></path>
        <path d="M1195 1802 c-87 -41 -129 -108 -129 -202 0 -83 26 -136 89 -178 153
        -101 346 4 345 188 -1 68 -56 152 -122 186 -49 26 -136 28 -183 6z m135 -117
        c60 -31 70 -109 19 -156 -51 -48 -124 -38 -154 21 -24 46 -19 87 14 121 34 33
        75 38 121 14z"></path>
        <path d="M544 1691 c-90 -41 -137 -145 -114 -249 10 -44 22 -65 60 -103 54
        -54 86 -64 180 -57 48 3 67 10 97 35 79 63 105 139 82 236 -30 124 -182 194
        -305 138z m167 -130 c76 -76 -6 -196 -110 -160 -61 22 -80 105 -35 158 22 26
        33 31 71 31 36 0 50 -6 74 -29z"></path>
        <path d="M1840 1699 c-100 -40 -159 -159 -130 -263 47 -169 266 -216 378 -80
        96 116 46 295 -97 343 -41 13 -117 13 -151 0z m154 -140 c71 -84 -17 -202
        -116 -155 -99 47 -65 186 45 186 38 0 49 -5 71 -31z"></path>
        <path d="M1063 1278 c-82 -14 -143 -60 -183 -141 -27 -55 -30 -69 -30 -158 0
        -108 10 -129 59 -129 42 0 52 20 55 112 4 111 36 170 109 197 43 17 380 14
        420 -3 71 -29 107 -101 107 -216 0 -73 10 -90 51 -90 49 0 59 21 59 129 0 89
        -3 103 -30 158 -31 63 -74 103 -134 128 -38 16 -409 26 -483 13z"></path>
        <path d="M365 1151 c-64 -30 -103 -68 -137 -135 -18 -35 -21 -56 -19 -141 2
        -106 14 -135 53 -135 47 0 55 15 63 117 8 113 24 147 83 181 36 20 54 22 174
        22 118 0 137 2 151 18 22 24 21 65 -1 85 -16 14 -43 17 -163 17 -138 0 -147
        -1 -204 -29z"></path>
        <path d="M1827 1162 c-22 -24 -21 -65 1 -85 15 -14 42 -17 151 -17 119 0 138
        -2 173 -22 61 -35 80 -74 85 -181 4 -68 9 -95 21 -104 23 -19 56 -16 76 6 15
        17 17 35 14 123 -4 128 -28 183 -103 240 -63 47 -113 58 -274 58 -111 0 -130
        -2 -144 -18z"></path>
        <path d="M375 642 c-96 -3 -115 -12 -115 -57 0 -40 30 -55 110 -55 l74 0 -117
        -118 c-64 -66 -117 -124 -117 -131 0 -7 7 -25 15 -41 12 -24 22 -30 48 -30 28
        -1 46 14 144 117 l112 118 1 -76 c0 -60 4 -79 18 -92 22 -21 52 -22 77 -4 16
        13 18 29 17 177 -1 118 -5 167 -14 176 -15 14 -125 21 -253 16z"></path>
        <path d="M2005 642 c-32 -2 -65 -8 -72 -14 -10 -8 -13 -54 -13 -179 0 -156 1
        -169 19 -179 61 -32 91 2 91 101 l0 74 113 -113 c102 -102 116 -112 149 -112
        38 0 68 26 68 60 0 8 -55 68 -122 132 l-123 118 76 0 c61 0 79 4 92 18 20 22
        22 52 5 74 -14 17 -154 27 -283 20z"></path>
        <path d="M1147 432 c-90 -90 -107 -112 -107 -138 0 -40 30 -68 62 -59 13 4 44
        28 71 53 l47 46 0 -148 c0 -82 5 -156 10 -167 15 -27 85 -27 100 0 5 11 10 85
        10 167 l0 148 48 -47 c39 -39 54 -47 85 -47 42 0 72 33 61 66 -4 10 -54 67
        -113 127 -139 141 -132 141 -274 -1z"></path>
        </g>
</svg>