<svg version="1.0" xmlns="http://www.w3.org/2000/svg" width="22" height="27" viewBox="0 0 256.000000 256.000000" preserveAspectRatio="xMidYMid meet">
        <metadata>
        Created by potrace 1.16, written by Peter Selinger 2001-2019
        </metadata>
        <g transform="translate(0.000000,256.000000) scale(0.100000,-0.100000)" fill="#000000" stroke="none">
        <path d="M1956 2444 c-64 -20 -112 -51 -160 -104 -63 -70 -81 -120 -81 -230 0
        -89 2 -99 34 -158 55 -101 133 -158 251 -183 148 -32 324 69 380 219 18 46 21
        73 18 137 -3 44 -8 87 -12 95 -5 12 17 35 79 85 47 39 88 80 91 93 7 27 -20
        62 -47 62 -9 0 -54 -30 -98 -66 l-81 -66 -51 46 c-85 77 -211 104 -323 70z
        m170 -99 c46 -13 136 -77 124 -87 -3 -2 -46 -39 -97 -81 -50 -42 -97 -77 -105
        -77 -7 0 -33 14 -58 30 -51 34 -81 38 -105 14 -30 -31 -14 -56 70 -111 44 -29
        89 -53 100 -53 12 0 70 41 130 91 l110 92 3 -41 c10 -137 -100 -252 -242 -252
        -37 0 -77 8 -101 19 -54 24 -119 100 -135 156 -35 126 38 261 162 300 57 18
        84 18 144 0z"></path>
        <path d="M714 2440 c-165 -25 -329 -130 -420 -268 -21 -31 -51 -95 -68 -142
        -39 -111 -43 -255 -9 -365 47 -148 165 -295 292 -360 l34 -17 -55 -22 c-186
        -76 -366 -264 -435 -454 -44 -119 -53 -197 -53 -442 0 -225 0 -229 22 -244 20
        -14 110 -16 778 -16 679 0 758 2 779 16 l23 16 -4 267 c-5 302 -10 329 -82
        476 -79 160 -199 279 -364 362 l-82 41 70 47 c307 204 359 642 108 910 -33 36
        -87 83 -120 105 -107 71 -286 110 -414 90z m239 -120 c182 -56 321 -222 349
        -417 21 -143 -27 -293 -128 -403 -162 -175 -393 -216 -606 -109 -75 38 -176
        136 -211 204 -59 117 -75 270 -41 385 48 164 188 300 354 346 72 20 208 17
        283 -6z m27 -1115 c30 -8 93 -33 140 -56 68 -34 102 -59 171 -128 72 -72 94
        -102 132 -181 64 -130 77 -206 77 -435 l0 -185 -180 0 -180 0 -2 242 -3 242
        -25 13 c-20 10 -29 10 -45 -1 -19 -13 -20 -26 -23 -255 l-2 -241 -240 0 -240
        0 0 239 c0 233 -1 240 -21 255 -12 8 -29 12 -38 9 -38 -14 -41 -30 -41 -270
        l0 -233 -181 0 -181 0 5 213 c5 241 13 284 79 417 34 67 60 103 128 170 110
        111 228 173 378 200 63 12 224 4 292 -15z"></path>
        <path d="M1969 1617 c-100 -28 -183 -98 -230 -192 -20 -42 -24 -65 -24 -145 0
        -79 4 -103 23 -142 37 -74 96 -134 170 -170 59 -29 76 -33 147 -33 106 1 185
        35 255 112 68 75 93 144 88 248 -3 44 -8 87 -11 95 -5 11 18 35 78 85 92 74
        109 103 80 135 -28 30 -48 25 -117 -33 -107 -89 -93 -84 -139 -42 -85 77 -218
        111 -320 82z m205 -126 c90 -50 89 -54 -24 -149 l-99 -82 -55 35 c-62 39 -81
        43 -108 18 -38 -34 -19 -63 88 -126 34 -21 71 -37 82 -37 11 0 69 41 128 90
        l109 91 3 -43 c14 -182 -193 -312 -357 -223 -168 92 -175 327 -12 423 82 48
        162 49 245 3z"></path>
        <path d="M1972 784 c-103 -27 -172 -81 -223 -176 -32 -59 -34 -69 -34 -158 0
        -76 4 -104 22 -142 32 -71 103 -141 176 -174 53 -25 74 -29 147 -29 107 1 174
        30 247 108 80 85 114 217 84 325 -10 32 -9 34 80 109 97 82 109 109 65 138
        -30 20 -47 13 -126 -55 -78 -67 -76 -66 -120 -26 -52 47 -103 72 -175 85 -72
        13 -77 13 -143 -5z m183 -113 c22 -10 52 -31 67 -47 l27 -29 -99 -83 -98 -82
        -59 35 c-32 19 -65 35 -74 35 -26 0 -52 -36 -46 -62 7 -27 149 -118 184 -118
        13 0 67 38 130 89 l108 90 3 -52 c6 -104 -79 -211 -189 -237 -177 -43 -339
        128 -289 305 16 56 81 132 135 156 53 25 147 24 200 0z"></path>
        </g>
</svg>