<svg width="22" height="27" viewBox="0 0 22 27" fill="none" xmlns="http://www.w3.org/2000/svg">
<g clip-path="url(#clip0_100_1014)">
<path d="M10.3624 2.39911C9.40755 2.55751 8.69475 2.93591 8.04795 3.62671C6.31875 5.47471 6.37155 8.96391 8.16235 10.8383C8.46155 11.1463 8.50115 11.2079 8.42635 11.2211C8.37795 11.2299 8.14915 11.2695 7.91595 11.3091C6.21315 11.5863 4.92395 12.5059 4.40475 13.8083C4.11875 14.5167 4.08355 14.8247 4.06155 16.7783L4.03955 18.5515H10.996H17.9524V17.0775C17.9524 15.5287 17.9172 14.9655 17.7764 14.4067C17.6048 13.7071 17.3452 13.2099 16.9008 12.7347C16.2012 11.9867 15.22 11.4939 14.054 11.3135C13.79 11.2695 13.548 11.2299 13.5172 11.2211C13.4864 11.2123 13.5832 11.0847 13.7416 10.9307C14.4324 10.2399 14.9208 9.25871 15.1232 8.16751C15.2332 7.55591 15.2244 6.52631 15.0968 5.93231C14.714 4.12831 13.6316 2.89191 12.0784 2.48711C11.6868 2.38591 10.7364 2.33751 10.3624 2.39911ZM11.7924 3.74111C12.25 3.86871 12.5844 4.06671 12.9584 4.44511C13.3632 4.85431 13.57 5.20191 13.7548 5.81351C13.8692 6.18751 13.878 6.25791 13.878 7.11151C13.8824 8.15431 13.8428 8.37431 13.526 9.02991C13.2972 9.51391 12.8572 10.0111 12.2896 10.4203L11.9244 10.6887L11.9332 11.5511L11.9464 12.4135L12.5404 12.4487C13.3676 12.4927 14.0892 12.5939 14.4764 12.7127C15.7788 13.1175 16.5092 13.9755 16.6324 15.2515C16.6544 15.4803 16.6764 16.0303 16.6764 16.4703V17.2755H10.996H5.31555L5.33755 16.1843C5.35515 15.4363 5.38155 15.0051 5.42995 14.7983C5.61475 13.9799 6.14715 13.3199 6.91275 12.9459C7.57715 12.6291 8.11395 12.5235 9.48235 12.4443L10.0544 12.4135L10.0676 11.5467L10.0764 10.6843L9.71555 10.4291C8.55835 9.61951 8.09635 8.69991 8.08755 7.19951C8.07875 6.23591 8.26355 5.51431 8.66835 4.89391C9.09955 4.23391 9.71995 3.82031 10.4812 3.67951C10.7848 3.62671 11.4844 3.66191 11.7924 3.74111Z" />
<path d="M5.76862 3.46374C4.30342 3.65294 3.21662 4.75734 2.85142 6.42934C2.75902 6.86934 2.78102 7.97814 2.89542 8.44454C3.07582 9.17494 3.38382 9.80854 3.77542 10.2397C3.88102 10.3585 3.96462 10.4641 3.95582 10.4729C3.94702 10.4817 3.74462 10.5301 3.51142 10.5829C2.64462 10.7809 2.11662 11.0581 1.57982 11.5949C1.15302 12.0261 0.911022 12.4441 0.743822 13.0293C0.651422 13.3593 0.642622 13.4913 0.625022 14.9521L0.607422 16.5273H1.90982H3.21222V15.8893V15.2513H2.54782H1.88342L1.90102 14.4021C1.91862 13.7113 1.94062 13.5089 2.01542 13.2845C2.25302 12.5497 2.79422 12.0877 3.67422 11.8633C4.00862 11.7797 4.87982 11.6873 5.37262 11.6873H5.63222V10.8821V10.0813L5.29782 9.86574C4.87102 9.58854 4.61142 9.29374 4.40022 8.85374C4.15822 8.33894 4.07902 7.97814 4.07462 7.35334C4.07462 6.60534 4.24622 6.01134 4.59822 5.52734C4.95462 5.04774 5.42542 4.78814 6.03262 4.74854L6.37142 4.72214L6.51222 4.39654C6.59142 4.21614 6.73662 3.94774 6.82902 3.80254C6.92142 3.65734 6.99182 3.52974 6.97862 3.51654C6.94782 3.48574 6.38462 3.41534 6.20422 3.42414C6.12062 3.42414 5.92262 3.44174 5.76862 3.46374Z" />
<path d="M15.2945 3.46374C15.1537 3.48574 15.0305 3.50774 15.0217 3.51214C15.0173 3.52094 15.0745 3.63094 15.1537 3.75414C15.2329 3.88174 15.3781 4.15454 15.4705 4.36134L15.6421 4.73534H15.8621C16.1305 4.73534 16.5221 4.83214 16.7729 4.95974C17.0721 5.11374 17.4373 5.50974 17.6133 5.88374C17.8465 6.36334 17.9213 6.72854 17.9213 7.35334C17.9125 8.51494 17.4725 9.39494 16.6409 9.90094L16.3681 10.0637V10.8689V11.6697L17.1733 11.7181C17.7981 11.7577 18.0621 11.7929 18.3613 11.8853C19.2545 12.1449 19.7165 12.5365 19.9673 13.2405C20.0685 13.5265 20.0817 13.6365 20.0993 14.4021L20.1169 15.2513H19.4525H18.7881V15.8893V16.5273H20.0861H21.3841V15.1457C21.3841 13.6585 21.3445 13.2713 21.1465 12.7257C20.9881 12.2857 20.7813 11.9645 20.4161 11.5949C19.9145 11.0889 19.2853 10.7589 18.4669 10.5829C18.2469 10.5345 18.0577 10.4861 18.0445 10.4773C18.0357 10.4641 18.1017 10.3761 18.1897 10.2793C19.1621 9.20134 19.4921 7.29174 18.9685 5.77814C18.5813 4.66494 17.7057 3.81574 16.6673 3.55174C16.2669 3.44614 15.6421 3.40654 15.2945 3.46374Z" />
<path d="M0.836215 18.9077C0.836215 18.9781 0.858215 19.2289 0.884615 19.4577L0.928615 19.8757L0.576615 20.2629C0.378615 20.4785 0.220215 20.6633 0.220215 20.6765C0.220215 20.6897 0.321415 20.7205 0.444615 20.7469C0.567815 20.7733 0.805415 20.8261 0.968215 20.8657L1.27181 20.9317L1.53581 21.3937C1.68541 21.6445 1.81301 21.8513 1.82621 21.8513C1.83941 21.8513 1.96701 21.6445 2.11661 21.3937L2.38061 20.9317L2.60501 20.8877C3.17701 20.7645 3.43221 20.6985 3.43221 20.6765C3.43221 20.6633 3.27381 20.4785 3.08021 20.2673L2.72381 19.8757L2.77221 19.4313C2.84701 18.6965 2.89541 18.7449 2.32341 19.0001L1.83501 19.2201L1.33341 18.9957L0.836215 18.7757V18.9077Z" />
<path d="M19.1844 18.9077C19.1844 18.9781 19.2064 19.2289 19.2328 19.4577L19.2768 19.8757L18.9248 20.2629C18.7268 20.4785 18.5684 20.6633 18.5684 20.6765C18.5684 20.6897 18.6696 20.7205 18.7928 20.7469C18.916 20.7733 19.1536 20.8261 19.3164 20.8657L19.62 20.9317L19.884 21.3937C20.0336 21.6445 20.1612 21.8513 20.1744 21.8513C20.1876 21.8513 20.3152 21.6445 20.4648 21.3937L20.7288 20.9317L20.9532 20.8877C21.512 20.7645 21.7804 20.6985 21.7804 20.6809C21.7804 20.6677 21.622 20.4785 21.424 20.2585C21.0852 19.8845 21.0676 19.8537 21.0896 19.6997C21.1028 19.6117 21.1292 19.3697 21.1468 19.1585L21.1776 18.7713L20.6804 18.9957L20.1832 19.2201L19.6816 18.9957L19.1844 18.7757V18.9077Z" />
<path d="M5.06019 20.3643C5.06019 20.4435 5.08219 20.6855 5.10419 20.8967L5.14819 21.2883L4.79619 21.6843C4.60259 21.9043 4.45299 22.0935 4.46179 22.1023C4.47059 22.1155 4.70819 22.1771 4.98979 22.2387L5.50019 22.3575L5.75539 22.7931C5.89179 23.0351 6.02819 23.2375 6.05019 23.2463C6.07659 23.2507 6.20859 23.0527 6.34499 22.8063L6.60019 22.3487L7.071 22.2519C7.335 22.1947 7.5726 22.1331 7.6078 22.1155C7.65619 22.0891 7.6166 22.0231 7.4362 21.8251C7.30419 21.6799 7.1414 21.5039 7.071 21.4291L6.94779 21.2927L7.0006 20.7779C7.03139 20.4963 7.04019 20.2543 7.02699 20.2411C7.0138 20.2279 6.79819 20.3071 6.5518 20.4171C6.30539 20.5271 6.08099 20.6195 6.05459 20.6195C6.02819 20.6195 5.80819 20.5315 5.57059 20.4215C5.32859 20.3115 5.11739 20.2235 5.09539 20.2235C5.07779 20.2235 5.06019 20.2895 5.06019 20.3643Z" />
<path d="M14.9777 20.5623C14.9953 20.7515 15.0173 20.9935 15.0305 21.1035C15.0525 21.3015 15.0481 21.3059 14.6917 21.6931C14.4321 21.9791 14.3485 22.0935 14.3925 22.1155C14.4277 22.1331 14.6653 22.1947 14.9249 22.2475L15.4001 22.3487L15.6509 22.8019C15.7917 23.0527 15.9193 23.2595 15.9369 23.2595C15.9545 23.2595 16.0909 23.0527 16.2405 22.8063L16.5045 22.3487L16.9753 22.2475C17.2349 22.1947 17.4725 22.1375 17.5033 22.1199C17.5429 22.0979 17.4549 21.9703 17.2085 21.6887L16.8565 21.2927L16.9049 20.7779C16.9313 20.4963 16.9445 20.2543 16.9269 20.2411C16.9137 20.2279 16.6981 20.3071 16.4517 20.4171C16.2053 20.5271 15.9809 20.6195 15.9545 20.6195C15.9281 20.6195 15.7081 20.5315 15.4705 20.4215C15.2285 20.3115 15.0129 20.2235 14.9909 20.2235C14.9645 20.2235 14.9601 20.3511 14.9777 20.5623Z" />
<path d="M9.77275 20.6546C9.77275 20.7426 9.79915 21.0506 9.82995 21.3366L9.88275 21.8514L9.42515 22.3618C9.17435 22.639 8.97635 22.8766 8.98515 22.881C8.98955 22.8898 9.25795 22.947 9.57035 23.013C9.88715 23.079 10.1819 23.1494 10.2347 23.1714C10.2875 23.189 10.4635 23.4442 10.6483 23.761C10.8287 24.0646 10.9871 24.3154 11.0003 24.3154C11.0135 24.3154 11.1719 24.0646 11.3523 23.761C11.5415 23.4354 11.7131 23.1934 11.7659 23.1714C11.8187 23.1538 12.1179 23.0834 12.4303 23.0174C12.7471 22.9514 13.0111 22.8898 13.0155 22.881C13.0243 22.8766 12.8263 22.639 12.5755 22.3618L12.1179 21.8514L12.1751 21.2882C12.2059 20.9802 12.2279 20.6766 12.2235 20.615L12.2103 20.5006L11.6383 20.7602C10.9739 21.0682 11.0443 21.0682 10.2655 20.7162L9.76835 20.4918L9.77275 20.6546Z" />
</g>
<defs>
<clipPath id="clip0_100_1014">
<rect width="22" height="26"  transform="translate(0 0.359375)"/>
</clipPath>
</defs>
</svg>
