<svg width="22" height="27" viewBox="0 0 22 27" fill="none" xmlns="http://www.w3.org/2000/svg">
<g clip-path="url(#clip0_7_457)">
<path d="M9.97736 4.64102C7.15002 4.89453 4.41721 6.3125 2.59104 8.48242C1.8176 9.40195 1.03127 10.7512 0.627364 11.8641C0.438301 12.3711 0.201973 13.3121 0.107442 13.918C0.00861382 14.5195 -0.0257612 16.1523 0.0386919 16.7496C0.240645 18.5199 0.794942 20.0969 1.72307 21.5578L2.084 22.125H11H19.916L20.277 21.5578C21.2051 20.0969 21.7594 18.5199 21.9613 16.7496C22.0258 16.1523 21.9914 14.5195 21.8926 13.918C21.7981 13.3121 21.5617 12.3711 21.3727 11.8641C20.8227 10.3602 19.7742 8.74453 18.6613 7.6832C16.3024 5.44023 13.2043 4.35312 9.97736 4.64102ZM12.5254 6.05039C14.5406 6.38984 16.3153 7.28789 17.7418 8.68867C19.2586 10.184 20.1695 11.9156 20.5649 14.0684C20.6895 14.7387 20.6766 16.5391 20.5477 17.2566C20.3371 18.4082 19.9977 19.3449 19.3875 20.4406L19.1899 20.793H11H2.81018L2.61252 20.4363C2.00236 19.3449 1.66291 18.4082 1.45236 17.2566C1.32346 16.5391 1.31057 14.7387 1.43518 14.0684C1.83049 11.9156 2.74143 10.184 4.25822 8.68867C5.82658 7.15039 7.83752 6.20937 10.0762 5.96875C10.6305 5.90859 11.941 5.95156 12.5254 6.05039Z" />
<path d="M10.3555 8.48242V9.79297H11H11.6445V8.48242V7.17188H11H10.3555V8.48242Z" />
<path d="M6.75482 8.30198C6.36381 8.53401 6.2306 8.62854 6.24779 8.6844C6.25639 8.73167 7.39506 10.7469 7.49818 10.9016C7.51537 10.9274 8.60678 10.2828 8.62396 10.2356C8.64974 10.1754 7.38646 7.98831 7.32631 7.99261C7.30482 7.99261 7.04701 8.1344 6.75482 8.30198Z" />
<path d="M13.9949 9.0883C13.6426 9.69416 13.3676 10.2098 13.3762 10.2356C13.3977 10.2871 14.4805 10.9274 14.4977 10.9016C14.5922 10.7641 15.7438 8.73166 15.7566 8.6844C15.7695 8.62854 15.6406 8.53401 15.2496 8.31057C14.9617 8.14299 14.7039 8.00549 14.6781 7.9969C14.6523 7.9926 14.343 8.48245 13.9949 9.0883Z" />
<path d="M3.69537 11.3699C3.52349 11.675 3.3731 11.9328 3.36881 11.95C3.34732 11.9844 5.58599 13.2777 5.62896 13.2519C5.64615 13.2433 5.80084 12.9898 5.97271 12.689C6.27349 12.1691 6.28209 12.1433 6.20474 12.0832C6.11021 12.0144 4.05201 10.8242 4.02623 10.8242C4.01763 10.8242 3.86724 11.0691 3.69537 11.3699Z" />
<path d="M15.1078 12.4656C12.2891 14.0941 12.2762 14.1027 12.1645 14.034C11.2922 13.4797 10.2695 13.5699 9.60781 14.2574C9.22539 14.6613 9.06641 15.0566 9.06641 15.6152C9.06641 16.1738 9.22539 16.5691 9.60781 16.973C10.3555 17.7551 11.6445 17.7551 12.3922 16.973C12.7746 16.5691 12.9336 16.1738 12.9336 15.6152V15.2715L15.791 13.6258C17.3637 12.7191 18.6398 11.9629 18.6355 11.95C18.4551 11.6148 17.9867 10.8242 17.9652 10.8242C17.9523 10.8285 16.6633 11.5633 15.1078 12.4656ZM11.3266 15.0996C11.5973 15.2758 11.6832 15.6754 11.5027 15.9418C11.1633 16.4488 10.3984 16.2211 10.3984 15.6109C10.3984 15.1426 10.9398 14.8461 11.3266 15.0996Z" />
<path d="M2.57812 15.6152V16.2812H3.86719H5.15625V15.6152V14.9492H3.86719H2.57812V15.6152Z" />
<path d="M16.8438 15.6152V16.2812H18.1328H19.4219V15.6152V14.9492H18.1328H16.8438V15.6152Z" />
<path d="M4.46868 18.6058C3.82844 18.9796 3.37727 19.2675 3.38586 19.2976C3.42453 19.4437 4.0175 20.4062 4.05618 20.3933C4.13782 20.3589 6.20891 19.1558 6.24758 19.1171C6.28625 19.0785 5.6761 17.9914 5.60735 17.9742C5.58157 17.9699 5.07024 18.2535 4.46868 18.6058Z" />
<path d="M16.341 18.0129C16.3153 18.0387 16.1692 18.2922 16.0059 18.5715C15.761 19.0012 15.7223 19.0871 15.7739 19.1344C15.834 19.1902 17.9395 20.4062 17.9739 20.4062C17.9867 20.4062 18.4981 19.534 18.6313 19.2805C18.6399 19.2676 18.1801 18.984 17.6043 18.6531C16.2852 17.8969 16.3883 17.9484 16.341 18.0129Z" />
</g>
<defs>
<clipPath id="clip0_7_457">
<rect width="22" height="26"  transform="translate(0 0.359375)"/>
</clipPath>
</defs>
</svg>
