<svg width="22" height="27" viewBox="0 0 22 27" fill="none" xmlns="http://www.w3.org/2000/svg">
<g clip-path="url(#clip0_54_4145)">
<path d="M12.2935 4.12805C12.1967 4.17205 12.0999 4.33485 12.0999 4.44925C12.0999 4.48005 12.1527 4.56805 12.2143 4.64285C12.2759 4.71765 12.3111 4.77925 12.2891 4.77925C12.2715 4.77925 12.0471 4.81005 11.7963 4.84525C9.93506 5.10925 8.21906 5.95405 6.85066 7.28285C6.21706 7.89445 5.64066 8.64685 5.21826 9.40805C5.09506 9.62805 5.06866 9.71165 5.11266 9.72485C5.14346 9.73365 5.29306 9.78205 5.44266 9.83045L5.71986 9.92285L5.95746 9.51365C6.79346 8.09685 8.02106 6.97045 9.51266 6.25325C10.3091 5.87045 11.2507 5.58885 12.0339 5.50085L12.2979 5.47005L12.2143 5.56685C12.0119 5.79125 12.1615 6.14325 12.4607 6.14325C12.5927 6.14325 13.8335 5.45245 13.9391 5.31605C14.0271 5.20165 14.0051 4.98165 13.8951 4.88045C13.7367 4.73965 12.5531 4.07525 12.4651 4.07965C12.4211 4.07965 12.3419 4.10165 12.2935 4.12805Z" />
<path d="M19.4039 7.67007C19.2587 7.72287 19.1839 7.83287 19.1839 7.98687C19.1839 8.11447 19.2367 8.21127 19.4523 8.47527C20.2267 9.43887 20.7547 10.4729 21.0539 11.6257C21.3883 12.9149 21.3839 14.4901 21.0451 15.8013C20.2971 18.6789 17.9519 21.0021 15.0831 21.6973C12.6983 22.2781 10.2563 21.8161 8.27189 20.4081C7.58989 19.9241 6.53389 18.8461 6.25229 18.3445C6.21269 18.2741 6.18629 18.2785 5.90029 18.4193C5.72869 18.4985 5.58789 18.5777 5.58789 18.5865C5.58789 18.5953 5.72869 18.7933 5.90469 19.0265C6.29189 19.5501 6.97829 20.2629 7.47989 20.6633C9.23109 22.0581 11.5323 22.7753 13.6839 22.5993C17.9035 22.2561 21.1815 19.2509 21.8987 15.0533C22.0043 14.4373 22.0043 12.9325 21.8987 12.3253C21.6171 10.7061 20.9483 9.20567 19.9803 8.03527C19.6899 7.68327 19.5711 7.60847 19.4039 7.67007Z" />
<path d="M3.29118 10.3232C1.79078 10.5784 0.589576 11.6608 0.158376 13.1436C-0.422424 15.1588 0.734776 17.328 2.72798 17.9704C3.85438 18.3312 5.12598 18.1684 6.10278 17.5304C7.34798 16.7164 8.06078 15.216 7.87598 13.7772C7.76158 12.8312 7.38758 12.0744 6.70998 11.4012C5.97958 10.6708 4.99838 10.2748 3.93798 10.2836C3.69598 10.288 3.40558 10.3056 3.29118 10.3232ZM4.18438 12.0788C4.28998 12.1624 4.28998 12.18 4.30318 13.0248L4.31638 13.8872H5.14358C5.89158 13.8872 5.98398 13.896 6.07638 13.9708C6.21718 14.0852 6.21718 14.3492 6.07638 14.4636C5.98398 14.5384 5.89158 14.5472 5.14358 14.5472H4.31638L4.30318 15.4096C4.28998 16.2544 4.28998 16.272 4.18438 16.3556C4.04358 16.47 3.84558 16.4612 3.71798 16.3292C3.60798 16.2236 3.60798 16.2148 3.60798 15.3832V14.5472H2.77198C1.94038 14.5472 1.93158 14.5472 1.82598 14.4372C1.68518 14.3008 1.68518 14.1336 1.82598 13.9972C1.93158 13.8872 1.94038 13.8872 2.77198 13.8872H3.60798V13.0512C3.60798 12.2196 3.60798 12.2108 3.71798 12.1052C3.84558 11.9732 4.04358 11.9644 4.18438 12.0788Z" />
<path d="M16.5133 10.4421C16.3945 10.5345 15.8753 10.9525 15.3649 11.3749L14.4321 12.1405L14.5773 12.2989C14.6521 12.3869 14.7489 12.5057 14.7885 12.5673L14.8589 12.6729L15.0745 12.5013C16.2801 11.5377 17.1557 10.7853 17.1777 10.6973C17.2129 10.5609 17.1425 10.3849 17.0325 10.3277C16.8785 10.2441 16.7333 10.2749 16.5133 10.4421Z" />
<path d="M12.8216 12.3472C12.1748 12.4792 11.7568 12.9544 11.7128 13.6056C11.6864 14.0324 11.7788 14.3008 12.0604 14.6088C12.3464 14.9256 12.628 15.0488 13.068 15.0488C13.3408 15.0532 13.442 15.0312 13.6488 14.93C13.9348 14.7892 14.1812 14.534 14.3132 14.2436C14.3836 14.0896 14.41 13.9532 14.41 13.6892C14.41 13.28 14.3176 13.038 14.0624 12.7564C13.7852 12.4484 13.2308 12.268 12.8216 12.3472Z" />
<path d="M19.0299 13.4692C18.8979 13.5968 18.8891 13.7948 19.0035 13.9356C19.0827 14.0368 19.1179 14.0412 19.7031 14.0544C20.3631 14.072 20.4511 14.05 20.5743 13.8652C20.6579 13.7376 20.6315 13.5748 20.5039 13.4472C20.4247 13.368 20.3543 13.3592 19.7779 13.3592C19.1531 13.3592 19.1311 13.3636 19.0299 13.4692Z" />
<path d="M17.1818 17.9132C16.9926 18.098 17.0322 18.1992 17.4678 18.67C17.8814 19.1188 17.9958 19.2068 18.163 19.2112C18.3126 19.2112 18.4798 19.022 18.4798 18.8504C18.4798 18.7272 18.4182 18.6436 18.0222 18.2564C17.635 17.8736 17.5426 17.8032 17.4282 17.8032C17.3358 17.8032 17.2478 17.8428 17.1818 17.9132Z" />
<path d="M12.8082 19.6777C12.7246 19.7833 12.7158 19.8537 12.7158 20.3817C12.7158 21.0109 12.751 21.1517 12.9226 21.2309C13.0854 21.3057 13.1514 21.2925 13.2922 21.1517L13.4198 21.0241V20.3993C13.4198 19.8009 13.4154 19.7745 13.3098 19.6733C13.1602 19.5193 12.9314 19.5237 12.8082 19.6777Z" />
</g>
<defs>
<clipPath id="clip0_54_4145">
<rect width="22" height="26"  transform="translate(0 0.359375)"/>
</clipPath>
</defs>
</svg>
