<svg width="22" height="27" viewBox="0 0 22 27" fill="none" xmlns="http://www.w3.org/2000/svg">
<g clip-path="url(#clip0_54_4137)">
<path d="M0.180469 2.58281C0 2.81484 0 2.83203 0 12.3195C0 19.7531 0.0257813 21.8672 0.111719 22.0391C0.20625 22.2281 0.592969 22.357 3.82422 23.3023C5.80938 23.8781 7.50234 24.3594 7.57969 24.3594C7.65703 24.3594 7.80313 24.2562 7.89766 24.1273C8.07812 23.9039 8.07812 23.8523 8.07812 18.5414L8.06953 13.1789L8.53359 12.6461C8.78281 12.3539 9.37578 11.6578 9.83125 11.0992C10.2953 10.5492 10.7594 10.0766 10.8625 10.0508C11.5328 9.8875 13.1914 9.62109 13.2172 9.66406C13.2258 9.69844 12.8562 10.7211 12.3922 11.95C11.9195 13.1703 11.3008 15.0266 11 16.0664C10.5102 17.7594 10.3898 18.0859 9.78828 19.2375L9.11797 20.5094L9.10938 21.7727L9.09219 23.0273L9.41016 23.0187C9.59062 23.0102 9.79688 22.9414 9.88281 22.8469C9.97734 22.7523 10.5102 21.7984 11.0859 20.707C12.1 18.7906 12.143 18.6875 12.6758 16.8484C12.9852 15.8172 13.2516 14.9492 13.2688 14.9234C13.2945 14.9062 13.3633 14.9062 13.432 14.932C13.5695 14.9836 15.4344 17.9141 15.4086 18.0344C15.3914 18.0859 15.0734 18.9969 14.6953 20.0539C14.3172 21.1109 14.0078 22.0906 14.0078 22.2367C14.0078 22.6148 14.4977 23.0703 14.9016 23.0703C15.5117 23.0703 15.6492 22.8469 16.543 20.3203C16.9898 19.0656 17.3594 17.957 17.3594 17.8453C17.3594 17.5875 17.2992 17.4844 16.5258 16.2555L15.8813 15.2414L16.0273 14.8375C16.1133 14.6141 16.2508 14.2703 16.3367 14.0727L16.4914 13.7203L17.0758 13.8664L17.6602 14.0125L17.6859 14.5453L17.7117 15.0781H17.2477C16.9984 15.0781 16.7664 15.1039 16.732 15.1297C16.7063 15.1555 16.9297 15.5594 17.2305 16.0234C17.5312 16.4875 17.8406 16.9859 17.9094 17.132C18.0813 17.4586 18.0813 18.1719 17.918 18.5758C17.8492 18.7391 17.7891 18.8937 17.7891 18.9109C17.7891 18.9281 18.657 18.9453 19.7227 18.9453C21.5445 18.9453 21.6648 18.9367 21.8281 18.7734C21.9914 18.6102 22 18.4898 22 17.0289C22 15.1297 21.9828 15.0781 21.2609 15.0781H20.7969V14.5367C20.7969 13.9437 20.6508 13.7031 20.3156 13.7031C20.1953 13.7031 20.1094 13.6086 20.0406 13.4109C19.9805 13.2477 19.8773 13.0758 19.8086 13.0156C19.7484 12.9641 19.1039 12.7664 18.382 12.5773C17.6602 12.3969 17.0672 12.2336 17.0586 12.225C17.0414 12.2078 17.2219 11.718 17.4539 11.125C17.6773 10.532 17.8664 9.90469 17.875 9.72422C17.875 9.3375 17.7031 8.96797 17.4281 8.7875C17.1445 8.60703 15.1938 7.85938 14.85 7.80781C14.5664 7.75625 10.3984 8.46953 9.96875 8.64141C9.84844 8.68437 9.38438 9.16562 8.9375 9.70703C8.49063 10.2484 8.10391 10.6953 8.07812 10.6953C8.05234 10.6953 8.04375 9.38906 8.05234 7.79922C8.06953 5.58203 8.05234 4.84297 7.96641 4.67969C7.87188 4.49922 7.63984 4.40469 6.23047 3.99219C5.32812 3.72578 4.5375 3.48516 4.46875 3.45938C4.4 3.425 6.34219 3.39922 8.79141 3.39922L13.2344 3.39062V5.30703V7.23203L13.6469 7.16328C13.8703 7.12891 14.1023 7.09453 14.1625 7.09453C14.2398 7.08594 14.2656 6.5875 14.2656 4.89453C14.2656 2.81484 14.257 2.69453 14.0938 2.53125C13.9219 2.35938 13.8102 2.35938 7.14141 2.35938H0.352344L0.180469 2.58281ZM6.39375 12.6375C6.50547 12.7492 6.53125 13.0328 6.53125 14.4422C6.53125 15.4391 6.49688 16.1867 6.44531 16.2898C6.31641 16.5305 5.80938 16.5133 5.6375 16.2641C5.43984 15.9805 5.43984 12.9727 5.6375 12.6891C5.79219 12.4656 6.19609 12.4312 6.39375 12.6375Z" />
<path d="M16.4916 4.6625C16.1221 4.85156 15.9846 4.98906 15.7869 5.36719C15.5721 5.77109 15.5463 5.90859 15.5892 6.30391C15.6752 7.20625 16.3799 7.85938 17.2564 7.85938C17.815 7.85938 18.176 7.71328 18.5369 7.33516C18.8806 6.96562 18.9924 6.67344 18.9924 6.13203C18.9924 5.42734 18.5971 4.82578 17.9439 4.55078C17.4627 4.35312 17.0158 4.3875 16.4916 4.6625Z" />
<path d="M13.3803 17.0031C13.26 17.4414 13.2342 17.9313 13.2342 19.4094V21.2656H12.4178H11.6014L11.3694 21.7125C11.2405 21.9617 11.1202 22.1937 11.103 22.2281C11.0858 22.2711 11.5756 22.2969 12.1944 22.2969H13.3202V22.0477C13.3202 21.9102 13.535 21.1969 13.7928 20.4492C14.2397 19.1859 14.2655 19.057 14.2655 18.2836C14.2655 17.493 14.2569 17.45 13.9561 16.9602C13.7842 16.6852 13.6124 16.4531 13.5866 16.4531C13.5522 16.4531 13.4577 16.7023 13.3803 17.0031Z" />
</g>
<defs>
<clipPath id="clip0_54_4137">
<rect width="22" height="26"  transform="translate(0 0.359375)"/>
</clipPath>
</defs>
</svg>
