<svg width="22" height="27" viewBox="0 0 22 27" fill="none" xmlns="http://www.w3.org/2000/svg">
<g clip-path="url(#clip0_71_2650)">
<path d="M5.72323 3.18428C5.12167 3.37334 4.44276 4.06943 4.26229 4.67959C3.9701 5.65068 4.16776 6.4499 4.84667 7.1374C5.82635 8.1085 7.23573 8.1085 8.21542 7.1374C9.18651 6.15771 9.18651 4.74834 8.21542 3.76865C7.52792 3.08975 6.68573 2.89209 5.72323 3.18428ZM7.47635 4.02646C7.98339 4.36162 8.20682 4.79131 8.20682 5.45303C8.20682 6.12334 7.98339 6.54443 7.45057 6.89678C6.96932 7.21475 6.13573 7.23193 5.64589 6.92256C4.99276 6.51865 4.69198 5.71943 4.88964 4.95459C5.00995 4.51631 5.53417 3.94912 5.94667 3.82881C6.40214 3.69131 7.10682 3.77725 7.47635 4.02646Z" />
<path d="M13.157 3.16709C12.7445 3.39912 12.7273 3.52803 12.7188 6.12334C12.7188 8.76162 12.7445 8.92491 13.1914 9.13116C13.5438 9.29444 19.525 9.27725 19.843 9.11397C20.2555 8.89912 20.2812 8.72725 20.2812 6.14053C20.2812 3.55381 20.2555 3.38194 19.843 3.16709C19.5078 2.99522 13.4664 2.99522 13.157 3.16709ZM19.5508 6.14053V8.50381H16.5H13.4492L13.4234 6.22647C13.4148 4.97178 13.4234 3.90616 13.4492 3.846C13.475 3.75147 14.1195 3.73428 16.5172 3.75147L19.5508 3.77725V6.14053Z" />
<path d="M17.2477 5.1265C16.9984 5.52181 16.6375 6.0804 16.457 6.37259C16.2766 6.67337 16.1047 6.914 16.0789 6.914C16.0445 6.914 15.8469 6.74212 15.6406 6.52728C15.4344 6.31244 15.2023 6.14056 15.125 6.14056C14.9531 6.14056 14.7812 6.30384 14.7812 6.48431C14.7812 6.69915 16.0188 7.88509 16.2078 7.84212C16.3797 7.81634 18.2102 4.99759 18.2188 4.75697C18.2188 4.68822 18.1758 4.58509 18.1156 4.52494C17.8836 4.2929 17.6945 4.42181 17.2477 5.1265Z" />
<path d="M4.99295 8.29766C3.54061 8.58125 2.24295 9.84453 1.84764 11.3398C1.67576 12.0188 1.66717 14.8633 1.83905 15.2758C2.08826 15.8859 2.80155 16.2211 3.45467 16.0492L3.77264 15.9633L3.79842 19.3836C3.8242 22.6836 3.8328 22.8125 4.00467 23.0359C4.6578 23.9211 5.86092 23.8523 6.33358 22.907L6.52264 22.5289L6.61717 22.7781C7.03826 23.8867 8.55076 23.9641 9.09217 22.8984C9.28123 22.5203 9.28123 22.4688 9.28123 19.1859V15.843L9.4617 15.9461C9.7367 16.0922 10.4156 15.9977 10.7336 15.7742C11.2664 15.3875 11.3437 15.0953 11.3437 13.3766C11.3437 11.675 11.2578 11.168 10.8195 10.343C10.2867 9.35469 9.12655 8.50391 8.00076 8.28906C7.45076 8.18594 5.53436 8.19453 4.99295 8.29766ZM5.1992 9.23438C5.23358 9.38047 5.35389 9.6125 5.4742 9.75L5.68905 10.0078L5.42264 11.4516C5.11326 13.1273 5.10467 13.05 5.82655 14.4336C6.24764 15.25 6.34217 15.3789 6.53123 15.3789C6.7203 15.3789 6.81483 15.25 7.23592 14.4336C7.9492 13.0586 7.94061 13.1445 7.63123 11.4602L7.37342 10.0164L7.5453 9.79297C7.64842 9.66406 7.76873 9.43203 7.8203 9.26875C7.87186 9.10547 7.9578 8.97656 7.99217 8.97656C8.26717 8.97656 9.08358 9.38906 9.43592 9.71563C10.4328 10.6008 10.6562 11.2883 10.6562 13.4109C10.6562 14.8547 10.6562 14.8891 10.4414 15.1125C10.1922 15.3789 9.82264 15.4047 9.53045 15.1727C9.3328 15.018 9.3242 14.9492 9.28123 13.5656C9.24686 12.3195 9.22108 12.1219 9.09217 12.0359C8.98045 11.9672 8.89451 11.9672 8.79139 12.0359C8.6453 12.1219 8.6367 12.5 8.59373 17.3469L8.55076 22.5719L8.31014 22.7781C8.00076 23.0445 7.69998 23.0445 7.43358 22.7695L7.21873 22.5633V19.5469V16.5305L7.00389 16.3242C6.87498 16.1867 6.69451 16.1094 6.53123 16.1094C6.36795 16.1094 6.18748 16.1867 6.05858 16.3242L5.84373 16.5305V19.5039V22.4859L5.59451 22.7352C5.30233 23.0273 5.00155 23.0531 4.71795 22.8211L4.5117 22.6578L4.46873 17.3898C4.42576 12.5 4.41717 12.1219 4.27967 12.0359C4.16795 11.9672 4.08201 11.9672 3.97889 12.0359C3.84139 12.1219 3.81561 12.3195 3.78123 13.5398C3.75545 14.3133 3.70389 15.0094 3.66951 15.0867C3.59217 15.25 3.24842 15.4219 2.9992 15.4219C2.90467 15.4219 2.7328 15.3273 2.61248 15.207L2.38905 14.9836L2.42342 13.2477L2.4492 11.5117L2.7242 10.9359C3.08514 10.1625 3.58358 9.64688 4.32264 9.27735C4.6492 9.11406 4.96717 8.97656 5.03592 8.97656C5.09608 8.97656 5.16483 9.09688 5.1992 9.23438ZM6.74608 10.4547C6.77186 10.5664 6.88358 11.1508 6.9953 11.7695L7.21014 12.8867L6.90076 13.5484C6.72889 13.918 6.56561 14.2188 6.53123 14.2188C6.49686 14.2188 6.33358 13.918 6.1617 13.5484L5.85233 12.8867L6.06717 11.7695C6.35076 10.2313 6.34217 10.2656 6.53123 10.2656C6.63436 10.2656 6.7203 10.343 6.74608 10.4547Z" />
<path d="M13.157 10.0421C12.7445 10.2741 12.7273 10.403 12.7188 12.9983C12.7188 15.6366 12.7445 15.7999 13.1914 16.0062C13.5438 16.1694 19.525 16.1522 19.843 15.989C20.2555 15.7741 20.2812 15.6022 20.2812 13.0155C20.2812 10.4288 20.2555 10.2569 19.843 10.0421C19.5078 9.87022 13.4664 9.87022 13.157 10.0421ZM19.5508 13.0155V15.3788H16.5H13.4492L13.4234 13.1015C13.4148 11.8468 13.4234 10.7812 13.4492 10.721C13.475 10.6265 14.1195 10.6093 16.5172 10.6265L19.5508 10.6522V13.0155Z" />
<path d="M17.2477 12.0015C16.9984 12.3968 16.6375 12.9554 16.457 13.2476C16.2766 13.5484 16.1047 13.789 16.0789 13.789C16.0445 13.789 15.8469 13.6171 15.6406 13.4023C15.4344 13.1874 15.2023 13.0156 15.125 13.0156C14.9531 13.0156 14.7812 13.1788 14.7812 13.3593C14.7812 13.5742 16.0188 14.7601 16.2078 14.7171C16.3797 14.6913 18.2102 11.8726 18.2188 11.632C18.2188 11.5632 18.1758 11.4601 18.1156 11.3999C17.8836 11.1679 17.6945 11.2968 17.2477 12.0015Z" />
<path d="M13.157 16.9171C12.7445 17.1491 12.7273 17.278 12.7188 19.8733C12.7188 22.5116 12.7445 22.6749 13.1914 22.8812C13.5438 23.0444 19.525 23.0272 19.843 22.864C20.2555 22.6491 20.2812 22.4772 20.2812 19.8905C20.2812 17.3038 20.2555 17.1319 19.843 16.9171C19.5078 16.7452 13.4664 16.7452 13.157 16.9171ZM19.5508 19.8905V22.2538H16.5H13.4492L13.4234 19.9765C13.4148 18.7218 13.4234 17.6562 13.4492 17.596C13.475 17.5015 14.1195 17.4843 16.5172 17.5015L19.5508 17.5272V19.8905Z" />
<path d="M17.2477 18.8765C16.9984 19.2718 16.6375 19.8304 16.457 20.1226C16.2766 20.4234 16.1047 20.664 16.0789 20.664C16.0445 20.664 15.8469 20.4921 15.6406 20.2773C15.4344 20.0624 15.2023 19.8906 15.125 19.8906C14.9531 19.8906 14.7812 20.0538 14.7812 20.2343C14.7812 20.4492 16.0188 21.6351 16.2078 21.5921C16.3797 21.5663 18.2102 18.7476 18.2188 18.507C18.2188 18.4382 18.1758 18.3351 18.1156 18.2749C17.8836 18.0429 17.6945 18.1718 17.2477 18.8765Z" />
</g>
<defs>
<clipPath id="clip0_71_2650">
<rect width="22" height="26"  transform="translate(0 0.359375)"/>
</clipPath>
</defs>
</svg>
