<svg width="22" height="27" viewBox="0 0 22 27" fill="none" xmlns="http://www.w3.org/2000/svg">
<g clip-path="url(#clip0_7_427)">
<path d="M3.61243 2.42097C3.40123 2.49577 3.13723 2.73337 3.02283 2.94457L2.92603 3.12937V13.3594V23.5894L3.02283 23.7698C3.14603 24.003 3.42323 24.2406 3.64763 24.3066C3.88963 24.3814 18.1104 24.3814 18.3524 24.3066C18.5768 24.2406 18.854 24.003 18.9772 23.7698L19.074 23.5894V13.3594V3.12937L18.9772 2.94897C18.854 2.71577 18.5768 2.47817 18.3524 2.41217C18.238 2.37697 17.7056 2.35937 16.72 2.35937H15.2548L15.2856 2.52217C15.2988 2.61457 15.312 2.77297 15.312 2.87417V3.06337H16.7596H18.2116L18.2996 3.17777L18.392 3.29657V13.3682V23.4398L18.282 23.5454L18.1764 23.6554H10.9824H3.78843L3.70043 23.541L3.60803 23.4222V13.3594V3.29657L3.70043 3.17777L3.78843 3.06337H5.24043H6.68803V2.87417C6.68803 2.77297 6.70123 2.61457 6.71443 2.52217L6.74523 2.35937L5.25363 2.36377C4.19763 2.36377 3.71803 2.38137 3.61243 2.42097Z" />
<path d="M7.50209 2.46932C7.39209 2.57492 7.39209 2.58371 7.39209 3.39771C7.39209 4.33491 7.42289 4.48011 7.66489 4.75732C7.98609 5.12252 7.87609 5.10932 11.0001 5.10932C13.2001 5.10932 13.7853 5.09612 13.9173 5.04772C14.1593 4.96412 14.3837 4.74851 14.5025 4.49331C14.5993 4.28651 14.6081 4.22051 14.6081 3.42411C14.6081 2.57931 14.6081 2.57492 14.4981 2.46932L14.3925 2.35932H11.0001H7.60769L7.50209 2.46932ZM13.9041 3.65292C13.9041 4.23811 13.9041 4.24691 13.7897 4.33491C13.6753 4.42731 13.6357 4.42731 11.0001 4.42731C8.36449 4.42731 8.32489 4.42731 8.21049 4.33491C8.09609 4.24691 8.09609 4.23811 8.09609 3.65292V3.06331H11.0001H13.9041V3.65292Z" />
<path d="M10.8855 3.41532C10.7623 3.46372 10.6479 3.62652 10.6479 3.75852C10.6479 3.90372 10.8371 4.07532 10.9999 4.07532C11.1671 4.07532 11.3519 3.90372 11.3519 3.74972C11.3519 3.62212 11.1935 3.43292 11.0659 3.40212C11.0175 3.38892 10.9339 3.39332 10.8855 3.41532Z" />
<path d="M4.42641 8.12776L4.31201 8.21576V9.57536V10.935L4.42641 11.023C4.54081 11.111 4.59361 11.1154 5.86081 11.1154H7.17641L7.28201 11.0054L7.39201 10.8998V9.57536V8.25096L7.28201 8.14536L7.17641 8.03536H5.86081C4.59361 8.03536 4.54081 8.03976 4.42641 8.12776ZM6.68801 8.91536C6.68801 9.09136 6.68361 9.09576 6.39761 9.23656C6.11601 9.37296 6.10281 9.37296 6.05441 9.29376C5.95321 9.12216 5.82561 9.00776 5.71121 8.97696C5.61441 8.95496 5.56161 8.97696 5.45601 9.08256C5.38121 9.15736 5.32401 9.26296 5.32401 9.32016C5.32841 9.37736 5.41201 9.57976 5.51321 9.77336C5.75961 10.2398 5.83441 10.2618 6.31401 10.0418C6.50321 9.95376 6.66161 9.88336 6.67041 9.88336C6.67921 9.88336 6.68801 10.011 6.68801 10.1694V10.4554L5.84321 10.4466L4.99401 10.4334L4.98081 9.58416L4.97201 8.73936H5.83001H6.68801V8.91536Z" />
<path d="M9.19611 8.25973C9.05531 8.31693 8.89691 8.46653 8.81771 8.61173C8.77811 8.69093 8.70771 8.73933 8.60651 8.75693C8.41731 8.79213 8.21491 8.95493 8.14011 9.13533C8.05651 9.33773 8.10491 9.67653 8.24131 9.85693C8.33811 9.98013 8.36011 10.0593 8.36011 10.2485C8.36011 10.4245 8.38651 10.5257 8.46131 10.6357C8.64171 10.9085 9.04211 11.0185 9.32811 10.8733C9.43811 10.8161 9.46891 10.8161 9.57891 10.8733C9.64491 10.9085 9.78131 10.9393 9.87811 10.9393C10.2785 10.9393 10.5689 10.6225 10.5513 10.2001C10.5469 10.0197 10.5645 9.94933 10.6393 9.87013C10.9913 9.49173 10.7977 8.85373 10.2961 8.75253C10.2037 8.73493 10.1245 8.66893 10.0409 8.55013C9.84291 8.25533 9.49971 8.14093 9.19611 8.25973ZM9.57011 9.13093C9.67131 9.33773 9.68891 9.34653 9.90011 9.37733L10.1201 9.40813L9.96611 9.58853C9.81651 9.76453 9.80771 9.78213 9.83851 10.0021C9.85171 10.1297 9.85171 10.2353 9.83851 10.2353C9.82091 10.2353 9.72851 10.1913 9.63611 10.1341L9.46011 10.0373L9.27531 10.1385C9.16971 10.1913 9.07291 10.2353 9.05971 10.2353C9.04211 10.2353 9.05091 10.1341 9.07291 10.0109C9.11251 9.78653 9.11251 9.78213 8.95851 9.62373C8.87051 9.53573 8.80011 9.44773 8.80011 9.43453C8.80011 9.42133 8.90131 9.39493 9.02451 9.37733C9.24451 9.34653 9.25331 9.33773 9.34131 9.13093C9.39411 9.01213 9.43811 8.91533 9.44691 8.91533C9.45131 8.91533 9.50851 9.01213 9.57011 9.13093Z" />
<path d="M12.6279 8.25976C12.4871 8.31696 12.3287 8.46656 12.2495 8.61176C12.2143 8.68656 12.1395 8.73936 12.0559 8.75696C11.5807 8.84936 11.3871 9.37736 11.6599 9.80856C11.7567 9.96696 11.7919 10.0726 11.7919 10.2266C11.7919 10.4686 11.8975 10.7018 12.0647 10.8206C12.2275 10.9394 12.5751 10.9702 12.7511 10.8778C12.8831 10.8118 12.9007 10.8118 13.0327 10.8778C13.2131 10.9702 13.5387 10.9394 13.7147 10.8162C13.8907 10.693 13.9919 10.4686 13.9919 10.2178C13.9919 10.0726 14.0271 9.96256 14.1239 9.80856C14.3967 9.38176 14.2031 8.84936 13.7367 8.75696C13.6487 8.73936 13.5607 8.66896 13.4683 8.53256C13.2659 8.24656 12.9315 8.14096 12.6279 8.25976ZM13.0019 9.13096C13.1031 9.33776 13.1207 9.34656 13.3319 9.37736C13.4507 9.39496 13.5519 9.42136 13.5519 9.43456C13.5519 9.44776 13.4815 9.53576 13.3935 9.62376C13.2395 9.78216 13.2395 9.78656 13.2791 10.011C13.3011 10.1342 13.3099 10.2354 13.2923 10.2354C13.2791 10.2354 13.1823 10.1914 13.0811 10.1386L12.8919 10.0374L12.7071 10.1386C12.6015 10.1914 12.5047 10.2354 12.4915 10.2354C12.4739 10.2354 12.4827 10.1342 12.5047 10.011C12.5443 9.78656 12.5443 9.78216 12.3903 9.62376C12.3023 9.53576 12.2319 9.44776 12.2319 9.43456C12.2319 9.42136 12.3331 9.39496 12.4563 9.37736C12.6763 9.34656 12.6851 9.33776 12.7775 9.13096C12.8259 9.01216 12.8743 8.91536 12.8787 8.91536C12.8875 8.91536 12.9403 9.01216 13.0019 9.13096Z" />
<path d="M16.0161 8.28616C15.9325 8.33016 15.8093 8.44896 15.7433 8.54576C15.6597 8.66896 15.5805 8.73496 15.4881 8.75256C15.2901 8.79216 15.1405 8.91096 15.0437 9.09576C14.9029 9.37296 14.9381 9.64136 15.1449 9.86576C15.2065 9.93616 15.2329 10.033 15.2373 10.2398C15.2461 10.451 15.2725 10.5566 15.3429 10.6578C15.5277 10.9174 15.9193 11.0142 16.1921 10.8734C16.3109 10.8118 16.3373 10.8118 16.4561 10.8734C16.7421 11.0186 17.1381 10.913 17.3229 10.6358C17.3977 10.5258 17.4241 10.4246 17.4241 10.2486C17.4241 10.0594 17.4461 9.98016 17.5341 9.86136C17.8333 9.46976 17.6749 8.90216 17.2261 8.77016C17.0897 8.73496 17.0017 8.66896 16.9313 8.56776C16.8741 8.48416 16.7773 8.37856 16.7113 8.33016C16.5485 8.20696 16.2097 8.18496 16.0161 8.28616ZM16.7597 9.37736C16.8829 9.39496 16.9841 9.42136 16.9841 9.43456C16.9841 9.44776 16.9137 9.53576 16.8257 9.62376C16.6717 9.78216 16.6717 9.78656 16.7113 10.011C16.7333 10.1342 16.7421 10.2354 16.7245 10.2354C16.7113 10.2354 16.6145 10.1914 16.5089 10.1386L16.3241 10.0374L16.1481 10.1342C16.0557 10.1914 15.9633 10.2354 15.9457 10.2354C15.9281 10.2354 15.9281 10.1342 15.9457 10.0154C15.9721 9.80416 15.9677 9.78216 15.8181 9.60616L15.6597 9.42136L15.8841 9.38176C16.0997 9.34216 16.1129 9.32896 16.2229 9.11776L16.3373 8.89336L16.4341 9.12216C16.5309 9.34216 16.5397 9.34656 16.7597 9.37736Z" />
<path d="M4.42641 11.9118L4.31201 11.9998V13.3594V14.719L4.42641 14.807C4.54081 14.895 4.59361 14.8994 5.86081 14.8994H7.17641L7.28201 14.7894L7.39201 14.6838V13.3594V12.035L7.28201 11.9294L7.17641 11.8194H5.86081C4.59361 11.8194 4.54081 11.8238 4.42641 11.9118ZM6.68801 12.6774C6.68801 12.8754 6.68801 12.8754 6.42401 13.0074C6.27881 13.0778 6.14241 13.1394 6.12041 13.1394C6.09841 13.1394 6.04121 13.069 5.98841 12.9854C5.86961 12.783 5.72001 12.7126 5.55281 12.783C5.42081 12.8358 5.32401 12.9898 5.32401 13.1306C5.32841 13.1702 5.41201 13.3638 5.51321 13.5574C5.75521 14.0194 5.82561 14.0414 6.30521 13.8258C6.49441 13.7378 6.65721 13.6674 6.67041 13.6674C6.67921 13.6674 6.68801 13.795 6.68801 13.9534V14.2394L5.84321 14.2306L4.99401 14.2174L4.98081 13.4034C4.97641 12.959 4.98081 12.5674 4.98961 12.5366C5.00721 12.4926 5.20961 12.4794 5.85201 12.4794H6.68801V12.6774Z" />
<path d="M9.10371 12.0965C9.02011 12.1493 8.90571 12.2681 8.84851 12.3605C8.78251 12.4617 8.70771 12.5233 8.65051 12.5233C8.51411 12.5233 8.28091 12.6817 8.17971 12.8401C8.05211 13.0469 8.07851 13.4253 8.24131 13.6365C8.33811 13.7641 8.36011 13.8389 8.36011 14.0325C8.36011 14.2085 8.38651 14.3097 8.46131 14.4197C8.64611 14.6969 9.04211 14.8025 9.32811 14.6573C9.44691 14.5957 9.47331 14.5957 9.59211 14.6573C10.0497 14.8949 10.5777 14.5165 10.5557 13.9753C10.5469 13.8037 10.5645 13.7333 10.6393 13.6585C10.8373 13.4429 10.8769 13.1481 10.7361 12.8797C10.6437 12.6993 10.4105 12.5233 10.2609 12.5233C10.2037 12.5233 10.1245 12.4573 10.0453 12.3341C9.82091 11.9997 9.40291 11.8941 9.10371 12.0965ZM9.57011 12.9149C9.67131 13.1217 9.68891 13.1305 9.90011 13.1613L10.1201 13.1921L9.96611 13.3725C9.81651 13.5485 9.80771 13.5661 9.83851 13.7949C9.85611 13.9269 9.85171 14.0237 9.82971 14.0149C9.80771 14.0017 9.71531 13.9577 9.62291 13.9093C9.46011 13.8257 9.46011 13.8257 9.26211 13.9225C9.15211 13.9753 9.05531 14.0193 9.04651 14.0193C9.03771 14.0193 9.05091 13.9137 9.06851 13.7905C9.10371 13.5661 9.10371 13.5529 8.95411 13.4033C8.87051 13.3153 8.80011 13.2317 8.80011 13.2141C8.80011 13.2009 8.90131 13.1745 9.02451 13.1569C9.24451 13.1261 9.25331 13.1217 9.33691 12.9149C9.38971 12.7961 9.43371 12.6993 9.44251 12.6993C9.45131 12.6993 9.50851 12.7961 9.57011 12.9149Z" />
<path d="M12.1967 12.0261C12.1659 12.0393 12.1131 12.1053 12.0779 12.1713C11.9855 12.3517 11.9855 14.9125 12.0735 15.3437C12.1219 15.5637 12.5003 16.3601 13.6839 18.7273C14.5375 20.4345 15.2679 21.8513 15.3075 21.8821C15.3471 21.9129 15.4395 21.9393 15.5187 21.9393C15.6771 21.9393 15.8399 21.7721 15.8399 21.6049C15.8399 21.5477 15.1755 20.1749 14.3659 18.5513C13.5563 16.9277 12.8919 15.5857 12.8919 15.5681C12.8919 15.5241 13.4991 15.2249 13.5255 15.2557C13.5387 15.2689 13.6883 15.5549 13.8555 15.8981C14.1635 16.5229 14.2383 16.6153 14.4539 16.6153C14.5903 16.6153 14.7839 16.4349 14.7839 16.3073C14.7839 16.2589 14.6475 15.9421 14.4759 15.6033C14.3087 15.2645 14.1679 14.9697 14.1679 14.9433C14.1679 14.9213 14.2867 14.8421 14.4319 14.7673L14.6959 14.6353L15.4659 16.1709C15.9235 17.0861 16.2711 17.7285 16.3195 17.7593C16.5307 17.8693 16.8519 17.7153 16.8519 17.4953C16.8519 17.4469 16.4735 16.6505 16.0115 15.7309C15.3603 14.4241 15.1315 14.0061 14.9775 13.8433C14.7927 13.6497 14.1371 13.1569 12.9403 12.3165C12.5047 12.0085 12.3683 11.9557 12.1967 12.0261ZM13.5211 13.5749C13.8995 13.8477 14.2119 14.0809 14.2119 14.0897C14.2119 14.0985 13.8775 14.2745 13.4639 14.4813L12.7159 14.8553V13.9313C12.7159 13.1745 12.7247 13.0117 12.7731 13.0381C12.8039 13.0557 13.1427 13.2977 13.5211 13.5749Z" />
<path d="M4.40881 15.7045C4.31201 15.8057 4.31201 15.8321 4.31201 17.1521V18.5029L4.42641 18.5909C4.54081 18.6789 4.59361 18.6833 5.86081 18.6833H7.17641L7.28201 18.5733L7.39201 18.4677V17.1433V15.8189L7.28201 15.7133L7.17641 15.6033H5.83881H4.50121L4.40881 15.7045ZM6.68801 16.4613C6.68801 16.6505 6.68361 16.6593 6.48121 16.7649C6.11601 16.9453 6.09401 16.9453 5.98841 16.7693C5.86961 16.5669 5.72441 16.4965 5.55281 16.5669C5.42521 16.6197 5.32401 16.7737 5.32401 16.9057C5.32401 16.9409 5.40321 17.1257 5.49561 17.3149C5.73761 17.7945 5.81241 17.8209 6.29641 17.6097C6.49441 17.5217 6.66601 17.4513 6.67481 17.4513C6.68361 17.4513 6.68801 17.5701 6.68801 17.7153V17.9793H5.83001H4.97201V17.1521C4.97201 16.6945 4.98521 16.3073 5.00281 16.2941C5.01601 16.2765 5.40321 16.2633 5.86081 16.2633H6.68801V16.4613Z" />
<path d="M9.10371 15.8806C9.02011 15.9334 8.91451 16.0434 8.86611 16.1226C8.80891 16.215 8.72091 16.2766 8.61531 16.3074C8.40851 16.3646 8.21051 16.5318 8.14011 16.7034C8.05651 16.9058 8.10491 17.2446 8.24131 17.425C8.33811 17.5482 8.36011 17.6274 8.36011 17.8166C8.36011 18.3314 8.83091 18.6438 9.31051 18.4414C9.45131 18.3842 9.48211 18.3842 9.59211 18.4414C10.0409 18.6746 10.5997 18.2742 10.5513 17.755C10.5337 17.579 10.5469 17.5262 10.6173 17.4646C10.7317 17.3634 10.8241 17.139 10.8241 16.9674C10.8241 16.6638 10.5205 16.3074 10.2653 16.3074C10.1949 16.3074 10.1289 16.2502 10.0541 16.1314C9.83411 15.7794 9.41611 15.6694 9.10371 15.8806ZM9.56571 16.699C9.67131 16.9014 9.68451 16.9146 9.90451 16.941L10.1333 16.9718L9.97051 17.139C9.80771 17.3062 9.80331 17.3106 9.83411 17.5614C9.85171 17.7066 9.85171 17.8078 9.82971 17.799C9.80771 17.7858 9.71531 17.7418 9.62291 17.6934C9.46011 17.6098 9.46011 17.6098 9.25771 17.711C9.14331 17.7638 9.04651 17.8034 9.04211 17.7946C9.03331 17.7858 9.04651 17.6846 9.06851 17.5614C9.10811 17.3502 9.10371 17.3414 8.95411 17.1874C8.87051 17.0994 8.80011 17.0158 8.80011 16.9982C8.80011 16.985 8.90131 16.9586 9.02451 16.941C9.24451 16.9102 9.25331 16.9058 9.33691 16.699C9.38971 16.5802 9.43371 16.4834 9.44251 16.4834C9.45131 16.4834 9.50851 16.5802 9.56571 16.699Z" />
</g>
<defs>
<clipPath id="clip0_7_427">
<rect width="22" height="26"  transform="translate(0 0.359375)"/>
</clipPath>
</defs>
</svg>
