<svg width="22" height="27" viewBox="0 0 22 27" fill="none" xmlns="http://www.w3.org/2000/svg">
<g clip-path="url(#clip0_103_5224)">
<path d="M1.54706 2.51554C1.34081 2.65304 1.35799 2.68741 1.66737 2.68741C1.87362 2.68741 2.09706 2.75616 2.14862 2.85929C2.21737 2.96241 5.51737 3.03116 11.4986 3.03116C20.2299 3.03116 20.7627 3.04835 21.0205 3.34054C21.2783 3.61554 21.3127 4.13116 21.3127 7.05304C21.3127 9.06398 21.2439 10.5765 21.1408 10.7827C20.9689 11.0921 20.7455 11.1093 17.3596 11.1093C15.4002 11.1093 13.6642 11.1609 13.5096 11.2124C13.3721 11.264 12.7877 11.9171 12.2033 12.6734C11.6189 13.4124 11.0861 14.0312 11.0002 14.0312C10.9142 14.0312 10.3814 13.4124 9.79706 12.6734C9.21268 11.9171 8.6283 11.264 8.4908 11.2124C8.33612 11.1609 6.60018 11.1093 4.64081 11.1093C1.18612 11.1093 1.03143 11.0921 0.859556 10.7484C0.722056 10.5249 0.687681 9.18429 0.722056 6.70929C0.773618 3.3921 0.739243 3.03116 0.498618 3.03116C0.343931 3.03116 0.154868 3.15148 0.103306 3.30616C0.0517433 3.46085 0.000180807 5.23116 0.000180807 7.25929C0.000180807 12.1749 -0.377944 11.7968 4.41737 11.7968C6.37674 11.7968 8.07831 11.8655 8.18143 11.9343C8.28455 12.003 8.85174 12.6562 9.43612 13.378C10.8627 15.1827 11.1377 15.1999 12.4783 13.464C13.0111 12.7937 13.5783 12.1234 13.7158 12.003C13.9221 11.8484 14.9533 11.7968 17.5658 11.7968C21.1408 11.7968 21.158 11.7968 21.5705 11.3671L22.0002 10.9546V7.15616V3.34054L21.5017 2.8421L21.0033 2.34366H11.3955C5.50018 2.34366 1.70174 2.41241 1.54706 2.51554Z" />
<path d="M3.85 5.17981C3.60938 5.50637 3.26562 5.78137 3.09375 5.78137C2.71563 5.78137 2.23438 6.31418 2.23438 6.76106C2.23438 6.95012 2.38906 7.31106 2.59531 7.56887C2.81875 7.84387 2.90469 8.13606 2.83594 8.3595C2.69844 8.772 2.99063 9.322 3.45469 9.56262C3.7125 9.70012 3.91875 9.70012 4.27969 9.51106C4.69219 9.30481 4.82969 9.30481 5.17344 9.49387C5.74063 9.80325 5.96406 9.78606 6.35938 9.39075C6.56563 9.1845 6.70312 8.82356 6.70312 8.44543C6.70312 8.0845 6.85781 7.62043 7.08125 7.31106C7.44219 6.82981 7.44219 6.76106 7.21875 6.34856C7.06406 6.07356 6.72031 5.83293 6.39375 5.747C6.10156 5.66106 5.84375 5.54075 5.84375 5.472C5.84375 5.38606 5.68906 5.16262 5.5 4.95637C4.96719 4.38918 4.4 4.47512 3.85 5.17981ZM5.15625 5.78137C5.31094 6.1595 5.51719 6.31418 5.94688 6.40012C6.61719 6.52043 6.68594 6.79543 6.17031 7.2595C5.87813 7.51731 5.82656 7.70637 5.9125 8.222C6.03281 8.94387 5.80938 9.06418 5.17344 8.66887C4.91563 8.51418 4.74375 8.51418 4.38281 8.66887C3.7125 8.97825 3.60938 8.92668 3.60938 8.23918C3.60938 7.82668 3.47188 7.46575 3.24844 7.22512C2.81875 6.76106 2.90469 6.55481 3.59219 6.41731C3.93594 6.34856 4.19375 6.12512 4.38281 5.78137C4.72656 5.12825 4.88125 5.12825 5.15625 5.78137Z" />
<path d="M10.175 5.11088C10.0031 5.42026 9.69375 5.66088 9.40156 5.72963C8.90313 5.83276 8.42188 6.36557 8.42188 6.82963C8.42188 6.98432 8.57656 7.24213 8.76562 7.41401C9.00625 7.63744 9.10938 7.94682 9.10938 8.46244C9.10938 9.44213 9.60781 9.83744 10.45 9.54526C10.8453 9.40776 11.1547 9.40776 11.55 9.54526C12.3922 9.83744 12.8906 9.44213 12.8906 8.46244C12.8906 7.94682 12.9938 7.63744 13.2344 7.41401C13.8875 6.82963 13.5438 5.97026 12.5469 5.72963C12.3063 5.66088 11.9797 5.38588 11.825 5.09369C11.4125 4.35463 10.5875 4.35463 10.175 5.11088ZM11.3438 5.69526C11.4984 6.09057 11.7563 6.27963 12.5984 6.53744C12.8906 6.64057 12.8906 6.67494 12.4953 7.15619C12.1344 7.56869 12.0656 7.79213 12.1516 8.30776C12.2547 8.90932 12.2375 8.92651 11.8422 8.78901C11.6188 8.72026 11.2406 8.65151 11 8.65151C10.7594 8.65151 10.3813 8.72026 10.1578 8.78901C9.7625 8.92651 9.74531 8.90932 9.84844 8.30776C9.93438 7.79213 9.86563 7.56869 9.50469 7.15619C9.10938 6.67494 9.10938 6.64057 9.40156 6.53744C10.2438 6.27963 10.5016 6.09057 10.6562 5.69526C10.7422 5.45463 10.8969 5.26557 11 5.26557C11.1031 5.26557 11.2578 5.45463 11.3438 5.69526Z" />
<path d="M16.4999 4.95637C16.3109 5.16262 16.1562 5.38606 16.1562 5.472C16.1562 5.54075 15.8984 5.66106 15.6062 5.747C15.2453 5.83293 14.9531 6.05637 14.7984 6.36575C14.5921 6.79543 14.6093 6.89856 14.9359 7.34543C15.1421 7.62043 15.2968 8.0845 15.2968 8.44543C15.2968 8.82356 15.4343 9.1845 15.6406 9.39075C16.0359 9.78606 16.2593 9.80325 16.8265 9.49387C17.1703 9.30481 17.3078 9.30481 17.7203 9.51106C18.0812 9.70012 18.2874 9.70012 18.5453 9.56262C19.0093 9.322 19.3015 8.772 19.164 8.3595C19.0953 8.13606 19.1812 7.84387 19.4046 7.56887C20.0062 6.79543 19.7312 5.78137 18.9062 5.78137C18.7515 5.78137 18.3906 5.50637 18.1499 5.17981C17.5999 4.47512 17.0328 4.38918 16.4999 4.95637ZM17.6171 5.78137C17.8062 6.12512 18.064 6.34856 18.4078 6.41731C19.0953 6.55481 19.1812 6.76106 18.7515 7.22512C18.5281 7.46575 18.3906 7.82668 18.3906 8.23918C18.3906 8.92668 18.2874 8.97825 17.6171 8.66887C17.2562 8.51418 17.0843 8.51418 16.8265 8.66887C16.1906 9.06418 15.9671 8.94387 16.0874 8.222C16.1734 7.70637 16.1218 7.51731 15.8296 7.2595C15.314 6.79543 15.3828 6.52043 16.0531 6.40012C16.4828 6.31418 16.689 6.1595 16.8437 5.78137C17.1187 5.12825 17.2734 5.12825 17.6171 5.78137Z" />
<path d="M5.24219 15.9219C4.09063 16.575 3.97031 16.6094 2.475 16.6094C1.15156 16.6094 0.842188 16.6609 0.446875 16.9703C0.0171875 17.3141 0 17.3828 0 19.2047C0 21.6969 0.06875 21.7656 2.28594 21.7656C3.81563 21.7656 4.09063 21.8344 7.88906 23.0547C10.0891 23.7594 12.0484 24.3438 12.2375 24.3438C12.4266 24.3438 12.7359 24.2578 12.9422 24.1375C13.7156 23.7422 21.6562 17.6062 21.8281 17.2969C21.9141 17.125 22 16.8328 22 16.6437C22 16.1969 21.2953 15.5781 20.7797 15.5781C20.5562 15.5781 19.6453 16.0422 18.7516 16.6094L17.1187 17.6406L16.6891 17.1078C16.2422 16.5922 16.1734 16.575 12.0312 15.9219C9.71094 15.5437 7.51094 15.2344 7.13281 15.2516C6.65156 15.2516 6.08437 15.4578 5.24219 15.9219ZM11.6359 16.5922C13.9047 16.9531 15.8641 17.3141 15.9672 17.3656C16.1219 17.4688 16.2422 18.2594 16.1219 18.3625C16.0875 18.3797 14.3 18.4484 12.1172 18.5C8.76562 18.5687 8.16406 18.6203 8.16406 18.8438C8.16406 19.0328 8.43906 19.1188 9.19531 19.1875C10.1062 19.2562 10.3641 19.3766 11.4125 20.1672C12.0656 20.6656 12.6672 21.0781 12.7531 21.0781C13.0281 21.0781 13.8531 20.5969 17.2906 18.4141C19.1469 17.2281 20.7281 16.2656 20.7969 16.2656C21.0203 16.2656 21.3469 16.7641 21.2437 16.9359C21.0891 17.1766 12.8391 23.3984 12.4953 23.5359C12.2891 23.6047 10.6562 23.175 8.19844 22.3672C4.46875 21.1812 4.09063 21.0781 2.49219 21.0437L0.773438 20.9922L0.721875 19.3766C0.6875 18.3453 0.739062 17.6922 0.876563 17.5375C1.01406 17.3656 1.5125 17.2969 2.64688 17.2969C4.14219 17.2969 4.27969 17.2625 5.5 16.6094C6.20469 16.2484 6.94375 15.9391 7.13281 15.9391C7.32188 15.9219 9.35 16.2312 11.6359 16.5922Z" />
</g>
<defs>
<clipPath id="clip0_103_5224">
<rect width="22" height="26"  transform="translate(0 0.34375)"/>
</clipPath>
</defs>
</svg>
