<svg width="22" height="27" viewBox="0 0 22 27" fill="none" xmlns="http://www.w3.org/2000/svg">
<g clip-path="url(#clip0_100_1063)">
<path d="M10.2169 3.52534C9.19605 3.71014 8.32485 4.17654 7.59885 4.92894C6.92565 5.62414 6.50325 6.49094 6.35365 7.47214C6.29205 7.89454 6.27885 7.92534 6.11605 8.08374C6.01925 8.17614 5.92685 8.32134 5.90045 8.41814C5.87405 8.51054 5.85205 8.98134 5.85205 9.46534C5.85205 10.2925 5.85645 10.3629 5.95325 10.5433C6.22605 11.0889 6.94765 11.1241 7.32165 10.6181C7.40965 10.4993 7.41405 10.4289 7.42725 9.48294C7.44045 8.36094 7.42285 8.26854 7.15005 8.04854L7.01365 7.93854L7.04885 7.62614C7.19845 6.38974 8.06525 5.17974 9.20485 4.61654C10.3973 4.03134 11.6029 4.03134 12.7909 4.61654C13.9305 5.17534 14.8017 6.39414 14.9513 7.62614L14.9865 7.93854L14.8501 8.04854C14.5773 8.26414 14.5597 8.36094 14.5685 9.49614L14.5729 10.5213L14.3177 10.6621C14.0053 10.8337 13.5961 10.9657 13.1429 11.0449C12.7997 11.1065 12.7909 11.1065 12.6413 11.0009C12.5005 10.9085 12.4345 10.8953 12.0605 10.8953C11.5677 10.8953 11.4489 10.9437 11.3389 11.1725C11.2685 11.3089 11.2641 11.3573 11.3081 11.4893C11.4005 11.7665 11.5193 11.8193 12.0605 11.8193C12.5269 11.8193 12.5401 11.8149 12.6853 11.6873C12.7777 11.6081 12.8877 11.5553 12.9625 11.5553C13.3717 11.5509 14.2869 11.2517 14.7093 10.9833C14.9029 10.8601 14.9205 10.8557 15.0657 10.9173C15.2725 11.0053 15.4705 10.9965 15.6861 10.8997C16.0953 10.7149 16.1481 10.5477 16.1481 9.45654C16.1481 8.97694 16.1261 8.51054 16.0997 8.41814C16.0733 8.32134 15.9809 8.17614 15.8841 8.08374C15.7213 7.92534 15.7081 7.89454 15.6465 7.47214C15.4617 6.22694 14.8237 5.16654 13.8029 4.39654C13.4509 4.12814 12.8525 3.81574 12.4521 3.68814C11.7789 3.46814 10.8857 3.40654 10.2169 3.52534Z" />
<path d="M10.692 5.06958C10.0496 5.16638 9.68 5.30278 9.2312 5.59758C8.4964 6.08598 7.9948 6.90878 7.8716 7.83718C7.7528 8.75238 8.1356 10.112 8.7912 11.08C9.6272 12.3164 10.6392 12.8092 11.6336 12.4572C11.8008 12.4 11.9724 12.3208 12.0076 12.2812C12.0692 12.224 12.0472 12.2152 11.8008 12.2152C11.3388 12.2152 11.0264 11.9864 10.912 11.564C10.8504 11.3264 10.89 11.124 11.044 10.882C11.2244 10.596 11.4048 10.5256 11.9988 10.508C12.4212 10.4948 12.518 10.5036 12.694 10.5828C12.936 10.6884 12.9844 10.6928 13.2924 10.6224C13.5212 10.5696 13.5212 10.5652 13.6664 10.2572C13.8732 9.80398 14.0316 9.26278 14.1108 8.73918C14.3792 6.93958 13.2 5.34238 11.418 5.08718C11.11 5.04318 10.9032 5.03878 10.692 5.06958Z" />
<path d="M7.97743 12.1494C6.96103 12.2506 6.43303 12.431 6.06343 12.805C5.72023 13.1482 5.44303 13.7994 5.34623 14.4902L5.31543 14.7234H11.0002H16.685L16.6586 14.5122C16.5178 13.5354 16.0998 12.7874 15.519 12.497C15.4002 12.4354 15.1538 12.3474 14.969 12.299C14.6346 12.2154 13.385 12.0746 13.3234 12.1142C13.3014 12.123 13.2882 12.167 13.2882 12.211C13.2882 12.2506 13.231 12.3782 13.1562 12.4926C12.989 12.7566 12.6018 13.0118 12.1266 13.1702C11.7922 13.2802 11.7218 13.289 11.0002 13.289C10.2786 13.289 10.2082 13.2802 9.87383 13.1702C9.25343 12.9634 8.86623 12.6554 8.72983 12.2638C8.70343 12.1758 8.65063 12.101 8.61543 12.101C8.58463 12.0966 8.29423 12.1186 7.97743 12.1494Z" />
<path d="M5.15685 15.1677C4.77845 15.2425 4.49245 15.5065 4.37365 15.8937C4.31645 16.0829 4.32525 16.1621 4.47045 17.0289C4.88845 19.5457 5.28445 21.8029 5.32405 21.9525C5.38565 22.1681 5.64965 22.4585 5.87405 22.5597C6.04125 22.6389 6.30525 22.6433 11.0001 22.6433C15.6949 22.6433 15.9589 22.6389 16.1261 22.5597C16.3505 22.4585 16.6145 22.1681 16.6761 21.9525C16.7201 21.7941 17.1029 19.5765 17.5077 17.1609C17.6793 16.1533 17.6837 16.0873 17.6221 15.8849C17.5385 15.6033 17.3449 15.3745 17.0853 15.2425L16.8741 15.1413L11.1101 15.1325C7.94205 15.1325 5.26245 15.1457 5.15685 15.1677ZM11.3125 18.5029C11.5149 18.7097 11.4665 19.0617 11.2157 19.1937C10.7625 19.4269 10.3313 18.8593 10.6877 18.5029C10.7889 18.4017 10.8549 18.3753 11.0001 18.3753C11.1453 18.3753 11.2113 18.4017 11.3125 18.5029Z" />
<path d="M5.77264 22.8897C5.65824 22.9689 5.64944 23.0921 5.74624 23.1889C5.80784 23.2505 6.34464 23.2593 10.9998 23.2593C15.655 23.2593 16.1918 23.2505 16.2534 23.1889C16.3502 23.0921 16.3414 22.9689 16.227 22.8897C16.139 22.8281 15.5714 22.8193 10.9998 22.8193C6.42824 22.8193 5.86064 22.8281 5.77264 22.8897Z" />
</g>
<defs>
<clipPath id="clip0_100_1063">
<rect width="22" height="26"  transform="translate(0 0.359375)"/>
</clipPath>
</defs>
</svg>
