<svg width="22" height="27" viewBox="0 0 22 27" fill="none" xmlns="http://www.w3.org/2000/svg">
<g clip-path="url(#clip0_100_1043)">
<path d="M0.052682 2.4123C-0.022118 2.4871 -0.022118 6.3679 0.052682 6.4427C0.123082 6.5131 0.197882 6.5087 0.281482 6.4251C0.343082 6.3679 0.351882 6.1347 0.351882 4.5331V2.7115H3.01828C4.76948 2.7115 5.71108 2.6939 5.76828 2.6675C5.86068 2.6147 5.87828 2.4915 5.79908 2.4123C5.72428 2.3375 0.127482 2.3375 0.052682 2.4123Z" />
<path d="M10.5379 2.40341C9.55669 2.61901 8.78229 3.37581 8.50949 4.38781C8.40829 4.76181 8.40829 5.45701 8.50949 5.83101C8.75149 6.72421 9.38509 7.42381 10.2343 7.73621C10.4455 7.81101 10.5907 7.82861 10.9999 7.82861C11.4091 7.82861 11.5543 7.81101 11.7655 7.73621C12.6147 7.42381 13.2483 6.72421 13.4903 5.83101C13.5915 5.45701 13.5915 4.76181 13.4903 4.38341C13.2571 3.51221 12.5839 2.76861 11.7787 2.49141C11.4707 2.38581 10.8195 2.33741 10.5379 2.40341Z" />
<path d="M16.2006 2.4123C16.1214 2.4915 16.139 2.6147 16.2314 2.6675C16.2886 2.6939 17.2302 2.7115 18.9814 2.7115H21.6478V4.5331C21.6478 6.1347 21.6566 6.3679 21.7182 6.4251C21.8018 6.5087 21.8766 6.5131 21.947 6.4427C22.0218 6.3679 22.0218 2.4871 21.947 2.4123C21.8722 2.3375 16.2754 2.3375 16.2006 2.4123Z" />
<path d="M5.69338 5.13156C5.47338 5.17996 5.29298 5.33836 5.21818 5.54076C5.16538 5.68596 5.11698 6.51316 4.99378 9.57556C4.91018 11.692 4.83978 13.4872 4.83978 13.5664V13.7072L3.03578 13.7204L1.23178 13.7336L1.12618 13.8436C0.989781 13.98 0.175781 15.4496 0.175781 15.5552C0.175781 15.5992 0.210981 15.6652 0.254981 15.7048C0.325381 15.7708 0.470581 15.7796 1.37698 15.7796H2.41978L2.42858 18.4812C2.44178 21.152 2.44178 21.1872 2.53418 21.3104C2.70138 21.5348 2.87298 21.6008 3.34818 21.6228L3.78378 21.6448V22.7184C3.78378 23.6292 3.79698 23.8184 3.85418 23.9504C4.08738 24.4344 4.81338 24.4432 5.06418 23.9636C5.13898 23.8272 5.14778 23.6996 5.14778 22.7228V21.636L5.31498 21.6228C5.46898 21.6096 5.47778 21.6008 5.49098 21.4468L5.50418 21.2796H4.29418C3.62978 21.2796 3.03578 21.262 2.97418 21.2356C2.91258 21.2136 2.84218 21.1564 2.81578 21.108C2.78498 21.0464 2.76738 20.1752 2.75858 18.3976L2.74978 15.7796H5.87378H8.99338L8.82178 15.6036L8.65018 15.4276H4.63298C2.42418 15.4276 0.615781 15.4188 0.615781 15.41C0.615781 15.4012 0.778581 15.102 0.976581 14.7412L1.34178 14.0856L4.58898 14.0724L7.84058 14.0636L7.80098 13.8304C7.78338 13.7072 7.76578 13.3728 7.76578 13.0956C7.77018 12.5192 7.86258 12.1408 8.12218 11.6436C8.94058 10.086 10.8678 9.46996 12.4606 10.2576C13.2746 10.6624 13.851 11.3488 14.1282 12.2596C14.2118 12.5236 14.2294 12.6952 14.2338 13.0956C14.2338 13.3728 14.2162 13.7072 14.1986 13.8304L14.159 14.0636H17.393C19.9274 14.0636 20.6358 14.0768 20.671 14.1164C20.7282 14.1912 21.3838 15.3704 21.3838 15.4012C21.3838 15.4144 19.5754 15.4276 17.3666 15.4276H13.3494L13.1778 15.6036L13.0062 15.7796H16.1258H19.2498L19.2366 18.402C19.2322 20.1312 19.2102 21.0508 19.1794 21.108C19.1574 21.1564 19.087 21.2136 19.0254 21.2356C18.9638 21.262 18.3698 21.2796 17.7054 21.2796H16.4954L16.5086 21.4468C16.5218 21.6228 16.5174 21.6184 16.865 21.6272L17.0278 21.6316V22.7184C17.0278 23.6688 17.0366 23.8272 17.107 23.9636C17.217 24.188 17.4326 24.3156 17.7054 24.3156C17.9738 24.3156 18.1454 24.2144 18.2906 23.9768C18.3874 23.814 18.3918 23.7788 18.3918 22.7096V21.6096L18.735 21.6052C19.131 21.5964 19.3026 21.526 19.4566 21.3148L19.5578 21.1696L19.571 18.4724L19.5798 15.7796H20.6314C21.5906 15.7796 21.683 15.7708 21.749 15.7004C21.793 15.6564 21.8238 15.586 21.8238 15.5464C21.8238 15.4452 21.0054 13.9756 20.8734 13.8436L20.7678 13.7336L18.9638 13.7204L17.1598 13.7072V13.5884C17.1598 13.5224 17.0894 11.7272 17.0058 9.59756C16.8298 5.28556 16.8474 5.43516 16.5306 5.22836L16.3502 5.10956H15.1402H13.9258L13.9126 5.27236L13.8994 5.43956H15.0434C16.271 5.43956 16.3722 5.45716 16.4514 5.65516C16.491 5.74756 16.8078 12.7436 16.8078 13.4916V13.7116H16.5658H16.3238V12.462C16.3238 11.0848 16.2886 10.7944 16.0686 10.2224C15.6198 9.06956 14.511 8.07956 13.1514 7.61756L12.8346 7.50756L12.6322 7.65716C11.6554 8.36996 10.3398 8.36996 9.37178 7.66156L9.16058 7.50756L8.83498 7.62196C7.42698 8.12356 6.32698 9.11796 5.90898 10.2664C5.70658 10.8208 5.67578 11.12 5.67578 12.462V13.7116H5.43378H5.19178V13.5004C5.19178 12.7172 5.50858 5.70796 5.54818 5.63316C5.64058 5.45716 5.75938 5.43956 6.95618 5.43956H8.10018L8.08698 5.27236L8.07378 5.10956L6.95178 5.10516C6.33578 5.10076 5.76818 5.11396 5.69338 5.13156Z" />
<path d="M10.2607 10.3675C9.34115 10.6095 8.58875 11.3003 8.24995 12.2155C8.09155 12.6467 8.04755 13.3947 8.15755 13.8655C8.39955 14.8995 9.24435 15.7531 10.2871 16.0215C10.6523 16.1139 11.3519 16.1139 11.7127 16.0215C12.7599 15.7531 13.5871 14.9127 13.8379 13.8523C13.9523 13.3859 13.9127 12.6599 13.7499 12.2155C13.2263 10.7899 11.7127 9.98912 10.2607 10.3675Z" />
<path d="M10.2519 16.4659C10.1903 16.4747 9.99226 16.5055 9.81186 16.5319C9.42906 16.5891 8.69866 16.8179 8.35546 16.9895C7.03986 17.6539 6.14666 18.7363 5.91346 19.9463C5.82986 20.3863 5.82106 24.2231 5.90466 24.3067C5.97946 24.3815 16.0203 24.3815 16.0951 24.3067C16.1787 24.2231 16.1699 20.3863 16.0863 19.9463C15.7475 18.1731 14.0139 16.7475 11.8799 16.4835C11.5323 16.4439 10.4983 16.4307 10.2519 16.4659Z" />
<path d="M3.1637 18.063C3.0757 18.1334 3.0669 18.1642 3.1065 18.2302C3.1505 18.3006 3.2473 18.3094 4.2681 18.3226C5.3857 18.3314 5.5001 18.3182 5.5001 18.173C5.5001 18.1422 5.4693 18.085 5.4297 18.0498C5.3725 17.9882 5.2097 17.9794 4.3121 17.9794C3.3441 17.9794 3.2561 17.9838 3.1637 18.063Z" />
<path d="M16.5704 18.0498C16.5308 18.085 16.5 18.1422 16.5 18.173C16.5 18.3182 16.6144 18.3314 17.732 18.3226C18.7528 18.3094 18.8496 18.3006 18.8936 18.2302C18.9332 18.1642 18.9244 18.1334 18.8364 18.063C18.744 17.9838 18.656 17.9794 17.688 17.9794C16.7904 17.9794 16.6276 17.9882 16.5704 18.0498Z" />
<path d="M3.15048 18.7539C3.11088 18.7891 3.08008 18.8375 3.08008 18.8595C3.08008 18.8815 3.11088 18.9299 3.15048 18.9651C3.25168 19.0663 4.31648 19.0663 4.41768 18.9651C4.50568 18.8815 4.50568 18.8375 4.41768 18.7539C4.31648 18.6527 3.25168 18.6527 3.15048 18.7539Z" />
<path d="M17.5821 18.7539C17.5425 18.7891 17.5117 18.8375 17.5117 18.8595C17.5117 18.8815 17.5425 18.9299 17.5821 18.9651C17.6833 19.0663 18.7481 19.0663 18.8493 18.9651C18.9329 18.8859 18.9329 18.8771 18.8757 18.7671C18.8317 18.6923 18.7789 18.6835 18.2377 18.6835C17.7625 18.6835 17.6349 18.6967 17.5821 18.7539Z" />
</g>
<defs>
<clipPath id="clip0_100_1043">
<rect width="22" height="26"  transform="translate(0 0.359375)"/>
</clipPath>
</defs>
</svg>
