<?xml version="1.0" standalone="no"?>
<!DOCTYPE svg PUBLIC "-//W3C//DTD SVG 20010904//EN"
 "http://www.w3.org/TR/2001/REC-SVG-20010904/DTD/svg10.dtd">
<svg version="1.0" xmlns="http://www.w3.org/2000/svg"
 width="22" height="27" viewBox="0 0 256.000000 256.000000"
 preserveAspectRatio="xMidYMid meet">
<metadata>
Created by potrace 1.16, written by Peter Selinger 2001-2019
</metadata>
<g transform="translate(0.000000,256.000000) scale(0.100000,-0.100000)"
fill="#000000" stroke="none">
<path d="M307 2142 c-39 -24 -71 -94 -64 -139 27 -163 257 -163 284 0 7 46
-26 116 -66 140 -38 22 -117 22 -154 -1z"/>
<path d="M902 2140 c-107 -66 -65 -243 61 -257 56 -7 112 19 138 61 27 44 26
125 -2 160 -45 57 -135 74 -197 36z"/>
<path d="M1503 2140 c-82 -49 -86 -185 -8 -236 37 -24 106 -29 141 -11 51 27
76 62 82 115 8 89 -48 152 -138 152 -27 0 -58 -8 -77 -20z"/>
<path d="M2120 2153 c-28 -10 -70 -56 -81 -90 -30 -91 40 -183 138 -183 106 0
175 116 123 207 -12 22 -35 47 -50 56 -27 16 -98 22 -130 10z"/>
<path d="M213 1828 c-33 -36 -51 -80 -62 -149 -18 -110 -45 -99 234 -99 279 0
252 -11 234 99 -11 69 -29 113 -62 149 -20 21 -28 22 -172 22 -144 0 -152 -1
-172 -22z"/>
<path d="M805 1824 c-30 -33 -54 -103 -62 -181 l-6 -63 160 0 160 0 67 35 c37
19 74 35 82 35 8 0 14 6 14 13 0 35 -32 122 -55 153 l-26 34 -155 0 c-154 0
-155 0 -179 -26z"/>
<path d="M1396 1818 c-22 -30 -56 -123 -56 -155 0 -7 6 -13 14 -13 7 0 45 -16
82 -35 l69 -35 158 0 157 0 0 35 c0 46 -19 133 -37 168 -33 65 -38 67 -207 67
l-155 0 -25 -32z"/>
<path d="M1997 1820 c-30 -35 -53 -104 -63 -182 l-6 -58 246 0 c280 0 253 -11
235 99 -11 69 -29 113 -62 149 -20 21 -28 22 -173 22 l-152 0 -25 -30z"/>
<path d="M1192 1591 c-67 -23 -119 -65 -156 -125 -23 -37 -30 -61 -34 -121 -8
-128 42 -221 149 -274 143 -72 313 -16 388 126 38 73 31 189 -15 269 -64 112
-212 168 -332 125z"/>
<path d="M0 1515 c0 -25 5 -45 10 -45 6 0 10 -125 10 -355 l0 -355 22 -5 c13
-3 178 -4 367 -3 l344 3 38 73 c64 128 142 190 250 199 l58 6 -48 46 c-60 56
-90 115 -102 195 -12 80 3 148 46 221 19 32 35 59 35 61 0 2 -232 4 -515 4
l-515 0 0 -45z"/>
<path d="M1530 1551 c0 -5 6 -14 14 -20 7 -6 26 -39 42 -74 58 -129 30 -274
-75 -376 l-50 -48 58 -6 c113 -10 188 -70 249 -199 l37 -77 352 -1 c193 0 358
3 367 6 14 5 16 47 16 360 0 229 4 354 10 354 6 0 10 20 10 45 l0 45 -515 0
c-289 0 -515 -4 -515 -9z"/>
<path d="M1025 975 c-5 -2 -22 -6 -38 -9 -36 -8 -99 -66 -130 -119 -14 -23
-36 -78 -50 -122 -22 -71 -31 -118 -52 -287 l-5 -38 530 0 c291 0 530 3 530 8
0 4 -7 55 -14 113 -26 192 -65 305 -132 378 -68 76 -67 76 -364 78 -146 1
-269 0 -275 -2z"/>
</g>
</svg>
