<svg version="1.0" xmlns="http://www.w3.org/2000/svg" width="22" height="27" viewBox="0 0 256.000000 256.000000" preserveAspectRatio="xMidYMid meet">
<metadata>
Created by potrace 1.16, written by Peter Selinger 2001-2019
</metadata>
<g transform="translate(0.000000,256.000000) scale(0.100000,-0.100000)" fill="#000000" stroke="none">
<path d="M478 2541 c-113 -37 -212 -120 -262 -220 -48 -95 -56 -147 -56 -387
0 -259 -10 -306 -85 -414 -25 -35 -52 -87 -60 -114 -20 -65 -19 -173 1 -232
14 -43 14 -52 0 -104 -12 -42 -16 -102 -16 -233 l0 -177 40 0 40 0 0 -330 0
-330 625 0 625 0 0 330 0 330 41 0 41 0 -4 188 c-3 141 -8 198 -20 231 -15 38
-15 48 -2 84 42 119 23 236 -56 357 -54 82 -67 113 -80 178 -7 41 -7 43 14 38
11 -3 125 -6 252 -6 l231 0 13 -26 c38 -70 153 -72 194 -3 l17 29 197 0 c186
0 200 1 247 24 28 13 64 39 82 57 59 62 63 84 63 336 0 219 -1 230 -24 279
-13 28 -39 63 -58 77 -76 58 -59 57 -665 57 -519 0 -561 -2 -598 -19 -41 -18
-105 -75 -105 -92 0 -6 -20 4 -45 21 -25 17 -71 43 -103 58 -55 26 -65 27
-242 29 -158 2 -193 0 -242 -16z m464 -108 c78 -39 139 -102 176 -181 22 -48
27 -74 30 -169 l4 -112 -33 9 c-19 6 -34 10 -35 10 -1 0 -4 30 -7 67 -7 71
-42 156 -77 188 -20 18 -21 18 -52 -12 l-31 -32 19 -28 c21 -31 44 -80 44 -94
0 -5 -54 -9 -120 -9 -109 0 -120 2 -120 18 0 24 -49 99 -89 136 l-31 30 -41
-40 c-42 -40 -79 -101 -79 -129 0 -11 -11 -15 -39 -15 -39 0 -39 0 -31 30 10
36 17 49 43 78 l21 22 -29 30 c-16 17 -34 30 -41 30 -15 0 -62 -71 -80 -122
-8 -22 -14 -64 -14 -93 0 -47 -2 -53 -24 -59 -13 -3 -32 -9 -41 -13 -16 -6
-17 3 -13 104 4 95 8 117 35 174 50 106 108 160 214 199 47 17 75 20 214 17
159 -2 161 -2 227 -34z m1448 16 c21 -12 47 -38 59 -59 20 -35 21 -52 21 -247
0 -201 -1 -211 -23 -244 -12 -19 -42 -44 -67 -56 -42 -22 -56 -23 -257 -23
l-213 0 -20 -40 c-11 -22 -26 -40 -34 -40 -7 0 -21 18 -31 40 l-18 40 -252 0
c-153 0 -264 4 -283 11 l-30 10 0 167 c0 92 -4 180 -8 196 -5 20 -3 27 4 22 6
-3 29 -4 51 0 37 6 40 9 43 43 l3 36 73 3 72 3 0 -41 c0 -29 -4 -40 -15 -40
-9 0 -27 -11 -40 -25 -21 -20 -25 -34 -25 -85 l0 -60 45 0 45 0 0 39 c0 34 4
40 30 51 17 7 35 20 40 29 14 27 15 153 2 178 -20 36 -45 43 -161 43 -100 0
-112 -2 -136 -22 -20 -18 -27 -35 -32 -80 l-6 -58 -30 65 -30 64 28 37 c49 65
35 63 624 64 525 0 534 0 571 -21z m-1751 -356 c5 -10 12 -39 16 -65 l7 -48
165 0 165 0 -4 -167 c-3 -150 -6 -173 -26 -210 -26 -51 -76 -91 -134 -108 -39
-11 -43 -15 -46 -46 -4 -50 35 -119 81 -142 37 -19 37 -19 37 -83 l0 -64 -200
0 -200 0 0 64 c0 61 1 64 29 76 16 6 41 25 57 41 22 23 29 40 32 89 4 55 3 60
-16 60 -33 0 -87 27 -120 61 -54 56 -63 95 -60 269 l3 155 76 3 76 3 7 45 c10
75 34 104 55 67z m-309 -459 c0 -6 14 -39 31 -73 31 -62 112 -141 146 -141 8
0 13 -6 11 -12 -2 -7 -58 -30 -124 -51 -177 -57 -204 -68 -250 -103 -23 -18
-45 -30 -48 -27 -11 12 -6 111 8 150 8 22 35 70 60 107 25 37 54 93 63 125
l17 56 43 -10 c24 -5 43 -15 43 -21z m844 -17 c9 -30 37 -87 64 -128 70 -107
87 -162 77 -234 l-7 -42 -26 24 c-41 38 -105 67 -234 106 -164 50 -183 62
-133 85 64 29 131 115 159 205 3 9 15 17 28 17 13 0 30 5 38 10 8 5 16 10 17
10 1 0 9 -24 17 -53z m-764 -457 c0 -133 21 -191 94 -258 148 -135 375 -94
462 84 22 45 27 72 32 164 2 61 6 110 7 110 9 0 148 -51 171 -63 44 -23 90
-76 115 -132 19 -41 24 -73 27 -182 l4 -133 -96 0 c-53 0 -96 3 -96 8 0 4 7
29 15 56 8 27 15 72 15 99 0 63 -28 167 -47 174 -8 3 -30 -1 -48 -10 l-34 -16
20 -55 c26 -77 25 -99 -21 -247 -53 -172 -53 -220 0 -465 22 -102 37 -190 34
-195 -3 -5 -160 -9 -360 -9 -319 0 -355 2 -361 16 -3 9 11 96 33 193 51 231
51 292 1 453 -40 127 -46 191 -22 258 8 23 15 44 15 46 0 2 -18 13 -40 24
l-41 21 -15 -36 c-36 -88 -39 -189 -8 -277 l13 -38 -94 0 -95 0 0 130 c0 139
7 171 56 242 34 48 88 83 177 113 39 13 75 24 80 24 4 1 7 -44 7 -99z m479
-119 c-15 -43 -90 -108 -140 -121 -78 -21 -175 20 -220 94 -35 57 -36 56 175
56 l195 0 -10 -29z m-578 -398 c23 -23 11 -155 -32 -354 l-43 -199 -33 0 -33
0 0 286 0 287 66 -6 c36 -2 70 -9 75 -14z m919 -268 l0 -285 -35 0 c-30 0 -35
3 -35 23 0 13 -18 105 -40 205 -39 177 -46 239 -34 300 7 35 17 39 92 41 l52
1 0 -285z"></path>
<path d="M1675 2375 c-21 -20 -25 -34 -25 -85 l0 -60 45 0 45 0 0 40 0 40 75
0 75 0 0 -38 c0 -33 -4 -39 -30 -49 -36 -13 -50 -46 -50 -114 l0 -49 45 0 45
0 0 38 c0 34 4 40 32 53 46 20 59 52 56 133 -3 60 -7 71 -31 92 -26 22 -36 24
-143 24 -109 0 -116 -1 -139 -25z"></path>
<path d="M2104 2388 c-30 -14 -44 -50 -44 -108 l0 -50 44 0 c44 0 45 0 48 38
l3 37 78 3 77 3 0 -41 c0 -33 -3 -40 -20 -40 -38 0 -60 -38 -60 -107 l0 -63
45 0 45 0 0 39 c0 31 4 41 20 46 42 13 60 53 60 130 0 69 -2 75 -31 99 -29 25
-37 26 -137 25 -59 0 -117 -5 -128 -11z"></path>
<path d="M693 1903 l-33 -4 0 -85 0 -84 45 0 46 0 -3 87 c-2 47 -7 87 -13 88
-5 1 -25 0 -42 -2z"></path>
<path d="M1725 1396 c-68 -30 -70 -36 -73 -270 -3 -233 0 -245 57 -283 31 -21
45 -23 162 -23 120 0 128 -1 134 -21 4 -11 21 -29 38 -40 57 -34 126 -20 155
31 l17 30 123 0 c139 0 176 11 205 59 15 25 17 59 17 239 0 311 29 292 -452
292 -270 -1 -360 -4 -383 -14z m726 -86 c18 -10 19 -23 19 -193 0 -129 -4
-187 -12 -195 -8 -8 -58 -12 -158 -12 l-147 0 -16 -41 c-19 -48 -34 -47 -62 4
l-20 37 -138 0 c-76 0 -147 5 -158 10 -18 10 -19 23 -19 188 0 97 4 182 8 188
4 6 14 14 22 17 28 10 660 8 681 -3z"></path>
<path d="M1810 1195 l0 -45 295 0 295 0 0 45 0 45 -295 0 -295 0 0 -45z"></path>
<path d="M1810 1035 l0 -45 295 0 295 0 0 45 0 45 -295 0 -295 0 0 -45z"></path>
<path d="M1751 663 c-36 -7 -70 -32 -87 -64 -22 -43 -20 -420 2 -459 31 -52
59 -60 202 -60 121 0 131 -1 137 -20 11 -35 54 -60 103 -60 40 0 50 5 83 40
l38 40 121 0 c208 0 212 6 208 305 l-3 215 -26 25 c-14 15 -43 30 -65 35 -39
9 -667 11 -713 3z m717 -282 c2 -127 -1 -188 -9 -197 -9 -11 -45 -14 -155 -14
l-144 0 -20 -40 c-11 -22 -26 -40 -34 -40 -7 0 -21 18 -31 40 l-18 40 -147 0
c-100 0 -150 4 -158 12 -13 13 -18 341 -6 372 6 15 44 16 363 14 l356 -3 3
-184z"></path>
</g>
</svg>