<svg width="22" height="27" viewBox="0 0 22 27" fill="none" xmlns="http://www.w3.org/2000/svg">
<g clip-path="url(#clip0_100_1081)">
<path d="M3.06372 3.53684C2.6727 3.66145 2.30747 3.99231 2.1184 4.40051L1.99809 4.65832L1.9852 13.2478C1.97231 22.7697 1.95512 22.1294 2.2559 22.5849C2.42778 22.8427 2.59536 22.9802 2.9434 23.1435L3.20122 23.2638L9.96879 23.2767C14.5407 23.2853 16.8309 23.2724 17.0286 23.2423C17.411 23.1822 17.6774 23.0447 17.9309 22.7739C18.3219 22.3572 18.3219 22.3443 18.3391 20.7716C18.352 19.5556 18.3477 19.3794 18.2832 19.2634C18.0942 18.9111 17.6 18.9755 17.4883 19.3665C17.4625 19.4568 17.4454 20.0368 17.4454 20.7286C17.4454 21.8458 17.4411 21.9404 17.3594 22.0693C17.3164 22.1466 17.2262 22.2411 17.1575 22.2841C17.0457 22.3572 16.7106 22.3614 10.2481 22.3743C2.72426 22.3872 3.20551 22.4044 2.99926 22.1122L2.90043 21.9747V13.3466V4.71848L3.0809 4.5466L3.26137 4.37903H10.1664H17.0672L17.1918 4.46926C17.4196 4.62824 17.4239 4.64973 17.4454 6.08489L17.4668 7.42981L17.6 7.56301C17.7032 7.66184 17.7719 7.69621 17.8922 7.69621C18.0856 7.69621 18.2489 7.59309 18.309 7.4384C18.3348 7.36536 18.3477 6.81965 18.3391 5.96887L18.3262 4.61535L18.2016 4.34895C18.0555 4.02668 17.7934 3.77317 17.4539 3.61418L17.209 3.49817L10.2266 3.48957C4.56762 3.48528 3.20981 3.49387 3.06372 3.53684Z" />
<path d="M14.6523 8.25483C14.5062 8.33217 14.3816 8.58998 14.4203 8.74897C14.4375 8.83061 15.0648 9.48803 16.4742 10.9017L18.498 12.9341L12.5511 12.9255C6.74176 12.9212 6.60426 12.9255 6.49255 13.0072C6.23903 13.1919 6.22184 13.4841 6.45387 13.6818L6.58278 13.7892H12.5382H18.498L16.4699 15.8173C15.0691 17.2224 14.4332 17.8884 14.4117 17.9744C14.3472 18.2494 14.6394 18.5501 14.9273 18.4986C15.0347 18.4771 15.5718 17.9615 17.5269 16.0064C19.8515 13.6818 19.989 13.5357 19.989 13.3939C19.989 13.308 19.9675 13.2048 19.9461 13.1619C19.9203 13.1146 18.8117 11.9931 17.4797 10.6611C14.88 8.06576 14.9316 8.11303 14.6523 8.25483Z" />
</g>
<defs>
<clipPath id="clip0_100_1081">
<rect width="22" height="26"  transform="translate(0 0.359375)"/>
</clipPath>
</defs>
</svg>
