<svg width="22" height="27" viewBox="0 0 22 27" fill="none" xmlns="http://www.w3.org/2000/svg">
<g clip-path="url(#clip0_100_1074)">
<path d="M10.6133 5.69365C10.3039 5.82685 10.0762 6.14482 10.0246 6.50576C10.0074 6.64756 9.98164 6.69912 9.93008 6.69912C9.74531 6.69912 9.13945 6.89248 8.78711 7.06435C7.93203 7.47686 7.33906 8.08701 6.85352 9.04951C6.38516 9.98623 6.13164 10.9831 5.82227 13.0929C5.45273 15.628 5.19492 16.5905 4.69219 17.321C4.30977 17.8753 3.68672 18.2147 3.05078 18.2147H2.75V18.7089V19.203H5.68477H8.61953L8.69258 19.4265C8.92891 20.1741 9.6207 20.8272 10.3813 21.0249C10.7207 21.1108 11.2793 21.1108 11.6188 21.0249C12.375 20.8315 13.0023 20.2429 13.243 19.4995L13.3375 19.203H16.2938H19.25V18.7089V18.2147H18.9492C18.3133 18.2147 17.6902 17.8753 17.3078 17.321C16.7965 16.5776 16.5473 15.6366 16.1562 12.9511C15.9113 11.2925 15.6793 10.287 15.3441 9.48779C14.8414 8.27607 14.1883 7.53271 13.2129 7.06435C12.8562 6.89248 12.2547 6.69912 12.0656 6.69912C12.0098 6.69912 11.9883 6.66475 11.9883 6.57451C11.9883 6.24795 11.7434 5.87412 11.4211 5.70654C11.2277 5.60771 10.8281 5.59912 10.6133 5.69365ZM11.5457 7.57568C11.9969 7.60576 12.3879 7.71318 12.8434 7.93232C13.5395 8.26318 14.1023 8.91631 14.4805 9.81435C14.7727 10.5233 14.9832 11.4729 15.2754 13.4022C15.516 15.0179 15.6836 15.8472 15.8984 16.5046C16.0832 17.0718 16.3711 17.6519 16.6289 17.987L16.8008 18.2147H11H5.19922L5.37109 17.9913C5.62891 17.6519 5.9168 17.0718 6.10156 16.5046C6.31211 15.8558 6.47969 15.0308 6.72031 13.4409C7.03398 11.3784 7.19727 10.6437 7.52383 9.84443C8.1082 8.40498 9.09219 7.66592 10.5703 7.56279C10.7937 7.5456 11.0387 7.53701 11.1074 7.5456C11.1805 7.5499 11.3738 7.56279 11.5457 7.57568ZM12.216 19.4222C12.0785 19.6757 11.8379 19.8905 11.5328 20.028C11.2406 20.1612 10.6777 20.1655 10.3941 20.0323C10.0805 19.8905 9.72383 19.5382 9.65078 19.2976L9.6207 19.203H10.9785H12.3363L12.216 19.4222Z" />
</g>
<defs>
<clipPath id="clip0_100_1074">
<rect width="22" height="26"  transform="translate(0 0.359375)"/>
</clipPath>
</defs>
</svg>
