<svg width="22" height="27" viewBox="0 0 22 27" fill="none" xmlns="http://www.w3.org/2000/svg">
<g clip-path="url(#clip0_54_4166)">
<path d="M15.2969 4.19417C15.2625 4.20706 14.4289 4.50784 13.4492 4.86878L11.666 5.5176L6.78906 5.53909L1.91211 5.56057L1.67148 5.6594C1.13008 5.87425 0.713281 6.30823 0.528516 6.83675C0.455469 7.05589 0.451172 7.38675 0.451172 14.0899V21.1153L0.562891 21.4203C0.773438 22.0004 1.15156 22.443 1.66289 22.718C2.2 23.0016 1.54688 22.9844 11 22.9844C20.3973 22.9844 19.7785 23.0016 20.3156 22.7309C20.8184 22.4774 21.2223 22.0004 21.4371 21.4203L21.5488 21.1153L21.5617 15.5981C21.5703 11.9629 21.5574 9.99925 21.5273 9.84026C21.3898 9.07542 20.7668 8.46097 19.9934 8.32776L19.7227 8.2805V7.73479C19.7227 6.93128 19.598 6.54885 19.1984 6.11487C18.9922 5.89143 18.5324 5.64651 18.2016 5.58636C18.0598 5.56057 17.557 5.53909 17.0844 5.53909H16.2207L16.0746 5.118C15.8555 4.49495 15.7867 4.34886 15.675 4.27581C15.5547 4.19847 15.3828 4.15979 15.2969 4.19417ZM15.7051 6.84104C15.9844 7.61448 16.2035 8.25471 16.1906 8.26761C16.182 8.2805 14.0594 8.28479 11.4812 8.2805L6.78906 8.26761L10.9484 6.7594C14.9746 5.29847 15.1035 5.2555 15.1508 5.34143C15.1766 5.393 15.4258 6.06331 15.7051 6.84104ZM8.80859 6.53167C8.74844 6.55745 7.63984 6.96136 6.34219 7.43401L3.9832 8.28909H3.03359C1.95508 8.28909 1.84336 8.26331 1.59844 7.96682C1.30625 7.60589 1.33203 7.09886 1.66719 6.77229C1.96367 6.48011 1.84766 6.4887 5.56445 6.4887C7.88477 6.4887 8.88164 6.50159 8.80859 6.53167ZM18.3133 6.6262C18.6871 6.84534 18.7773 7.06878 18.7773 7.78206V8.28909L17.9996 8.2805L17.2176 8.26761L16.9297 7.47268C16.7707 7.0344 16.6246 6.6305 16.6074 6.57893L16.5773 6.47581L17.3465 6.493C18.0898 6.50589 18.1156 6.51018 18.3133 6.6262ZM1.74023 9.15276C1.94648 9.23011 2.36758 9.23011 10.8539 9.2344C20.7496 9.2344 20.032 9.21292 20.3371 9.52659C20.6164 9.81448 20.625 9.87893 20.625 11.95V13.7891H19.6625C19.134 13.7891 18.5969 13.8106 18.4723 13.8321C17.4969 14.0125 16.8094 14.975 16.9684 15.9246C17.0715 16.5391 17.4367 17.0246 17.9953 17.2996L18.3219 17.4629L19.4777 17.4758L20.6293 17.4887L20.6164 19.2375L20.6035 20.9864L20.4617 21.2742C20.2941 21.6137 20.0621 21.8285 19.7355 21.9532C19.5078 22.0391 19.409 22.0391 11 22.0391C2.59102 22.0391 2.49219 22.0391 2.26445 21.9532C1.93789 21.8285 1.70586 21.6137 1.53828 21.2742L1.39648 20.9864L1.38359 15.0008C1.375 9.28167 1.375 9.01096 1.44805 9.04104C1.49102 9.06253 1.62422 9.10979 1.74023 9.15276ZM20.625 15.6367V16.5391H19.6066C18.4508 16.5391 18.3477 16.5133 18.0984 16.2168C17.8062 15.8559 17.832 15.3489 18.1672 15.0223C18.425 14.7688 18.5797 14.7387 19.6711 14.7387L20.625 14.7344V15.6367Z" />
<path d="M18.7773 15.6367V16.1094H19.25H19.7227V15.6367V15.1641H19.25H18.7773V15.6367Z" />
</g>
<defs>
<clipPath id="clip0_54_4166">
<rect width="22" height="26"  transform="translate(0 0.359375)"/>
</clipPath>
</defs>
</svg>
