<svg width="22" height="27" viewBox="0 0 22 27" fill="none" xmlns="http://www.w3.org/2000/svg">
<g clip-path="url(#clip0_102_3444)">
<path d="M7.86319 2.57856C7.16709 2.71606 6.53116 3.40356 6.45811 4.09106L6.43233 4.3231L6.03702 4.34458C5.73623 4.36177 5.58584 4.39185 5.43116 4.46919C4.77373 4.78286 4.46866 5.50044 4.70069 6.18364C4.81241 6.51021 5.17334 6.86685 5.51709 6.99575C5.76631 7.08599 5.7835 7.09028 8.33155 7.07739L10.8925 7.0645L11.1116 6.94849C11.9366 6.5145 12.1214 5.46606 11.494 4.77427C11.2448 4.49497 10.944 4.37036 10.4671 4.34458L10.0675 4.3231L10.0417 4.08677C10.003 3.73872 9.76241 3.27466 9.4917 3.02974C9.03623 2.61724 8.46475 2.46255 7.86319 2.57856ZM8.58506 3.54536C8.77413 3.6227 8.96319 3.79458 9.05342 3.97075C9.09639 4.0481 9.13077 4.27153 9.14795 4.55942C9.17373 4.98911 9.18233 5.02778 9.29405 5.1395C9.41006 5.25981 9.42295 5.25981 10.0503 5.2813C10.6519 5.30278 10.6991 5.30708 10.8022 5.40591C10.9956 5.59067 10.987 5.85708 10.7808 6.05044C10.6819 6.14067 10.6605 6.14067 8.2628 6.14067H5.84366L5.70616 6.01606C5.58584 5.90864 5.56436 5.86138 5.56866 5.71099C5.57295 5.57778 5.60303 5.50044 5.68897 5.4145C5.80069 5.30708 5.81788 5.30278 6.44952 5.2813L7.09834 5.25981L7.22295 5.11802C7.33467 4.99341 7.34756 4.95044 7.34756 4.67974C7.34756 4.51645 7.36905 4.28442 7.39483 4.16411C7.50655 3.63989 8.08663 3.33481 8.58506 3.54536Z" fill="white"/>
<path d="M7.97937 4.16406C7.79031 4.32734 7.73875 4.525 7.83328 4.70547C7.93641 4.89883 8.06101 4.98047 8.25437 4.98047C8.47351 4.98047 8.57664 4.92461 8.65828 4.76562C8.82156 4.44766 8.65398 4.09531 8.31023 4.04805C8.15555 4.02656 8.11687 4.04375 7.97937 4.16406Z" fill="white"/>
<path d="M0.408203 5.28984C0.360938 5.31562 0.287891 5.37578 0.249219 5.42734C0.176172 5.51328 0.171875 6.06758 0.171875 14.743V23.9641L0.305078 24.0973L0.438281 24.2305H5.58594H10.7336L10.8668 24.1059C10.9785 23.9984 11 23.9512 11 23.7793C11 23.6074 10.9785 23.5602 10.8668 23.4527L10.7336 23.3281L5.9125 23.3195L1.0957 23.3066V14.7344V6.16211L2.28594 6.14062L3.48047 6.11914L3.59648 5.99883C3.69102 5.9043 3.7168 5.83984 3.7168 5.68516C3.7168 5.51758 3.69531 5.47031 3.575 5.36289L3.4375 5.23828H1.96367C0.979688 5.24258 0.464063 5.25547 0.408203 5.28984Z" fill="white"/>
<path d="M12.9809 5.30704C12.925 5.34571 12.852 5.44454 12.8176 5.52618C12.7403 5.71095 12.8004 5.92579 12.9637 6.0547C13.0668 6.13634 13.1356 6.14064 14.2914 6.14064H15.5118V8.63282C15.5118 11.2711 15.5161 11.3055 15.7094 11.4731C15.9071 11.6406 16.2379 11.5891 16.3711 11.3699C16.4528 11.2367 16.4571 11.1293 16.4571 8.37931V5.53048L16.311 5.38439L16.1649 5.23829H14.6223C13.2688 5.23829 13.0711 5.24689 12.9809 5.30704Z" fill="white"/>
<path d="M5.85676 9.09257C5.82668 9.10117 5.42277 9.59101 4.95871 10.1711C4.49035 10.7555 4.10363 11.241 4.09504 11.2496C4.08645 11.2625 3.94895 11.1293 3.78996 10.9617C3.54504 10.6996 3.48059 10.6523 3.36027 10.6523C3.10246 10.6523 2.95207 10.7769 2.86184 11.0519C2.84895 11.0949 2.86184 11.1937 2.89621 11.2668C2.97356 11.4602 3.80285 12.3969 3.92317 12.4312C4.08645 12.4742 4.23254 12.4613 4.33567 12.384C4.43879 12.3152 6.38957 9.8875 6.47981 9.71992C6.58293 9.52656 6.49699 9.20429 6.32082 9.10546C6.23488 9.06249 5.95129 9.0539 5.85676 9.09257Z" fill="white"/>
<path d="M7.64391 10.7167C7.29157 10.9058 7.31305 11.3999 7.67829 11.5503C7.76852 11.5847 8.55915 11.5976 10.6259 11.589L13.4576 11.5761L13.5822 11.4343C13.7927 11.198 13.7197 10.8585 13.4318 10.721C13.3029 10.6608 12.9935 10.6523 10.5185 10.6523C8.21969 10.6566 7.73844 10.6651 7.64391 10.7167Z" fill="white"/>
<path d="M15.2627 12.5C13.9651 12.6633 12.7963 13.2434 11.8381 14.1973C11.0002 15.0309 10.4287 16.0922 10.1967 17.2609C10.0807 17.8367 10.0936 18.9582 10.2225 19.5469C10.4631 20.6684 10.9616 21.6051 11.7479 22.4215C12.8994 23.6074 14.3561 24.2305 15.9803 24.2305C16.9385 24.2305 17.7334 24.05 18.5842 23.6332C20.3073 22.791 21.4975 21.1797 21.8069 19.2676C21.8928 18.7562 21.8885 17.9012 21.8026 17.3941C21.708 16.8441 21.476 16.1395 21.2225 15.641C20.5651 14.3477 19.2373 13.209 17.8666 12.7621C17.1147 12.5129 16.0233 12.4055 15.2627 12.5ZM17.003 13.5055C18.6916 13.8707 20.0409 15.0395 20.651 16.6551C21.0077 17.6047 21.0248 18.9496 20.6897 19.9336C20.1912 21.3902 19.0311 22.5547 17.5744 23.0488C16.5905 23.384 15.2455 23.3668 14.2959 23.0102C11.8424 22.0863 10.519 19.4738 11.2409 16.9816C11.7737 15.1383 13.3077 13.7805 15.2112 13.4668C15.6623 13.3895 16.569 13.4109 17.003 13.5055Z" fill="white"/>
<path d="M15.834 14.3047C15.7867 14.3219 15.7008 14.3906 15.6406 14.4551L15.5332 14.5711L15.5203 16.4445C15.5031 18.5113 15.5117 18.593 15.7395 18.7305C15.8641 18.8078 15.9629 18.8164 16.9254 18.8164H17.9695L18.1156 18.6703C18.3649 18.4211 18.2961 18.0645 17.9781 17.9312C17.875 17.8883 17.6387 17.8711 17.1445 17.8711H16.457V16.2641C16.457 15.323 16.4399 14.6098 16.4141 14.5453C16.3668 14.4207 16.1348 14.2617 16.0059 14.266C15.9586 14.266 15.8813 14.2832 15.834 14.3047Z" fill="white"/>
<path d="M5.79641 13.6731C5.73195 13.7246 5.32805 14.2102 4.89836 14.7559C4.46438 15.2973 4.10344 15.7528 4.09484 15.7656C4.08195 15.7785 3.96594 15.6668 3.83273 15.5207C3.69523 15.3746 3.54055 15.2328 3.48469 15.207C3.1925 15.061 2.80148 15.3961 2.86594 15.7356C2.87883 15.8 3.09367 16.0879 3.36008 16.3887C3.83703 16.9344 3.96164 17.0246 4.19367 16.9774C4.32687 16.9516 4.47297 16.7883 5.56008 15.4305C6.41516 14.3606 6.53117 14.1973 6.53117 14.0641C6.53117 13.6559 6.08859 13.4195 5.79641 13.6731Z" fill="white"/>
<path d="M7.75156 15.1984C7.50664 15.2371 7.34766 15.4262 7.34766 15.684C7.34766 15.7785 7.39062 15.8602 7.49375 15.9633L7.63984 16.1094H8.28438C8.86445 16.1094 8.9375 16.1008 9.03633 16.0234C9.19961 15.8945 9.25977 15.6797 9.17813 15.4949C9.075 15.2414 8.96758 15.2027 8.36602 15.1941C8.07383 15.1898 7.79883 15.1898 7.75156 15.1984Z" fill="white"/>
<path d="M2.999 18.9152C2.93454 18.9668 2.8615 19.0656 2.83571 19.13C2.80993 19.1988 2.79275 19.6457 2.79275 20.1742C2.79275 21.5922 2.74118 21.5406 4.07751 21.5578C5.13454 21.575 5.31071 21.5492 5.45251 21.3644C5.53845 21.2613 5.54275 21.1968 5.54275 20.1828V19.1086L5.39665 18.9625L5.25056 18.8164H4.18493C3.14079 18.8164 3.11071 18.8207 2.999 18.9152ZM4.59743 20.1914V20.6211H4.16775H3.73806V20.1914V19.7617H4.16775H4.59743V20.1914Z" fill="white"/>
<path d="M7.53672 19.8648C7.43359 19.968 7.39062 20.0496 7.39062 20.1441C7.39062 20.3117 7.49375 20.518 7.60117 20.5781C7.64844 20.5996 7.95781 20.6211 8.28867 20.6211C8.86875 20.6211 8.89023 20.6168 9.01914 20.5094C9.18242 20.3719 9.22969 20.1656 9.13516 19.9852C9.01055 19.7402 8.9375 19.7188 8.28008 19.7188H7.68281L7.53672 19.8648Z" fill="white"/>
</g>
<defs>
<clipPath id="clip0_102_3444">
<rect width="22" height="26" fill="white" transform="translate(0 0.359375)"/>
</clipPath>
</defs>
</svg>
