<svg width="22" height="27" viewBox="0 0 22 27" fill="none" xmlns="http://www.w3.org/2000/svg">
<g clip-path="url(#clip0_103_6358)">
<path d="M8.69688 3.29766C8.29297 3.41797 7.76016 3.98516 7.63984 4.42344C7.51094 4.90469 7.59688 5.48047 7.85469 5.87578C8.55938 6.93281 10.2008 6.85547 10.768 5.72969L10.9656 5.35156L11.4984 6.08203C11.7906 6.48594 12.0141 6.8125 12.0055 6.8125C11.9969 6.8125 11.275 6.90703 10.407 7.02734C9.53906 7.14766 8.81719 7.24219 8.8 7.24219C8.78281 7.24219 8.76562 7.80937 8.76562 8.49687C8.76562 9.41641 8.73984 9.74297 8.6625 9.71719C8.61094 9.7 8.25859 9.17578 7.88906 8.56562L7.21016 7.43984L6.76328 7.50859C6.51406 7.54297 6.13594 7.59453 5.90391 7.62891L5.5 7.68047L4.38281 9.5625L3.26562 11.4531L4.46016 13.4898L5.65469 15.5352L4.80391 19.832C4.33984 22.1953 3.95312 24.1375 3.95312 24.1547C3.95312 24.1719 4.15078 24.1719 4.39141 24.1547L4.82969 24.1289L6.58281 19.8836C7.54531 17.5547 8.35313 15.6211 8.37891 15.5953C8.50781 15.4578 8.49922 15.7672 8.33594 16.9359L8.14687 18.2164L8.63672 20.7859C8.90313 22.2039 9.16094 23.5359 9.2125 23.7594L9.29844 24.1719H9.71953H10.1406L10.1578 16.6867L10.1836 9.20156L11.9453 8.27344C14.2914 7.03594 14.2828 7.28516 12.0656 5.17969C11.1375 4.30313 10.2523 3.5125 10.0805 3.42656C9.71953 3.2375 9.10078 3.17734 8.69688 3.29766ZM5.82656 12.9227L5.80078 13.7906L5.31094 12.6992L4.8125 11.6164L5.31094 10.9633L5.80078 10.3016L5.82656 11.1781C5.83516 11.6594 5.83516 12.4414 5.82656 12.9227Z" />
<path d="M14.0938 10.4133V11.2641L14.85 11.2984C16.0531 11.3586 16.7922 11.7969 17.2477 12.725C17.557 13.3609 17.5828 14.2891 17.3078 14.8992C16.8523 15.8789 16.0703 16.3602 14.85 16.4203L14.0938 16.4547V18.5945V20.7344H14.9531H15.8125V19.4109V18.0875L16.2938 17.9328C17.282 17.6234 18.3219 16.7297 18.7688 15.8102C19.6195 14.0656 19.3102 12.1922 17.9695 10.843C17.0844 9.95781 16.0875 9.5625 14.7383 9.5625H14.0938V10.4133Z" />
<path d="M14.0938 23.3125V24.1719H14.9531H15.8125V23.3125V22.4531H14.9531H14.0938V23.3125Z" />
</g>
<defs>
<clipPath id="clip0_103_6358">
<rect width="22" height="26"  transform="translate(0 0.34375)"/>
</clipPath>
</defs>
</svg>
