<svg width="22" height="27" viewBox="0 0 22 27" fill="none" xmlns="http://www.w3.org/2000/svg">
<g clip-path="url(#clip0_82_5428)">
<path d="M3.36875 3.15C3.29141 3.22734 3.26562 3.98359 3.26562 6.02031C3.26562 8.50391 3.28281 8.79609 3.40313 8.83906C3.62656 8.925 3.84141 8.82187 3.90156 8.60703C3.92734 8.50391 3.95312 7.36094 3.95312 6.07187V3.73438H9.96875H15.9844V10.5234V17.3125H14.4719C13.5953 17.3125 12.8992 17.3469 12.7961 17.3984C12.6414 17.4844 12.6328 17.5961 12.6328 18.9023V20.3203H8.29297H3.95312V17.4156C3.95312 15.8258 3.92734 14.4336 3.90156 14.3305C3.84141 14.1156 3.65234 14.0211 3.42031 14.0898C3.27422 14.1414 3.26562 14.2875 3.28281 17.5531L3.30859 20.9648L8.22422 20.9906L13.1398 21.0078L14.9102 19.4438L16.6719 17.8797V10.5664C16.6719 4.98906 16.6461 3.22734 16.5688 3.15C16.4227 3.00391 3.51484 3.00391 3.36875 3.15ZM15.3742 18.0602C15.3742 18.1203 14.3688 19.0312 13.6125 19.6586L13.3203 19.8992V18.9539V18H14.3516C14.9187 18 15.3828 18.0258 15.3742 18.0602Z" />
<path d="M4.87266 8.34945C3.27422 9.94789 1.925 11.3229 1.87344 11.4174C1.7875 11.5721 1.55547 12.9643 1.54688 13.3338C1.54688 13.6604 1.77031 13.6948 2.81875 13.5401L3.78984 13.394L6.75469 10.4291C9.10938 8.08304 9.71094 7.42992 9.71094 7.24945C9.71094 7.08617 9.50469 6.83695 8.90313 6.24398C8.46484 5.8057 8.02656 5.45335 7.94063 5.45335C7.84609 5.45335 6.6 6.63929 4.87266 8.34945ZM6.14453 10.008C4.33125 11.8213 3.32578 12.7666 3.17969 12.7924C3.05938 12.8182 2.81875 12.8612 2.62969 12.8869L2.29453 12.9385L2.35469 12.3971L2.41484 11.8557L5.18203 9.08851L7.94922 6.31273L8.42188 6.78539L8.89453 7.25804L6.14453 10.008Z" />
<path d="M17.6344 5.81406C17.4797 5.96875 17.5141 6.20938 17.6945 6.3125C17.7891 6.35547 18.2875 6.39844 18.8117 6.39844H19.7656V13.3594V20.3203H18.3992C17.2648 20.3203 17.007 20.3461 16.8953 20.4578C16.7836 20.5609 16.7578 20.8102 16.7578 21.7898V22.9844H12.2031H7.64844V22.4C7.64844 21.7984 7.5625 21.6094 7.2875 21.6094C7.04688 21.6094 6.96094 21.893 6.96094 22.675C6.96094 23.225 6.99531 23.4312 7.09844 23.5344C7.21875 23.6547 7.80313 23.6719 12.2375 23.6719H17.2391L18.4852 22.5891C19.1641 21.9961 19.8859 21.3516 20.0922 21.1625L20.4531 20.8273V13.4023C20.4531 9.32031 20.4273 5.92578 20.4016 5.84844C20.3586 5.72812 20.1523 5.71094 19.0437 5.71094C18.1414 5.71094 17.7031 5.74531 17.6344 5.81406ZM18.8203 21.3687C18.6055 21.5578 18.2102 21.9102 17.9438 22.1422L17.4453 22.5719V21.7898V21.0078H18.3305L19.207 21.0164L18.8203 21.3687Z" />
<path d="M10.7682 8.32346C10.2268 8.50393 9.73692 8.93362 9.46192 9.48362C9.10957 10.1797 9.05801 10.5578 9.28145 10.7813C9.37598 10.8758 9.4877 10.9532 9.53067 10.9532C9.67676 10.9532 9.82286 10.6867 9.89161 10.3C9.93457 10.0766 10.0463 9.77581 10.1408 9.62112C10.3471 9.29456 11.0689 8.89065 11.4557 8.89065C12.2721 8.89065 12.9768 9.43206 13.1486 10.1969C13.3463 11.0821 13.0025 11.718 12.0486 12.1821C11.3268 12.543 11.1549 12.8266 11.1893 13.6516C11.2064 14.1071 11.2494 14.2617 11.3697 14.3391C11.6533 14.5196 11.8166 14.3047 11.8424 13.6946C11.8596 13.3938 11.9111 13.1016 11.9627 13.0328C12.0143 12.9727 12.2463 12.8438 12.4697 12.7492C13.2775 12.3969 13.9221 11.4344 13.9221 10.5664C13.9221 10.1024 13.6814 9.45784 13.3635 9.08831C12.7705 8.39221 11.6018 8.04846 10.7682 8.32346Z" />
<path d="M5.0875 14.4939C5.03594 14.5454 4.98438 14.6657 4.98438 14.7431C4.98438 15.0353 5.19063 15.0868 6.40234 15.0611C7.425 15.0353 7.59687 15.0181 7.68281 14.8806C7.75156 14.7775 7.75156 14.6915 7.68281 14.5798C7.59687 14.4509 7.41641 14.4337 6.39375 14.4079C5.53438 14.3907 5.16484 14.4165 5.0875 14.4939Z" />
<path d="M5.08772 16.2123C4.95022 16.3498 4.95881 16.5819 5.10491 16.7022C5.18225 16.7709 5.82678 16.7967 7.26194 16.7795C9.101 16.7537 9.31585 16.7365 9.40178 16.599C9.47053 16.4959 9.47053 16.41 9.40178 16.2983C9.31585 16.1694 9.101 16.1522 7.25334 16.1264C5.72366 16.1092 5.16506 16.135 5.08772 16.2123Z" />
<path d="M5.0875 18.9626C5.02734 19.0228 4.98438 19.1345 4.98438 19.2118C4.98438 19.5126 5.18203 19.5556 6.74609 19.5298C8.09531 19.504 8.28438 19.4868 8.37031 19.3493C8.43906 19.2462 8.43906 19.1603 8.37031 19.0486C8.28438 18.9196 8.09531 18.9025 6.7375 18.8767C5.61172 18.8595 5.16484 18.8853 5.0875 18.9626Z" />
</g>
<defs>
<clipPath id="clip0_82_5428">
<rect width="22" height="26"  transform="translate(0 0.359375)"/>
</clipPath>
</defs>
</svg>
