<svg width="22" height="27" viewBox="0 0 22 27" fill="none" xmlns="http://www.w3.org/2000/svg">
<g clip-path="url(#clip0_83_8663)">
<path d="M0.0528041 2.41205C-0.0219959 2.48685 -0.0219959 6.36765 0.0528041 6.44245C0.123204 6.51285 0.198004 6.50845 0.281604 6.42485C0.343204 6.36765 0.352004 6.13445 0.352004 4.53285V2.71125H3.0184C4.7696 2.71125 5.7112 2.69365 5.7684 2.66725C5.8608 2.61445 5.8784 2.49125 5.7992 2.41205C5.7244 2.33725 0.127604 2.33725 0.0528041 2.41205Z" fill="white"/>
<path d="M10.538 2.40341C9.55682 2.61901 8.78242 3.37581 8.50962 4.38781C8.40842 4.76181 8.40842 5.45701 8.50962 5.83101C8.75162 6.72421 9.38522 7.42381 10.2344 7.73621C10.4456 7.81101 10.5908 7.82861 11 7.82861C11.4092 7.82861 11.5544 7.81101 11.7656 7.73621C12.6148 7.42381 13.2484 6.72421 13.4904 5.83101C13.5916 5.45701 13.5916 4.76181 13.4904 4.38341C13.2572 3.51221 12.584 2.76861 11.7788 2.49141C11.4708 2.38581 10.8196 2.33741 10.538 2.40341Z" fill="white"/>
<path d="M16.2008 2.41205C16.1216 2.49125 16.1392 2.61445 16.2316 2.66725C16.2888 2.69365 17.2304 2.71125 18.9816 2.71125H21.648V4.53285C21.648 6.13445 21.6568 6.36765 21.7184 6.42485C21.802 6.50845 21.8768 6.51285 21.9472 6.44245C22.022 6.36765 22.022 2.48685 21.9472 2.41205C21.8724 2.33725 16.2756 2.33725 16.2008 2.41205Z" fill="white"/>
<path d="M5.69359 5.13156C5.47359 5.17996 5.29319 5.33836 5.21839 5.54076C5.1656 5.68596 5.11719 6.51316 4.99399 9.57556C4.91039 11.692 4.83999 13.4872 4.83999 13.5664V13.7072L3.03599 13.7204L1.23199 13.7336L1.12639 13.8436C0.989995 13.98 0.175995 15.4496 0.175995 15.5552C0.175995 15.5992 0.211195 15.6652 0.255195 15.7048C0.325595 15.7708 0.470795 15.7796 1.37719 15.7796H2.41999L2.42879 18.4812C2.44199 21.152 2.44199 21.1872 2.53439 21.3104C2.70159 21.5348 2.87319 21.6008 3.34839 21.6228L3.78399 21.6448V22.7184C3.78399 23.6292 3.79719 23.8184 3.85439 23.9504C4.08759 24.4344 4.81359 24.4432 5.06439 23.9636C5.13919 23.8272 5.14799 23.6996 5.14799 22.7228V21.636L5.3152 21.6228C5.46919 21.6096 5.47799 21.6008 5.49119 21.4468L5.5044 21.2796H4.29439C3.62999 21.2796 3.03599 21.262 2.97439 21.2356C2.91279 21.2136 2.84239 21.1564 2.81599 21.108C2.78519 21.0464 2.76759 20.1752 2.75879 18.3976L2.74999 15.7796H5.87399H8.9936L8.82199 15.6036L8.65039 15.4276H4.63319C2.42439 15.4276 0.615995 15.4188 0.615995 15.41C0.615995 15.4012 0.778795 15.102 0.976795 14.7412L1.34199 14.0856L4.58919 14.0724L7.8408 14.0636L7.80119 13.8304C7.78359 13.7072 7.766 13.3728 7.766 13.0956C7.77039 12.5192 7.86279 12.1408 8.1224 11.6436C8.94079 10.086 10.868 9.46996 12.4608 10.2576C13.2748 10.6624 13.8512 11.3488 14.1284 12.2596C14.212 12.5236 14.2296 12.6952 14.234 13.0956C14.234 13.3728 14.2164 13.7072 14.1988 13.8304L14.1592 14.0636H17.3932C19.9276 14.0636 20.636 14.0768 20.6712 14.1164C20.7284 14.1912 21.384 15.3704 21.384 15.4012C21.384 15.4144 19.5756 15.4276 17.3668 15.4276H13.3496L13.178 15.6036L13.0064 15.7796H16.126H19.25L19.2368 18.402C19.2324 20.1312 19.2104 21.0508 19.1796 21.108C19.1576 21.1564 19.0872 21.2136 19.0256 21.2356C18.964 21.262 18.37 21.2796 17.7056 21.2796H16.4956L16.5088 21.4468C16.522 21.6228 16.5176 21.6184 16.8652 21.6272L17.028 21.6316V22.7184C17.028 23.6688 17.0368 23.8272 17.1072 23.9636C17.2172 24.188 17.4328 24.3156 17.7056 24.3156C17.974 24.3156 18.1456 24.2144 18.2908 23.9768C18.3876 23.814 18.392 23.7788 18.392 22.7096V21.6096L18.7352 21.6052C19.1312 21.5964 19.3028 21.526 19.4568 21.3148L19.558 21.1696L19.5712 18.4724L19.58 15.7796H20.6316C21.5908 15.7796 21.6832 15.7708 21.7492 15.7004C21.7932 15.6564 21.824 15.586 21.824 15.5464C21.824 15.4452 21.0056 13.9756 20.8736 13.8436L20.768 13.7336L18.964 13.7204L17.16 13.7072V13.5884C17.16 13.5224 17.0896 11.7272 17.006 9.59756C16.83 5.28556 16.8476 5.43516 16.5308 5.22836L16.3504 5.10956H15.1404H13.926L13.9128 5.27236L13.8996 5.43956H15.0436C16.2712 5.43956 16.3724 5.45716 16.4516 5.65516C16.4912 5.74756 16.808 12.7436 16.808 13.4916V13.7116H16.566H16.324V12.462C16.324 11.0848 16.2888 10.7944 16.0688 10.2224C15.62 9.06956 14.5112 8.07956 13.1516 7.61756L12.8348 7.50756L12.6324 7.65716C11.6556 8.36996 10.34 8.36996 9.37199 7.66156L9.1608 7.50756L8.83519 7.62196C7.42719 8.12356 6.32719 9.11796 5.90919 10.2664C5.70679 10.8208 5.67599 11.12 5.67599 12.462V13.7116H5.43399H5.19199V13.5004C5.19199 12.7172 5.50879 5.70796 5.54839 5.63316C5.64079 5.45716 5.75959 5.43956 6.95639 5.43956H8.10039L8.08719 5.27236L8.07399 5.10956L6.95199 5.10516C6.33599 5.10076 5.76839 5.11396 5.69359 5.13156Z" fill="white"/>
<path d="M10.2608 10.3675C9.34121 10.6095 8.58881 11.3003 8.25001 12.2155C8.09161 12.6467 8.04761 13.3947 8.15761 13.8655C8.39961 14.8995 9.24441 15.7531 10.2872 16.0215C10.6524 16.1139 11.352 16.1139 11.7128 16.0215C12.76 15.7531 13.5872 14.9127 13.838 13.8523C13.9524 13.3859 13.9128 12.6599 13.75 12.2155C13.2264 10.7899 11.7128 9.98912 10.2608 10.3675Z" fill="white"/>
<path d="M10.252 16.4659C10.1904 16.4747 9.99242 16.5055 9.81202 16.5319C9.42922 16.5891 8.69882 16.8179 8.35562 16.9895C7.04002 17.6539 6.14682 18.7363 5.91362 19.9463C5.83002 20.3863 5.82122 24.2231 5.90482 24.3067C5.97962 24.3815 16.0204 24.3815 16.0952 24.3067C16.1788 24.2231 16.17 20.3863 16.0864 19.9463C15.7476 18.1731 14.014 16.7475 11.88 16.4835C11.5324 16.4439 10.4984 16.4307 10.252 16.4659Z" fill="white"/>
<path d="M3.16361 18.063C3.07561 18.1334 3.06681 18.1642 3.10641 18.2302C3.15041 18.3006 3.24721 18.3094 4.26801 18.3226C5.38561 18.3314 5.50001 18.3182 5.50001 18.173C5.50001 18.1422 5.46921 18.085 5.42961 18.0498C5.37241 17.9882 5.20961 17.9794 4.31201 17.9794C3.34401 17.9794 3.25601 17.9838 3.16361 18.063Z" fill="white"/>
<path d="M16.5704 18.0498C16.5308 18.085 16.5 18.1422 16.5 18.173C16.5 18.3182 16.6144 18.3314 17.732 18.3226C18.7528 18.3094 18.8496 18.3006 18.8936 18.2302C18.9332 18.1642 18.9244 18.1334 18.8364 18.063C18.744 17.9838 18.656 17.9794 17.688 17.9794C16.7904 17.9794 16.6276 17.9882 16.5704 18.0498Z" fill="white"/>
<path d="M3.15042 18.7539C3.11082 18.7891 3.08002 18.8375 3.08002 18.8595C3.08002 18.8815 3.11082 18.9299 3.15042 18.9651C3.25162 19.0663 4.31642 19.0663 4.41762 18.9651C4.50562 18.8815 4.50562 18.8375 4.41762 18.7539C4.31642 18.6527 3.25162 18.6527 3.15042 18.7539Z" fill="white"/>
<path d="M17.5824 18.7539C17.5428 18.7891 17.512 18.8375 17.512 18.8595C17.512 18.8815 17.5428 18.9299 17.5824 18.9651C17.6836 19.0663 18.7484 19.0663 18.8496 18.9651C18.9332 18.8859 18.9332 18.8771 18.876 18.7671C18.832 18.6923 18.7792 18.6835 18.238 18.6835C17.7628 18.6835 17.6352 18.6967 17.5824 18.7539Z" fill="white"/>
</g>
<defs>
<clipPath id="clip0_83_8663">
<rect width="22" height="26" fill="white" transform="translate(0 0.359375)"/>
</clipPath>
</defs>
</svg>
