<svg width="22" height="27" viewBox="0 0 22 27" fill="none" xmlns="http://www.w3.org/2000/svg">
<g clip-path="url(#clip0_100_873)">
<path d="M13.1169 2.46109C13.0662 2.52105 12.8448 2.94076 12.6234 3.39736C12.1991 4.26906 12.153 4.35669 11.8301 4.98856C11.7195 5.20533 11.6226 5.41287 11.6088 5.44977C11.5903 5.50512 11.3735 5.55124 10.6494 5.65271C8.03434 6.01245 8.09891 5.99862 8.00205 6.19233C7.95593 6.27074 7.94209 6.3722 7.96054 6.43216C7.97438 6.48751 8.54168 7.07325 9.21044 7.72818L10.4327 8.92734L10.405 9.13489C10.3358 9.70679 10.1836 10.6338 10.036 11.4317C9.86075 12.3772 9.86075 12.4741 10.0637 12.6171C10.2205 12.7278 10.3081 12.7093 10.7417 12.4649C10.9584 12.3403 11.2628 12.1789 11.4151 12.1051C11.7656 11.9345 12.8125 11.3856 13.14 11.2011C13.3614 11.0766 13.3983 11.0674 13.4859 11.1227C13.5413 11.1596 13.8134 11.3026 14.0901 11.4456C14.3714 11.5886 15.0218 11.9299 15.5429 12.202C16.5668 12.7462 16.6083 12.7554 16.7974 12.5018C16.8851 12.3865 16.8851 12.3772 16.7652 11.6255C16.696 11.2104 16.5714 10.4632 16.4838 9.96969C16.3962 9.47619 16.327 9.03803 16.327 9.00113C16.327 8.95962 16.8758 8.39233 17.5492 7.73279C18.2226 7.07786 18.7853 6.49673 18.7991 6.44139C18.8406 6.27996 18.7023 6.06319 18.5316 6.01245C18.384 5.96633 18.0842 5.92021 16.0964 5.64348L15.197 5.51895L14.4591 4.03384C14.0532 3.2221 13.6796 2.51183 13.6335 2.45648C13.509 2.32273 13.2369 2.32273 13.1169 2.46109ZM14.3807 5.51895C14.519 5.79568 14.6666 6.06319 14.7127 6.10931C14.7958 6.19694 15.8243 6.37682 16.9727 6.50596C17.2402 6.53824 17.4985 6.57514 17.5538 6.58436C17.6322 6.60281 17.4893 6.76424 16.7236 7.51141C16.2117 8.00952 15.7366 8.47535 15.6628 8.55375C15.506 8.71518 15.5014 8.63216 15.7643 10.1311C15.8658 10.7122 15.9626 11.2888 15.9811 11.4041L16.0088 11.6208L15.6029 11.4133C15.3815 11.3026 15.0956 11.1504 14.9664 11.0812C14.3576 10.7353 13.4582 10.2925 13.3706 10.2925C13.3199 10.2925 13.1354 10.3709 12.9693 10.4724C12.7987 10.5693 12.5174 10.7215 12.3375 10.8091C12.1622 10.8967 11.7287 11.1181 11.3782 11.298C10.9031 11.547 10.7463 11.6116 10.7601 11.5517C10.7878 11.464 10.94 10.5554 11.1199 9.45774C11.1752 9.11183 11.2075 8.77514 11.1937 8.71518C11.1752 8.646 10.7417 8.19401 10.1421 7.61749C9.31652 6.81958 9.14126 6.62587 9.21044 6.5982C9.25656 6.58436 9.501 6.54285 9.75467 6.51518C10.7002 6.39988 11.8348 6.22923 11.9547 6.17849C12.0608 6.13698 12.1853 5.92021 12.7341 4.82713L13.3844 3.52189L13.7534 4.26445C13.9564 4.67493 14.2377 5.23761 14.3807 5.51895Z" />
<path d="M0.101468 12.0268L0 12.0959V17.2708C0 20.1165 0.0184486 22.4687 0.0368973 22.4964C0.12914 22.6393 0.285954 22.6532 1.72956 22.6532H3.19161L3.32998 22.5148C3.46373 22.3811 3.46373 22.3672 3.4499 21.9798L3.43606 21.5878L4.68134 21.6016L5.92662 21.6154L6.22642 21.763C6.39245 21.846 6.60922 21.9706 6.71069 22.0444C6.81216 22.1182 7.51321 22.5886 8.26499 23.0867C9.45954 23.88 9.69476 24.0184 10.0822 24.1521C10.3266 24.2351 10.5342 24.3182 10.5526 24.332C10.5987 24.3827 11.7149 24.3643 11.7149 24.3136C11.7149 24.2859 11.7518 24.2674 11.7979 24.2674C11.987 24.2628 12.665 23.9815 12.9279 23.7924C13.0847 23.6771 13.5413 23.3081 13.9426 22.9668C14.3438 22.6301 14.7405 22.3027 14.8235 22.2381C14.9065 22.1735 15.1094 22.0029 15.2755 21.8553C15.4415 21.7077 15.6398 21.5416 15.7182 21.4863C15.852 21.3894 16.8298 20.5731 18.0243 19.5676C18.3103 19.3232 18.6239 19.0603 18.7254 18.9865C18.8868 18.8574 19.6524 18.2209 20.5241 17.4876C20.7178 17.3215 21.0268 17.0679 21.2067 16.9203C21.5388 16.6435 21.7556 16.3576 21.8662 16.044C21.8985 15.9517 21.9447 15.8733 21.9631 15.8733C21.9816 15.8733 22 15.6796 22 15.4444C22 15.0477 21.9862 14.9878 21.8432 14.6926C21.631 14.259 21.3774 13.9869 21.0222 13.8024C20.252 13.415 19.6247 13.5257 18.67 14.2268C18.4855 14.3605 18.2688 14.5127 18.1857 14.5634C17.9459 14.711 17.1065 15.2783 16.7652 15.5274C16.5899 15.6565 16.3778 15.8041 16.2948 15.8549C16.0872 15.9794 15.0587 16.685 14.7727 16.8972C14.639 16.9941 14.5191 17.0725 14.5006 17.0725C14.4868 17.0725 14.3161 17.1878 14.1224 17.3307L13.7673 17.589L13.7304 17.4322C13.5966 16.8972 13.4583 16.6343 13.1493 16.3345C12.974 16.1685 12.7203 15.9748 12.5681 15.8964C12.4159 15.8226 12.0746 15.6335 11.8071 15.4813C11.5396 15.3245 11.2906 15.1861 11.2537 15.1723C11.2168 15.1584 10.9262 15.0016 10.608 14.8217C10.2897 14.6419 9.80545 14.3697 9.52411 14.2129C9.24738 14.0561 8.81845 13.8163 8.57862 13.6779C7.99748 13.3458 7.50398 13.1152 7.19497 13.0322C7.00126 12.9815 6.5631 12.9676 5.18868 12.9676H3.43606L3.4499 12.6402C3.48679 11.9345 3.53753 11.953 1.67421 11.953C0.419707 11.953 0.189099 11.9622 0.101468 12.0268ZM2.72117 17.3031V21.9152H1.7065H0.691824V17.3031V12.6909H1.7065H2.72117V17.3031ZM7.40252 13.8855C7.58239 13.9685 7.95598 14.1714 8.23732 14.3328C8.51866 14.4943 8.75849 14.628 8.77233 14.628C8.79078 14.628 9.03061 14.7618 9.31195 14.9278C9.59329 15.0938 9.85618 15.2414 9.90231 15.2599C9.94843 15.2737 10.2067 15.4213 10.4834 15.5827C10.7556 15.7396 10.9908 15.8733 11.0092 15.8733C11.0231 15.8733 11.2998 16.0209 11.618 16.2054C11.9363 16.3853 12.2868 16.5836 12.3929 16.6435C12.7987 16.8695 13.034 17.3307 12.9971 17.8289C12.9648 18.184 12.8403 18.4377 12.5681 18.6775C12.2914 18.9173 12.1115 18.9773 11.701 18.9542C11.4059 18.9404 11.2952 18.9035 10.7187 18.6268C10.3589 18.4561 10.0499 18.3177 10.0268 18.3177C10.0084 18.3177 9.69937 18.184 9.34424 18.0226C7.45786 17.1601 6.81677 16.888 6.67841 16.888C6.54465 16.888 6.36478 17.0955 6.36478 17.2431C6.36478 17.4322 6.46164 17.5475 6.71992 17.6582C6.83983 17.7089 7.08889 17.815 7.26415 17.8934C7.72537 18.0918 8.45409 18.4192 9.20587 18.7605C9.56101 18.9219 9.87002 19.0557 9.88847 19.0557C9.91153 19.0557 10.1883 19.1802 10.5111 19.3324C10.834 19.4846 11.2168 19.6322 11.369 19.6599C11.7564 19.7337 12.2822 19.6783 12.5727 19.54C12.8725 19.3924 13.3291 19.0003 13.4444 18.7836C13.5321 18.6175 13.6013 18.553 13.8642 18.3869C14.1224 18.2255 14.9526 17.6582 15.2893 17.4184C15.4692 17.2892 15.6767 17.1416 15.7597 17.0909C16.018 16.9341 16.8482 16.3668 17.1895 16.1177C17.374 15.984 17.5354 15.8733 17.5493 15.8733C17.5631 15.8733 17.7614 15.7442 17.9874 15.5827C19.7908 14.319 19.9706 14.2268 20.4134 14.3467C20.7547 14.4389 21.0084 14.6465 21.1421 14.9463C21.405 15.532 21.2298 15.9886 20.5426 16.5236C20.3166 16.6989 18.4901 18.2255 18.135 18.5345C18.0243 18.6268 17.8029 18.8112 17.6461 18.9404C17.231 19.2725 16.2117 20.1257 15.1048 21.0528C14.9803 21.1588 14.7635 21.3387 14.6205 21.4494C14.4822 21.5647 14.27 21.74 14.1547 21.8414C14.0394 21.9475 13.7488 22.1873 13.5182 22.3764C13.283 22.5655 12.9648 22.8331 12.8126 22.9622C12.296 23.4096 11.6042 23.654 10.9723 23.6079C10.4189 23.5664 10.0499 23.4003 9.11824 22.7731C8.66625 22.4641 8.22809 22.1735 8.14969 22.1274C8.06667 22.0767 7.83606 21.9198 7.63312 21.7815C7.07044 21.3894 6.55388 21.085 6.27254 20.979C6.04654 20.8913 5.88973 20.8821 4.7413 20.8637L3.45912 20.8452L3.4499 17.2754L3.43606 13.701L5.25786 13.7148L7.07966 13.7286L7.40252 13.8855Z" />
</g>
<defs>
<clipPath id="clip0_100_873">
<rect width="22" height="26"  transform="translate(0 0.359375)"/>
</clipPath>
</defs>
</svg>
