<svg width="22" height="27" viewBox="0 0 22 27" fill="none" xmlns="http://www.w3.org/2000/svg">
<g clip-path="url(#clip0_100_920)">
<path d="M4.8986 2.83205C4.40876 2.98674 3.83297 3.47658 3.59235 3.93205C3.49782 4.12971 3.39469 4.52502 3.36891 4.81721C3.33454 5.25549 3.36891 5.42736 3.54079 5.80549C3.92751 6.63908 4.55485 7.08596 5.43141 7.15471C6.34235 7.22346 7.21032 6.72502 7.62282 5.90002C7.85485 5.43596 7.82907 4.4133 7.58844 3.94064C7.33063 3.4508 6.75485 2.98674 6.23922 2.83205C5.7236 2.67736 5.40563 2.67736 4.8986 2.83205ZM6.99547 4.34455C7.39079 4.52502 7.39079 5.16955 6.99547 5.85705C6.75485 6.26955 6.07594 6.65627 5.59469 6.65627C4.67516 6.64767 3.71266 5.58205 3.91032 4.79142C3.95329 4.61955 3.99626 4.58517 4.15094 4.63674C4.25407 4.67111 4.55485 4.71408 4.81266 4.73127C5.21657 4.76564 5.36266 4.73986 5.80094 4.51642C6.35094 4.23283 6.65172 4.18986 6.99547 4.34455Z" />
<path d="M8.67969 5.66789V6.31242H13.6641H18.6484V11.4257V16.539H13.6641H8.67969V16.9257V17.3124H10.2266C11.0773 17.3124 11.7734 17.3296 11.7734 17.3554C11.7734 17.3812 11.3523 18.0515 10.8281 18.8507C10.3125 19.6413 9.88281 20.3546 9.88281 20.4234C9.88281 20.6124 10.0977 20.7671 10.3297 20.7327C10.4758 20.7156 10.7938 20.3031 11.6445 19.0312C12.6328 17.5531 12.7875 17.3554 12.9938 17.3554C13.1914 17.3554 13.3461 17.5531 14.343 19.057C15.4516 20.7327 15.4773 20.7585 15.7523 20.7327C16.268 20.6812 16.182 20.4148 15.1336 18.8077L14.1797 17.3554L16.8008 17.3296L19.4219 17.3124V11.8124V6.31242H19.8945H20.3672V5.66789V5.02336H14.5234H8.67969V5.66789Z" />
<path d="M2.87911 7.85074C2.69005 7.93668 2.41505 8.13433 2.26895 8.29762C1.77052 8.8734 1.76192 8.91637 1.87364 11.6664C1.96817 13.9867 1.98536 14.1757 2.16583 14.5109C2.31192 14.7687 2.4752 14.9148 2.80177 15.0695L3.24005 15.2843L3.47208 18.1632C3.60099 19.7531 3.74708 21.6093 3.79864 22.2882C3.93614 24.0242 3.88458 23.9726 5.54317 23.9726C6.78927 23.9726 6.80645 23.9726 6.99552 23.7492C7.20177 23.5171 7.1502 23.964 7.76036 16.4273L7.85489 15.2328L8.18145 15.1039C8.58536 14.9406 8.90333 14.5796 9.01505 14.15C9.06661 13.9781 9.12677 12.7664 9.16114 11.4601C9.2213 9.11402 9.2213 9.07965 9.02364 8.68433C8.92052 8.4609 8.71427 8.19449 8.55958 8.07418C8.21583 7.81637 7.49395 7.61012 7.40802 7.74762C7.37364 7.79918 7.11583 8.8734 6.83224 10.1281L6.3252 12.414H5.57755H4.82989L4.25411 10.0507C3.67833 7.69605 3.67833 7.68746 3.45489 7.68746C3.32599 7.68746 3.06817 7.7648 2.87911 7.85074Z" />
<path d="M5.15621 7.90233C5.0359 8.21171 5.04449 8.28905 5.21637 8.47811C5.34527 8.62421 5.35387 8.70155 5.25934 9.12264C5.20777 9.38905 5.1734 9.62968 5.19059 9.64686C5.21637 9.66405 5.37105 9.57811 5.53434 9.44921C5.78355 9.26014 5.84371 9.15702 5.84371 8.9078C5.84371 8.74452 5.90387 8.53827 5.98121 8.45233C6.07574 8.34061 6.09293 8.23749 6.03277 8.02264C5.97262 7.75624 5.92965 7.73046 5.60309 7.70468C5.28512 7.67889 5.23355 7.70468 5.15621 7.90233Z" />
<path d="M15.2628 8.11718C14.7472 8.30624 14.2917 8.48671 14.2401 8.53827C14.1886 8.58984 14.2745 8.67577 14.4808 8.7789L14.7987 8.94218L14.455 9.37187C13.9909 9.95624 13.0284 10.8414 12.4354 11.2367C12.1604 11.4172 11.5589 11.7437 11.1034 11.9586C10.1753 12.3969 10.1753 12.3969 10.244 12.4656C10.3214 12.5344 11.6534 12.1734 12.4956 11.8469C13.8362 11.3312 14.9019 10.6695 15.6753 9.8703L15.9847 9.55234L16.3284 9.70702C16.5175 9.79296 16.6979 9.84452 16.7151 9.81874C16.7753 9.76718 16.337 7.87655 16.2597 7.82499C16.2253 7.8078 15.7784 7.93671 15.2628 8.11718Z" />
<path d="M15.6324 10.7125C15.6238 10.7469 15.6238 14.3305 15.6324 14.4508C15.641 14.5281 15.8215 14.5625 16.2426 14.5625H16.8441V12.6289V10.6953H16.2426C15.916 10.6953 15.641 10.7039 15.6324 10.7125Z" />
<path d="M13.6988 11.9242C13.6816 11.9843 13.673 12.5945 13.6816 13.2734L13.7074 14.5195L14.3347 14.5453L14.9535 14.571V13.1875V11.8125H14.3519C13.9308 11.8125 13.7332 11.8468 13.6988 11.9242Z" />
<path d="M11.8939 12.7835C11.8681 12.8523 11.8681 13.2648 11.8767 13.7117L11.9025 14.5195L12.5298 14.5453L13.1486 14.571V13.6171V12.6718H12.547C12.1259 12.6718 11.9283 12.7062 11.8939 12.7835Z" />
<path d="M10.2008 13.325C10.1664 13.3594 10.1406 13.6516 10.1406 13.9781V14.5625H10.7422H11.3523L11.3266 13.9352L11.3008 13.3164L10.7852 13.2906C10.493 13.2734 10.2352 13.2906 10.2008 13.325Z" />
</g>
<defs>
<clipPath id="clip0_100_920">
<rect width="22" height="26"  transform="translate(0 0.359375)"/>
</clipPath>
</defs>
</svg>
