<svg width="22" height="27" viewBox="0 0 22 27" fill="none" xmlns="http://www.w3.org/2000/svg">
<g clip-path="url(#clip0_6_2052)">
<path d="M10.3598 3.12852C9.84414 3.32187 9.47031 3.66133 9.22539 4.15977C9.09219 4.43477 9.08789 4.46484 9.08789 4.98047C9.08789 5.49609 9.09219 5.52617 9.22539 5.79688C9.47031 6.29961 9.82695 6.62617 10.3297 6.81094C10.609 6.90977 10.609 6.90977 10.1836 7C10.0547 7.03008 9.7625 7.1375 9.53906 7.24492C9.18672 7.4168 9.0793 7.49414 8.72266 7.85508C8.37031 8.20742 8.28008 8.32773 8.1125 8.67578C7.86758 9.17852 7.77734 9.53945 7.77734 10.0121C7.77734 10.4117 7.8375 10.5492 8.06094 10.6996C8.18125 10.777 8.31445 10.7812 11 10.7812C13.6855 10.7812 13.8187 10.777 13.9391 10.6996C14.1668 10.5492 14.2227 10.4117 14.2227 10.0035C14.2227 9.55664 14.0809 9.01953 13.8445 8.56836C13.6254 8.15156 12.9809 7.51133 12.5684 7.29219C12.2977 7.15469 11.9066 7.01719 11.5371 6.93555C11.4125 6.90977 11.4125 6.90547 11.6402 6.82812C12.1473 6.64766 12.5297 6.29961 12.7746 5.80117C12.9078 5.52617 12.9121 5.49609 12.9121 4.98047C12.9121 4.45625 12.9078 4.43477 12.766 4.14258C12.5727 3.74727 12.2332 3.40781 11.8379 3.21875C11.5586 3.08125 11.4984 3.06836 11.0645 3.05977C10.6777 3.04688 10.5488 3.05977 10.3598 3.12852ZM11.318 4.46055C11.5027 4.58516 11.6016 4.76133 11.6016 4.98047C11.6016 5.09648 11.5672 5.22109 11.5199 5.29844C11.3953 5.4832 11.2191 5.58203 11 5.58203C10.6562 5.58203 10.3984 5.32422 10.3984 4.98047C10.3984 4.63672 10.6562 4.37891 11 4.37891C11.116 4.37891 11.2406 4.41328 11.318 4.46055ZM11.7863 8.40508C12.1473 8.57695 12.4953 8.89922 12.6715 9.23438L12.809 9.49219H11H9.19531L9.30703 9.27305C9.44453 8.99375 9.75391 8.65859 10.0117 8.5125C10.377 8.29766 10.5961 8.2418 11.0645 8.25898C11.4426 8.26758 11.5285 8.28477 11.7863 8.40508Z" fill="black"/>
<path d="M10.6391 12.152C10.4027 12.311 10.3555 12.4356 10.3555 12.9168V13.3594H6.69453C3.17539 13.3594 3.025 13.3637 2.90469 13.4411C2.63398 13.6215 2.62109 13.6774 2.62109 14.6485C2.62109 15.6196 2.63398 15.6754 2.90469 15.8559C3.07227 15.9676 3.45898 15.9676 3.62656 15.8559C3.86289 15.6969 3.91016 15.5723 3.91016 15.0868V14.6485H7.13281H10.3555V15.0868C10.3555 15.5723 10.4027 15.6969 10.6391 15.8559C10.8066 15.9676 11.1934 15.9676 11.3609 15.8559C11.5973 15.6969 11.6445 15.5723 11.6445 15.0868V14.6485H14.8672H18.0898V15.0868C18.0898 15.5723 18.1371 15.6969 18.3734 15.8559C18.541 15.9676 18.9277 15.9676 19.0953 15.8559C19.366 15.6754 19.3789 15.6196 19.3789 14.6485C19.3789 13.6774 19.366 13.6215 19.0953 13.4411C18.975 13.3637 18.8246 13.3594 15.3098 13.3594H11.6445V12.9168C11.6445 12.5602 11.6273 12.4571 11.5629 12.354C11.4297 12.1563 11.2664 12.0704 11 12.0704C10.841 12.0704 10.725 12.0961 10.6391 12.152Z" fill="black"/>
<path d="M0.283594 17.3082C0.219141 17.3512 0.124609 17.4457 0.0816406 17.5102C0.00429688 17.6305 0 17.7637 0 20.4492C0 23.1348 0.00429688 23.268 0.0816406 23.3883C0.124609 23.4527 0.219141 23.5473 0.283594 23.5902C0.403906 23.6676 0.537109 23.6719 3.24414 23.6719C5.95117 23.6719 6.08437 23.6676 6.20469 23.5902C6.26914 23.5473 6.36367 23.4527 6.40664 23.3883C6.48398 23.268 6.48828 23.1348 6.48828 20.4492C6.48828 17.7637 6.48398 17.6305 6.40664 17.5102C6.36367 17.4457 6.26914 17.3512 6.20469 17.3082C6.08437 17.2309 5.95117 17.2266 3.24414 17.2266C0.537109 17.2266 0.403906 17.2309 0.283594 17.3082ZM5.19922 20.4492V22.3828H3.24414H1.28906V20.4492V18.5156H3.24414H5.19922V20.4492Z" fill="black"/>
<path d="M8.06094 17.3082C7.99648 17.3512 7.90195 17.4457 7.85898 17.5102C7.78164 17.6305 7.77734 17.7637 7.77734 20.4492C7.77734 23.1348 7.78164 23.268 7.85898 23.3883C7.90195 23.4527 7.99648 23.5473 8.06094 23.5902C8.18125 23.6676 8.31445 23.6719 11 23.6719C13.6855 23.6719 13.8187 23.6676 13.9391 23.5902C14.0035 23.5473 14.098 23.4527 14.141 23.3883C14.2184 23.268 14.2227 23.1348 14.2227 20.4492C14.2227 17.7637 14.2184 17.6305 14.141 17.5102C14.098 17.4457 14.0035 17.3512 13.9391 17.3082C13.8187 17.2309 13.6855 17.2266 11 17.2266C8.31445 17.2266 8.18125 17.2309 8.06094 17.3082ZM12.9336 20.4492V22.3828H11H9.06641V20.4492V18.5156H11H12.9336V20.4492Z" fill="black"/>
<path d="M15.7953 17.3082C15.7309 17.3512 15.6363 17.4457 15.5934 17.5102C15.516 17.6305 15.5117 17.7637 15.5117 20.4492C15.5117 23.1348 15.516 23.268 15.5934 23.3883C15.6363 23.4527 15.7309 23.5473 15.7953 23.5902C15.9156 23.6676 16.0488 23.6719 18.7559 23.6719C21.4629 23.6719 21.5961 23.6676 21.7164 23.5902C21.7809 23.5473 21.8754 23.4527 21.9184 23.3883C21.9957 23.268 22 23.1348 22 20.4492C22 17.7637 21.9957 17.6305 21.9184 17.5102C21.8754 17.4457 21.7809 17.3512 21.7164 17.3082C21.5961 17.2309 21.4629 17.2266 18.7559 17.2266C16.0488 17.2266 15.9156 17.2309 15.7953 17.3082ZM20.7109 20.4492V22.3828H18.7559H16.8008V20.4492V18.5156H18.7559H20.7109V20.4492Z" fill="black"/>
</g>
<defs>
<clipPath id="clip0_6_2052">
<rect width="22" height="26"  transform="translate(0 0.359375)"/>
</clipPath>
</defs>
</svg>
