<svg width="22" height="27" viewBox="0 0 22 27" fill="none" xmlns="http://www.w3.org/2000/svg">
<g clip-path="url(#clip0_100_885)">
<path d="M2.20412 6.07187C1.826 6.19219 1.551 6.45859 1.42639 6.82383C1.38772 6.93125 1.37483 8.38359 1.37483 12.3539V17.7336L0.833421 17.7508C0.0986554 17.768 0.111546 17.7465 0.137327 18.623C0.158812 19.3707 0.223265 19.5855 0.53264 19.9809C0.743187 20.2473 1.00959 20.4449 1.37053 20.5867L1.61116 20.6855H10.9998H20.3885L20.6334 20.5867C21.003 20.4363 21.2651 20.2387 21.4928 19.9422C21.7893 19.5512 21.8709 19.2504 21.8709 18.5371C21.8709 17.7551 21.8838 17.768 21.1662 17.7508L20.6248 17.7336L20.6205 12.3367C20.6205 8.31484 20.6033 6.90117 20.569 6.79805C20.4658 6.51875 20.2553 6.28672 19.9975 6.15781L19.744 6.0332L11.0643 6.02461C4.00881 6.02031 2.35022 6.02891 2.20412 6.07187ZM19.6795 6.7207C19.744 6.75508 19.8428 6.83672 19.8901 6.89687L19.9803 7.01289V12.3754V17.7422L16.6072 17.7508C13.5479 17.7637 13.2299 17.7723 13.1655 17.8324C13.1268 17.8711 13.0408 18.0559 12.9764 18.2406L12.8561 18.5801H10.9998H9.14358L9.02326 18.2406C8.95881 18.0559 8.87287 17.8711 8.8342 17.8324C8.76975 17.7723 8.45178 17.7637 5.39241 17.7508L2.01936 17.7422V12.3754V7.00859L2.13537 6.87109C2.19553 6.79375 2.29006 6.71641 2.33733 6.69922C2.38889 6.67773 6.28186 6.66055 10.9912 6.66055C18.4721 6.65625 19.5721 6.66484 19.6795 6.7207ZM8.52912 18.7605C8.62795 19.0484 8.68381 19.1516 8.76545 19.1902C8.92014 19.2676 13.0795 19.2676 13.2342 19.1902C13.3158 19.1516 13.3717 19.0484 13.4705 18.7605L13.5994 18.3867H17.4108H21.2264V18.7434C21.2264 19.0613 21.2092 19.1344 21.0932 19.3707C21.003 19.5469 20.8955 19.6844 20.7666 19.7832C20.3713 20.084 21.1061 20.0625 10.9998 20.0625C0.897874 20.0625 1.64123 20.084 1.24162 19.7875C1.09983 19.6844 1.001 19.5598 0.906468 19.3707C0.790452 19.1344 0.773265 19.0613 0.773265 18.7434V18.3867H4.58889H8.40022L8.52912 18.7605Z" />
<path d="M2.62539 7.32656C2.53516 7.44258 2.53516 7.45117 2.53516 12.2207C2.53516 16.8656 2.53945 17.0031 2.6168 17.102L2.69844 17.2051H10.9957C18.902 17.2051 19.293 17.2008 19.366 17.1277C19.4391 17.0547 19.4434 16.7926 19.4563 12.2465L19.4648 7.44258L19.3746 7.33086L19.2887 7.21484H11H2.71133L2.62539 7.32656ZM18.8203 12.2207V16.582H11H3.17969V12.2207V7.85938H11H18.8203V12.2207Z" />
<path d="M10.4542 8.86484C10.0632 8.95937 9.74955 9.14414 9.43158 9.46641C8.97181 9.93047 8.76556 10.3988 8.76556 10.9832V11.2539H8.48626C8.12962 11.2539 8.00501 11.3141 7.94486 11.5074C7.91478 11.6105 7.90619 12.3152 7.91478 13.5441L7.92767 15.4305L8.04798 15.5336L8.17259 15.6367L11.0257 15.6281L13.8745 15.6152L13.9734 15.5164L14.0722 15.4176L14.0851 13.5398C14.0937 12.3152 14.0851 11.6105 14.055 11.5074C13.9949 11.3141 13.8702 11.2539 13.5136 11.2539H13.2343V10.9832C13.2343 9.97773 12.4824 9.0668 11.4812 8.85195C11.189 8.7918 10.7421 8.79609 10.4542 8.86484ZM11.7089 9.6082C12.1988 9.86172 12.5081 10.3 12.5898 10.85C12.6113 11.0133 12.6327 11.1723 12.6327 11.198C12.6327 11.241 12.2761 11.2539 10.9956 11.2539H9.36283L9.38861 11.0047C9.43158 10.6523 9.49173 10.4418 9.60775 10.2355C9.79251 9.92188 10.1964 9.6082 10.5702 9.48789C10.6304 9.46641 10.8538 9.45781 11.0644 9.46211C11.3995 9.475 11.4855 9.49648 11.7089 9.6082ZM13.4492 13.4453V14.9922H10.9999H8.55072V13.4453V11.8984H10.9999H13.4492V13.4453Z" />
<path d="M10.8281 12.2809C10.609 12.3238 10.4113 12.4527 10.2781 12.6461C10.1793 12.7922 10.1621 12.8566 10.1621 13.123C10.1621 13.3852 10.1793 13.4539 10.2824 13.6129C10.3469 13.7117 10.4672 13.8234 10.5488 13.8621C10.6949 13.9309 10.6992 13.9395 10.6992 14.1973C10.6992 14.5109 10.7723 14.6055 11.0086 14.6055C11.2277 14.6055 11.3008 14.5023 11.3008 14.193C11.3051 13.9395 11.3051 13.9395 11.4898 13.8277C11.7176 13.6902 11.8594 13.4195 11.8594 13.1273C11.8594 12.5945 11.3566 12.182 10.8281 12.2809Z" />
</g>
<defs>
<clipPath id="clip0_100_885">
<rect width="22" height="26"  transform="translate(0 0.359375)"/>
</clipPath>
</defs>
</svg>
