<svg width="22" height="27" viewBox="0 0 22 27" fill="none" xmlns="http://www.w3.org/2000/svg">
<g clip-path="url(#clip0_48_981)">
<path d="M4.0037 3.09664C3.7001 3.18023 3.4405 3.32984 3.2029 3.55424C2.9433 3.79624 2.7893 4.04263 2.6793 4.40343C2.6001 4.66303 2.5957 4.97104 2.5957 13.375C2.5957 21.779 2.6001 22.087 2.6793 22.3466C2.8905 23.033 3.4185 23.5258 4.0917 23.6666C4.2721 23.7062 6.0409 23.715 11.1537 23.7062L17.9737 23.693L18.2685 23.5522C18.7921 23.3058 19.1485 22.8966 19.3201 22.3466C19.3993 22.087 19.4037 21.779 19.4037 13.375C19.4037 4.97104 19.3993 4.66303 19.3201 4.40343C19.1485 3.85344 18.7921 3.44423 18.2685 3.19784L17.9737 3.05704L11.0877 3.04823C5.6669 3.04383 4.1577 3.05264 4.0037 3.09664ZM17.9825 3.77864C18.2685 3.90623 18.5721 4.22304 18.6821 4.50904C18.7613 4.72464 18.7657 4.95783 18.7657 13.397V22.065L18.6601 22.2938C18.5325 22.5798 18.2157 22.8834 17.9297 22.9934C17.7141 23.0726 17.5073 23.077 10.9997 23.077C4.4921 23.077 4.2853 23.0726 4.0697 22.9934C3.7837 22.8834 3.4669 22.5798 3.3393 22.2938L3.2337 22.065V13.397C3.2337 4.97543 3.2381 4.72464 3.3173 4.51344C3.4669 4.12184 3.8409 3.79624 4.2545 3.69944C4.3513 3.67743 7.2905 3.66424 11.0877 3.66424L17.7537 3.67303L17.9825 3.77864Z" />
<path d="M6.8812 4.37709C5.7944 4.61469 5.3192 5.55189 5.5656 6.97309C5.68 7.61109 5.8912 8.15669 6.2476 8.70669C6.3488 8.86069 6.4236 8.98829 6.4148 8.99269C6.406 9.00149 6.2784 9.04989 6.1244 9.10709C5.5964 9.30069 4.9936 9.75389 4.6372 10.2203C4.382 10.5547 4.0828 11.1839 3.986 11.5755C3.9464 11.7383 3.9024 12.0595 3.8848 12.2927L3.8584 12.7151H7.4268H10.9996V12.4159C10.9996 10.8891 10.0096 9.52509 8.5224 9.00589C8.4564 8.97949 8.4652 8.94869 8.6192 8.71989C8.8568 8.37229 9.0812 7.89269 9.222 7.41309C9.3276 7.06109 9.3408 6.94229 9.3452 6.33509C9.3496 5.71909 9.3408 5.62669 9.2484 5.39789C9.1912 5.26149 9.0724 5.05029 8.98 4.93589C8.5884 4.43869 7.6908 4.20109 6.8812 4.37709Z" />
<path d="M10.2248 5.64867C10.0048 5.74547 9.96082 5.99187 10.1324 6.15027L10.2336 6.24707H14.088H17.9468L18.0348 6.13267C18.1536 5.97867 18.1492 5.88187 18.0216 5.73227L17.916 5.60907L14.1364 5.60027C11.0344 5.59147 10.3348 5.60027 10.2248 5.64867Z" />
<path d="M10.12 7.65498C10.0056 7.76938 10.0056 7.96298 10.12 8.08618L10.2124 8.18298H14.08H17.9476L18.0356 8.06858C18.0884 8.00258 18.128 7.91898 18.128 7.87498C18.128 7.83098 18.0884 7.74738 18.0356 7.68138L17.9476 7.56698H14.0756C10.2652 7.56698 10.208 7.56698 10.12 7.65498Z" />
<path d="M11.7478 9.59099C11.6378 9.70099 11.6334 9.90339 11.7434 10.0354L11.827 10.141H14.8718H17.9166L18.0222 10.0178C18.1498 9.86819 18.1542 9.77139 18.0354 9.61739L17.9474 9.50299H14.8894C11.893 9.50299 11.8358 9.50299 11.7478 9.59099Z" />
<path d="M11.7566 11.5403C11.6378 11.6679 11.6334 11.8351 11.7434 11.9715L11.827 12.0771L14.8146 12.0903C16.9178 12.0991 17.833 12.0859 17.9166 12.0507C18.1454 11.9583 18.1718 11.6019 17.9562 11.4875C17.899 11.4523 16.8958 11.4391 14.8586 11.4391H11.849L11.7566 11.5403Z" />
<path d="M4.03495 13.4234C3.83255 13.5422 3.85455 13.8854 4.07455 13.9866C4.23295 14.057 17.7673 14.057 17.9257 13.9866C18.1501 13.8854 18.1677 13.5334 17.9565 13.4234C17.8333 13.3574 4.14495 13.3574 4.03495 13.4234Z" />
<path d="M4.01718 15.3771C3.96878 15.4123 3.91158 15.4915 3.89838 15.5531C3.86758 15.6807 3.96438 15.9007 4.06998 15.9447C4.16678 15.9799 17.8332 15.9799 17.93 15.9447C17.9652 15.9271 18.0312 15.8567 18.0664 15.7863C18.1236 15.6763 18.1236 15.6323 18.0796 15.5267C18.0532 15.4519 17.9916 15.3771 17.9476 15.3551C17.8992 15.3287 15.312 15.3111 10.9912 15.3111C4.99398 15.3111 4.10078 15.3199 4.01718 15.3771Z" />
<path d="M4.06127 17.2998C3.85007 17.401 3.83687 17.753 4.04367 17.8586C4.16687 17.9246 17.8333 17.9246 17.9565 17.8586C18.1677 17.7486 18.1501 17.3966 17.9257 17.2954C17.7761 17.2294 4.20207 17.2294 4.06127 17.2998Z" />
<path d="M4.10468 19.227C3.95948 19.2842 3.86268 19.4602 3.89788 19.5966C3.96388 19.8606 3.47988 19.843 11.0039 19.843C17.5071 19.843 17.9031 19.8386 17.9867 19.7638C18.1363 19.6406 18.1495 19.4778 18.0263 19.3326L17.9163 19.205L11.0567 19.1962C7.14508 19.1918 4.16188 19.205 4.10468 19.227Z" />
<path d="M3.95938 21.2819C3.84938 21.4227 3.87138 21.5855 4.01218 21.6999C4.09578 21.7747 4.49178 21.7791 10.9994 21.7791C17.507 21.7791 17.903 21.7747 17.9866 21.6999C18.1274 21.5855 18.1494 21.4227 18.0394 21.2819L17.947 21.1631H10.9994H4.05178L3.95938 21.2819Z" />
</g>
<defs>
<clipPath id="clip0_48_981">
<rect width="22" height="26"  transform="translate(0 0.375)"/>
</clipPath>
</defs>
</svg>
