<svg width="22" height="27" viewBox="0 0 22 27" fill="none" xmlns="http://www.w3.org/2000/svg">
<g clip-path="url(#clip0_79_1035)">
<path d="M9.55622 2.47978C7.01247 2.96963 4.38278 4.56807 1.882 7.1376C0.00856156 9.07978 -0.257845 9.59541 0.249187 10.3603C0.678874 11.0048 2.18278 12.6204 3.07653 13.4024C5.84372 15.8345 8.37887 16.986 10.957 16.9946C12.057 16.9946 12.6156 16.9087 13.707 16.5735C15.9929 15.8517 18.4593 14.1157 20.6422 11.6923C21.8195 10.386 22.0257 10.0595 21.9742 9.604C21.9312 9.16572 21.3984 8.46963 20.0664 7.09463C17.789 4.73994 15.3398 3.17588 13.0625 2.61728C12.1086 2.38525 10.4156 2.3165 9.55622 2.47978ZM13.1914 3.4165C14.7382 3.85478 15.5976 4.33603 16.2851 5.16963C18.5625 7.91963 18.4937 11.8212 16.1218 14.3649C15.6062 14.9235 15.3914 15.0782 14.7211 15.3962C14.2828 15.6024 13.5523 15.8774 13.0883 15.9978C12.3664 16.1954 12.0742 16.2212 11 16.2212C9.92575 16.2212 9.63356 16.1954 8.91169 15.9978C8.44763 15.8774 7.71716 15.6024 7.27887 15.3962C6.62575 15.0868 6.39372 14.9149 5.91247 14.4079C4.12497 12.5087 3.58356 9.83603 4.46012 7.30947C4.83825 6.24385 5.76637 4.92041 6.48825 4.42197C7.02106 4.05244 8.09528 3.61416 8.94606 3.40791C9.34137 3.30478 9.74528 3.21025 9.83981 3.18447C9.93434 3.15869 10.5531 3.15869 11.2148 3.17588C12.1773 3.19307 12.5726 3.24463 13.1914 3.4165ZM4.05622 6.37275C3.75544 6.95713 3.45466 8.06572 3.36012 8.89932C3.21403 10.197 3.42028 11.5118 3.95309 12.7665C4.17653 13.2993 4.18512 13.3509 4.03903 13.2735C3.76403 13.1274 1.78747 11.1337 1.26325 10.472C0.996843 10.1368 0.773405 9.77588 0.773405 9.68135C0.773405 9.57822 1.06559 9.14853 1.41794 8.72744C2.06247 7.9626 4.12497 5.93447 4.18512 6.00322C4.21091 6.02041 4.15075 6.18369 4.05622 6.37275ZM19.6023 7.66182C20.5648 8.6501 21.2265 9.4665 21.2265 9.68135C21.2265 9.93057 20.4187 10.9103 19.2586 12.0704C18.3906 12.9384 17.4797 13.7204 17.7547 13.3595C17.9093 13.1618 18.2961 12.2079 18.4336 11.6579C18.8718 9.99072 18.6742 7.80791 17.9523 6.38135C17.8578 6.20088 17.789 6.0376 17.789 6.00322C17.789 5.91728 18.8718 6.90557 19.6023 7.66182Z" />
<path d="M9.84844 5.0751C7.77734 5.57353 6.27344 7.49853 6.27344 9.64697C6.27344 11.0563 6.70312 12.0962 7.68281 13.0587C9.58203 14.9321 12.4523 14.9321 14.3172 13.0673C15.3914 11.9931 15.7867 10.9103 15.6922 9.37197C15.6148 8.27197 15.6148 8.03994 15.6922 7.31806C15.8211 6.029 15.0047 5.0665 13.707 4.96338C13.3547 4.929 13.0883 4.96338 12.882 5.04931C12.607 5.16103 12.5039 5.16103 12.0656 5.05791C11.4297 4.91181 10.5016 4.91181 9.84844 5.0751ZM11.7562 5.754C11.7648 5.7626 11.6961 5.94306 11.6102 6.14931C11.3438 6.74228 11.3094 7.17197 11.4641 7.72197C11.6273 8.28916 12.057 8.81338 12.5813 9.08838C13.0969 9.35478 14.0938 9.35478 14.5578 9.07978C14.7383 8.96806 14.9102 8.90791 14.9359 8.93369C15.0391 9.02822 15.0477 9.90478 14.9617 10.3946C14.7297 11.6579 13.9305 12.7063 12.7617 13.2821C12.1516 13.5829 11.9539 13.6431 11.3266 13.6774C10.0289 13.7634 9.06641 13.411 8.18125 12.5345C6.20469 10.5665 6.7375 7.33525 9.23828 6.08916C9.9 5.7626 10.6391 5.6251 11.3008 5.69385C11.5414 5.71103 11.7391 5.74541 11.7562 5.754ZM14.3086 5.87431C14.85 6.18369 15.1422 6.91416 14.9617 7.51572C14.7641 8.18603 14.2656 8.56416 13.5781 8.56416C11.9195 8.56416 11.55 6.32119 13.1227 5.74541C13.5008 5.60791 13.9305 5.65947 14.3086 5.87431Z" />
<path d="M9.81431 9.14848C8.94634 9.68129 8.9979 10.9016 9.90884 11.3743C10.7682 11.8125 11.7049 11.2024 11.7049 10.1969C11.7049 9.27739 10.6049 8.66723 9.81431 9.14848Z" />
<path d="M2.87894 17.9056C2.70707 18.0087 2.50941 18.2837 2.28597 18.7478L1.95082 19.4353L1.22035 19.547C0.429723 19.6673 0.14613 19.8392 0.0344109 20.2689C-0.0601203 20.647 0.0773797 20.922 0.618786 21.4892L1.143 22.0392L1.03129 22.8041C0.90238 23.7064 0.979723 24.0244 1.38363 24.2306C1.75316 24.4283 1.95082 24.3939 2.64691 24.0072L3.29144 23.6548L3.95316 24.0072C4.76957 24.4455 4.993 24.4541 5.37972 24.0673C5.70629 23.7408 5.72347 23.6205 5.5516 22.6666L5.43988 22.0478L5.89535 21.6009C6.50551 20.9994 6.66879 20.6556 6.53988 20.2345C6.41097 19.8048 6.17894 19.6673 5.32816 19.5384L4.61488 19.4267L4.28832 18.722C3.85863 17.7767 3.45472 17.5447 2.87894 17.9056ZM3.72972 19.2462C3.91019 19.6502 4.09926 20.0025 4.15082 20.0369C4.20238 20.0712 4.5891 20.1572 5.01879 20.2259C5.45707 20.3033 5.80082 20.4064 5.8266 20.4752C5.84379 20.5353 5.59457 20.8533 5.2766 21.1798L4.70082 21.7814L4.75238 22.2283C4.77816 22.4775 4.82972 22.89 4.8641 23.1306C4.93285 23.6892 4.90707 23.6978 4.08207 23.2423C3.73832 23.0533 3.38597 22.8986 3.30863 22.8986C3.22269 22.8986 2.86175 23.0533 2.50941 23.2509C2.16566 23.44 1.8305 23.5775 1.76175 23.5603C1.67582 23.5259 1.67582 23.397 1.77035 22.8814C1.95941 21.8072 1.95941 21.7986 1.33207 21.1798C1.02269 20.8791 0.773473 20.5611 0.773473 20.4923C0.773473 20.3806 0.936755 20.3291 1.48675 20.2431C1.87347 20.183 2.26019 20.1228 2.33754 20.097C2.42347 20.0712 2.64691 19.7275 2.84457 19.2806C3.04222 18.8595 3.24847 18.5158 3.30004 18.5158C3.36019 18.5158 3.54925 18.8423 3.72972 19.2462Z" />
<path d="M10.6992 17.8196C10.4414 17.9313 10.2695 18.1547 9.95156 18.8165C9.64219 19.461 9.67656 19.4438 8.64531 19.5899C8.06094 19.6672 7.73438 20.0024 7.73438 20.4922C7.73438 20.8188 7.78594 20.9047 8.29297 21.4375L8.85156 22.0133L8.73125 22.7782C8.59375 23.6375 8.6625 23.9555 9.03203 24.2219C9.34141 24.4368 9.625 24.3938 10.3383 24.0157L11 23.6633L11.6617 24.0157C12.375 24.3938 12.6586 24.4368 12.968 24.2219C13.3375 23.9555 13.4062 23.6375 13.2688 22.7782L13.1484 22.0133L13.707 21.4375C14.2141 20.9047 14.2656 20.8188 14.2656 20.4922C14.2656 20.0024 13.9391 19.6672 13.3547 19.5899C12.3148 19.4438 12.3664 19.4696 12.0227 18.7735C11.8508 18.4211 11.6359 18.0602 11.5414 17.9829C11.3352 17.7938 10.9313 17.7165 10.6992 17.8196ZM11.4297 19.229C11.6102 19.6157 11.8078 19.9852 11.868 20.0368C11.9367 20.0883 12.3234 20.1743 12.7445 20.2344C13.157 20.2946 13.518 20.3719 13.5438 20.4235C13.5695 20.4665 13.3203 20.7844 12.9852 21.1368C12.65 21.4805 12.375 21.7985 12.375 21.8329C12.375 21.8758 12.4352 22.2368 12.5039 22.6407C12.5727 23.0446 12.6328 23.4227 12.6328 23.4743C12.6328 23.6633 12.418 23.6032 11.782 23.2422C11.4469 23.0532 11.1031 22.8985 11.0172 22.8985C10.9227 22.8985 10.5703 23.0532 10.2266 23.2422C9.57344 23.6032 9.36719 23.6547 9.36719 23.4743C9.36719 23.4227 9.42734 23.0446 9.49609 22.6407C9.56484 22.2368 9.625 21.8758 9.625 21.8329C9.625 21.7985 9.35 21.4805 9.01484 21.1368C8.67969 20.7844 8.42188 20.4665 8.45625 20.4235C8.48203 20.3805 8.84297 20.3032 9.25547 20.2344C9.66797 20.1743 10.0633 20.0883 10.132 20.0282C10.2008 19.9766 10.3984 19.6157 10.5789 19.2204C10.7594 18.8336 10.9484 18.5157 11 18.5157C11.0516 18.5157 11.2492 18.8336 11.4297 19.229Z" />
<path d="M18.2702 17.8798C18.0983 17.9744 17.9351 18.2236 17.703 18.7306L17.3679 19.4439L16.6632 19.547C15.821 19.6673 15.589 19.8048 15.4601 20.2345C15.3312 20.6556 15.4944 20.9994 16.1046 21.6009L16.5601 22.0478L16.4483 22.6666C16.2765 23.6205 16.2937 23.7408 16.6202 24.0673C17.0069 24.4541 17.2304 24.4455 18.0468 24.0072L18.7085 23.6548L19.353 24.0072C20.0491 24.3939 20.2468 24.4283 20.6163 24.2306C21.0202 24.0244 21.0976 23.7064 20.9687 22.8041L20.8569 22.0392L21.3812 21.4892C21.9226 20.922 22.0601 20.647 21.9655 20.2689C21.8538 19.8392 21.5702 19.6673 20.7796 19.547L20.0491 19.4353L19.714 18.7478C19.2585 17.8111 18.8546 17.5705 18.2702 17.8798ZM19.1554 19.2806C19.353 19.7275 19.5765 20.0712 19.6624 20.097C19.7398 20.1228 20.1265 20.183 20.5218 20.2431C21.0632 20.3291 21.2265 20.3806 21.2265 20.4923C21.2265 20.5611 20.9773 20.8791 20.6679 21.1798C20.0405 21.7986 20.0405 21.8072 20.2296 22.8814C20.3241 23.397 20.3241 23.5259 20.2382 23.5603C20.1694 23.5775 19.8343 23.44 19.4905 23.2509C19.1382 23.0533 18.7773 22.8986 18.6913 22.8986C18.614 22.8986 18.2616 23.0533 17.9179 23.2423C17.0929 23.6978 17.0671 23.6892 17.1358 23.1306C17.1702 22.89 17.2218 22.4775 17.2476 22.2283L17.2991 21.7814L16.7233 21.1798C16.4054 20.8533 16.1562 20.5353 16.1733 20.4752C16.1991 20.4064 16.5429 20.3033 16.9812 20.2259C17.4108 20.1572 17.7976 20.0712 17.8491 20.0369C17.9007 20.0025 18.0898 19.6502 18.2702 19.2462C18.4507 18.8423 18.6398 18.5158 18.6999 18.5158C18.7515 18.5158 18.9577 18.8595 19.1554 19.2806Z" />
</g>
<defs>
<clipPath id="clip0_79_1035">
<rect width="22" height="26"  transform="translate(0 0.359375)"/>
</clipPath>
</defs>
</svg>
