<svg width="22" height="27" viewBox="0 0 22 27" fill="none" xmlns="http://www.w3.org/2000/svg">
<g clip-path="url(#clip0_100_997)">
<path d="M18.4424 2.8707C18.4123 2.88789 18.3564 3.03828 18.3264 3.19727C18.1416 4.07812 17.5701 4.68398 16.6291 5.00195C16.4057 5.075 16.3412 5.11797 16.3111 5.2125C16.2553 5.36719 16.3412 5.44453 16.6849 5.56484C17.3853 5.79688 18.0041 6.46289 18.2662 7.26211C18.3736 7.58008 18.451 7.6875 18.5799 7.6875C18.7346 7.6875 18.7732 7.62734 18.8635 7.28359C18.9709 6.8625 19.1256 6.57461 19.4135 6.26094C19.7014 5.95156 20.0881 5.69375 20.4533 5.57773C20.8142 5.45742 20.9131 5.36719 20.8572 5.2082C20.8228 5.10938 20.7713 5.075 20.5478 5.01484C20.1139 4.89883 19.8947 4.76992 19.5682 4.44766C19.233 4.1168 18.9709 3.64414 18.8463 3.15859C18.8119 3.0168 18.756 2.88789 18.726 2.8707C18.6529 2.82344 18.5154 2.82344 18.4424 2.8707ZM18.7689 4.16836C18.9537 4.50352 19.4264 5.00195 19.7142 5.16094L19.9377 5.28984L19.6928 5.44023C19.3576 5.63789 18.9064 6.09336 18.7131 6.42422L18.5498 6.69922L18.3951 6.43711C18.1932 6.09336 17.7635 5.63359 17.4627 5.43164L17.2264 5.27266L17.4928 5.11797C17.8365 4.91172 18.2447 4.50781 18.4338 4.17266C18.5154 4.02656 18.5928 3.91055 18.6057 3.90625C18.6185 3.90625 18.6916 4.02227 18.7689 4.16836Z" />
<path d="M5.85218 7.33093C5.02718 8.31921 4.3096 9.17429 4.25804 9.23015C4.14632 9.35906 4.14202 9.50515 4.24515 9.60827C4.28812 9.65124 5.80921 11.3356 7.62249 13.3466C10.2307 16.2469 10.9397 17.0118 11.0213 17.0118C11.1416 17.0118 10.9612 17.2051 14.6951 13.0372C16.2635 11.2884 17.6084 9.78445 17.6944 9.69851C17.7803 9.60827 17.8448 9.49655 17.8448 9.4364C17.8448 9.35906 17.4022 8.80476 16.2592 7.43405L14.6737 5.53913H11.017H7.35609L5.85218 7.33093ZM10.5444 6.02038C10.5229 6.05046 10.2565 6.42429 9.9471 6.84968C9.63773 7.27507 9.18655 7.89812 8.94163 8.23757C8.69671 8.57702 8.48187 8.83913 8.46468 8.81765C8.44749 8.80046 8.2971 8.1946 8.12523 7.47273C7.95335 6.75085 7.80296 6.11921 7.79007 6.06335L7.76859 5.96882H9.17366C10.2823 5.96882 10.5701 5.98171 10.5444 6.02038ZM14.244 6.02038C14.2354 6.05046 14.0764 6.70359 13.8959 7.47273C13.7155 8.24187 13.5651 8.87351 13.5651 8.8778C13.5565 8.8821 12.1557 6.94421 11.6744 6.26101L11.4682 5.96882H12.8647C13.9647 5.96882 14.2569 5.98171 14.244 6.02038ZM12.117 7.66609L13.1998 9.16999L11.0385 9.18288C9.85257 9.18718 8.87288 9.18288 8.86429 9.17429C8.8471 9.1571 11.0127 6.1407 11.0299 6.15359C11.0342 6.15788 11.5241 6.83679 12.117 7.66609ZM15.9412 7.77351L17.1057 9.16999L15.5502 9.18288C14.6951 9.18718 13.9905 9.18718 13.9819 9.17859C13.9776 9.17429 14.042 8.86062 14.1323 8.48249C14.2225 8.10437 14.3815 7.45124 14.4803 7.02585C14.6307 6.39421 14.6737 6.2696 14.7166 6.31687C14.7467 6.35124 15.2967 7.00437 15.9412 7.77351ZM7.71702 7.75202L8.06507 9.19148H6.47952H4.88968L5.33655 8.66296C5.58148 8.37507 6.12718 7.72624 6.54827 7.22351C6.96507 6.72507 7.32601 6.31257 7.3432 6.31257C7.36038 6.31257 7.52796 6.9614 7.71702 7.75202ZM8.24124 9.78015C8.26273 9.8489 8.68382 11.0005 9.17366 12.3497C10.5143 16.045 10.4198 15.7614 10.2994 15.6368C10.2264 15.5594 6.18734 11.0735 5.01429 9.75866L4.92835 9.66413H6.56116H8.19827L8.24124 9.78015ZM13.3201 9.7071C13.3201 9.72859 13.0709 10.4462 12.7616 11.2969C11.5971 14.5282 11.0944 15.9204 11.0643 16.0192C11.0385 16.1009 10.7979 15.4735 9.9428 13.1188C9.34554 11.4688 8.81702 10.0122 8.76976 9.88757L8.68382 9.66413H10.9998C12.478 9.66413 13.3201 9.68132 13.3201 9.7071ZM16.7705 10.038C16.4612 10.3774 15.5889 11.3528 12.826 14.4337C11.8463 15.5251 11.6272 15.7657 11.6573 15.7012C11.6701 15.6755 12.1514 14.3434 12.7315 12.7364C13.3116 11.1294 13.8014 9.78015 13.8143 9.73718C13.8444 9.66843 13.9604 9.66413 15.4772 9.66413H17.11L16.7705 10.038Z" />
<path d="M20.1135 8.04839C20.0361 8.07417 19.8943 8.1644 19.8041 8.24175C19.4861 8.50386 19.4818 8.52964 19.3615 10.2914C19.3014 11.1636 19.2412 11.9929 19.2283 12.1347L19.2025 12.3968L18.9877 12.4957C18.7084 12.6203 18.6439 12.7234 17.8576 14.2917L17.2303 15.5507L17.0197 15.6582C16.3623 15.989 15.765 16.7582 15.5201 17.5917C15.3225 18.2621 15.2967 19.1343 15.4471 19.9765C15.4814 20.1785 15.5115 20.3546 15.5115 20.3718C15.5115 20.3933 15.3225 20.4062 15.0904 20.4062C14.8197 20.4062 14.6521 20.4234 14.6178 20.4578C14.5834 20.4921 14.5662 20.664 14.5662 20.9519V21.3945H14.36C14.2482 21.3945 14.1322 21.416 14.1021 21.446C14.0291 21.5191 14.0291 23.7621 14.1021 23.8351C14.1752 23.9082 20.3283 23.9082 20.4014 23.8351C20.4744 23.7621 20.4744 21.5191 20.4014 21.446C20.3713 21.416 20.2553 21.3945 20.1436 21.3945H19.9373V20.9519C19.9373 20.4964 19.9072 20.4062 19.7611 20.4062C19.701 20.4062 19.774 20.2257 20.1092 19.5382C20.7709 18.1761 21.076 17.4156 21.3725 16.3843L21.5229 15.8644L21.5314 12.2937L21.54 8.72729L21.4455 8.53394C21.3424 8.31909 21.1275 8.13433 20.8869 8.04839C20.6936 7.97964 20.3068 7.97964 20.1135 8.04839ZM20.917 8.60698L21.076 8.75737L21.0631 12.2722C21.0459 16.2296 21.0717 15.8859 20.6936 16.9902C20.4357 17.7421 20.1908 18.3136 19.6365 19.448L19.1682 20.4062H17.5826H15.9928L15.9111 19.9851C15.7951 19.3535 15.8037 18.2664 15.9326 17.8152C16.0529 17.3984 16.2635 16.973 16.4955 16.6808C16.7018 16.4273 17.1229 16.0921 17.3893 15.9718C17.5697 15.8902 17.5783 15.8773 18.2787 14.4851C18.6697 13.7117 19.035 13.0328 19.0908 12.9812C19.2412 12.8394 19.4561 12.8179 19.6924 12.921C19.9502 13.0371 20.0791 13.2304 20.049 13.4667C20.0361 13.5785 19.7225 14.2359 19.1682 15.3144C18.6955 16.2339 18.3045 17.016 18.3045 17.0503C18.3045 17.1449 18.4377 17.2695 18.5408 17.2695C18.5924 17.2695 18.6654 17.2351 18.6998 17.1921C18.7385 17.1535 19.1639 16.3328 19.6537 15.3703C20.6334 13.4367 20.6291 13.4496 20.4357 13.0371C20.324 12.7921 20.1264 12.6031 19.86 12.4828C19.7568 12.4355 19.6795 12.371 19.6795 12.3324C19.6795 12.2937 19.7354 11.4816 19.8041 10.5277C19.9115 8.9894 19.9373 8.78315 20.0104 8.68003C20.1307 8.52104 20.2682 8.46089 20.5303 8.46089C20.7279 8.46089 20.7752 8.47808 20.917 8.60698ZM19.5076 21.1152V21.3945H17.2518H14.9959V21.1152V20.8359H17.2518H19.5076V21.1152ZM20.0232 22.6406V23.457H17.2518H14.4803V22.6406V21.8242H17.2518H20.0232V22.6406Z" />
<path d="M18.9148 22.4773C18.8848 22.5074 18.8633 22.5805 18.8633 22.6406C18.8633 22.8082 18.9406 22.8555 19.2285 22.8555C19.5164 22.8555 19.5938 22.8082 19.5938 22.6406C19.5938 22.5805 19.5723 22.5074 19.5422 22.4773C19.4734 22.4086 18.9836 22.4086 18.9148 22.4773Z" />
<path d="M1.20312 8.06987C0.89375 8.1644 0.653125 8.37495 0.541406 8.64136C0.48125 8.78315 0.472656 9.23433 0.472656 12.2765V15.7527L0.61875 16.2855C0.910938 17.3425 1.31484 18.3523 1.95938 19.6414C2.15703 20.0367 2.32031 20.3718 2.32031 20.3847C2.32031 20.3976 2.28594 20.4062 2.24297 20.4062C2.09258 20.4062 2.0625 20.4964 2.0625 20.9519V21.3945H1.89922C1.80898 21.3945 1.71445 21.416 1.68438 21.446C1.61133 21.5191 1.61133 23.7621 1.68438 23.8351C1.75742 23.9082 7.91055 23.9082 7.98359 23.8351C8.05664 23.7621 8.05664 21.5191 7.98359 21.446C7.95352 21.416 7.82031 21.3945 7.68281 21.3945H7.43359V20.9519C7.43359 20.664 7.41641 20.4921 7.38203 20.4578C7.34766 20.4234 7.18008 20.4062 6.90508 20.4062H6.47969L6.50977 20.2902C6.6 19.9378 6.66016 19.375 6.66016 18.8808C6.66016 18.0257 6.50117 17.3812 6.14023 16.7625C5.94688 16.4359 5.37109 15.8644 5.04453 15.6796L4.78242 15.5292L4.10352 14.18C3.72969 13.4367 3.36875 12.7664 3.3 12.689C3.23125 12.6117 3.08945 12.5128 2.98633 12.4699C2.83164 12.4097 2.79297 12.371 2.79297 12.2851C2.79297 12.225 2.73711 11.4085 2.66836 10.4718C2.53086 8.5812 2.51367 8.49956 2.21289 8.26753C1.93789 8.06128 1.5125 7.97534 1.20312 8.06987ZM1.93359 8.65425C2.00234 8.723 2.07109 8.83472 2.08398 8.90776C2.10977 9.05815 2.32031 12.066 2.32031 12.2722C2.32031 12.3882 2.29453 12.4183 2.07969 12.5214C1.66289 12.7234 1.39648 13.2218 1.49961 13.6C1.55977 13.8191 3.28281 17.1921 3.36445 17.2437C3.47187 17.3125 3.64805 17.2351 3.67813 17.1105C3.7125 16.9902 3.74688 17.0632 2.4707 14.5625C2.17422 13.9824 1.93359 13.471 1.93359 13.4195C1.93359 13.3078 2.08828 13.0714 2.23867 12.9597C2.30313 12.9167 2.43633 12.8695 2.53945 12.8566C2.89609 12.8222 2.91328 12.848 3.72109 14.4421L4.44297 15.8816L4.72656 16.0277C5.10898 16.2253 5.60313 16.7238 5.80938 17.1191C6.22188 17.914 6.31641 18.941 6.08437 20.0625C6.0457 20.2386 6.01562 20.389 6.01562 20.3933C6.01562 20.4019 5.30234 20.4062 4.43438 20.4062H2.85313L2.43203 19.5554C1.73594 18.1632 1.31055 17.1105 1.05273 16.148L0.945312 15.7441V12.2937C0.945312 9.93472 0.958203 8.81323 0.992578 8.75737C1.13867 8.47808 1.68438 8.41792 1.93359 8.65425ZM7.00391 21.1152V21.3945H4.74805H2.49219V21.1152V20.8359H4.74805H7.00391V21.1152ZM7.60547 22.6406V23.457H4.83398H2.0625V22.6406V21.8242H4.83398H7.60547V22.6406Z" />
<path d="M2.62969 22.4773C2.59961 22.5074 2.57812 22.5805 2.57812 22.6406C2.57812 22.8082 2.65547 22.8555 2.94336 22.8555C3.23125 22.8555 3.30859 22.8082 3.30859 22.6406C3.30859 22.473 3.23125 22.4258 2.94336 22.4258C2.79727 22.4258 2.65977 22.4473 2.62969 22.4773Z" />
<path d="M9.89159 17.8238C9.86151 17.841 9.80565 17.9914 9.77557 18.1547C9.5951 19.0141 9.00643 19.6414 8.0869 19.9508C7.85487 20.0281 7.79042 20.0711 7.76034 20.1656C7.70448 20.3203 7.79042 20.3977 8.13417 20.518C8.83456 20.75 9.42753 21.3902 9.71542 22.2109C9.82714 22.5375 9.90448 22.6406 10.0334 22.6406C10.1666 22.6406 10.2482 22.5246 10.3084 22.2453C10.4674 21.502 11.1377 20.7801 11.9025 20.5309C12.2635 20.4105 12.3623 20.3203 12.3064 20.1613C12.2721 20.0625 12.2205 20.0281 11.9971 19.968C11.5631 19.852 11.3439 19.723 11.0174 19.4008C10.6822 19.0699 10.4201 18.5973 10.2955 18.1117C10.2611 17.9699 10.2053 17.841 10.1752 17.8238C10.1021 17.7766 9.96464 17.7766 9.89159 17.8238ZM10.2182 19.1215C10.3986 19.448 10.8584 19.9379 11.1549 20.1141L11.3783 20.2473L11.1377 20.3934C10.8068 20.591 10.3557 21.0465 10.1623 21.3773L9.99901 21.6523L9.84432 21.3859C9.65096 21.0551 9.22987 20.5996 8.9162 20.3848L8.67987 20.2215L8.94628 20.0668C9.28573 19.8648 9.69393 19.4609 9.883 19.1258C9.96464 18.9797 10.042 18.8637 10.0549 18.8594C10.0678 18.8594 10.1408 18.9754 10.2182 19.1215Z" />
</g>
<defs>
<clipPath id="clip0_100_997">
<rect width="22" height="26"  transform="translate(0 0.359375)"/>
</clipPath>
</defs>
</svg>
