<?xml version="1.0" standalone="no"?>
<!DOCTYPE svg PUBLIC "-//W3C//DTD SVG 20010904//EN"
 "http://www.w3.org/TR/2001/REC-SVG-20010904/DTD/svg10.dtd">
<svg version="1.0" xmlns="http://www.w3.org/2000/svg"
 width="22" height="27" viewBox="0 0 256.000000 256.000000"
 preserveAspectRatio="xMidYMid meet">
<metadata>
Created by potrace 1.16, written by Peter Selinger 2001-2019
</metadata>
<g transform="translate(0.000000,256.000000) scale(0.100000,-0.100000)"
fill="#000000" stroke="none">
<path d="M1177 1949 c-45 -11 -130 -53 -175 -87 -52 -40 -111 -130 -134 -205
-16 -54 -19 -87 -16 -157 l4 -89 -28 52 c-63 114 -148 168 -274 175 -101 5
-164 -13 -234 -69 -148 -117 -167 -348 -41 -486 l29 -32 -32 -21 c-46 -28
-120 -109 -146 -159 -27 -53 -60 -182 -60 -233 l0 -38 1210 0 1210 0 0 43 c0
56 -24 149 -56 214 -29 60 -100 143 -148 173 l-34 20 31 33 c54 58 81 131 82
222 0 71 -4 88 -33 147 -60 122 -166 188 -302 188 -136 0 -242 -66 -302 -188
-29 -59 -33 -76 -33 -147 1 -91 28 -164 82 -222 l30 -32 -23 -16 c-13 -8 -25
-15 -28 -15 -3 0 -29 24 -59 54 -29 30 -73 64 -98 76 -24 12 -46 24 -48 26 -2
2 21 30 52 63 220 239 95 637 -224 710 -53 13 -150 12 -202 0z m240 -114 c98
-44 178 -142 198 -243 7 -32 6 -33 -13 -21 -12 7 -38 39 -58 71 -48 73 -75 77
-122 18 -37 -45 -127 -91 -212 -110 -30 -6 -104 -14 -164 -17 l-109 -6 7 44
c36 225 270 356 473 264z m100 -313 c27 -27 59 -56 72 -65 22 -15 23 -18 11
-49 -38 -93 -121 -173 -214 -204 -72 -24 -185 -15 -254 20 -68 35 -128 95
-158 159 l-24 52 118 6 c64 4 147 14 185 23 72 17 175 64 196 90 8 9 15 16 17
16 2 0 25 -22 51 -48z m-903 12 c55 -19 107 -66 137 -125 26 -53 18 -61 -12
-12 -39 65 -64 69 -110 19 -17 -19 -54 -44 -82 -56 -51 -22 -240 -50 -253 -37
-13 13 19 97 53 137 70 82 166 108 267 74z m1489 4 c50 -15 132 -91 152 -140
8 -21 13 -38 11 -38 -3 0 -19 20 -36 45 -38 56 -68 60 -101 14 -39 -55 -171
-98 -301 -99 -44 0 -48 16 -22 78 47 113 179 175 297 140z m-1137 -309 l45
-46 -65 -42 c-36 -23 -80 -59 -99 -81 -37 -44 -43 -46 -70 -26 -17 13 -16 17
16 59 53 69 72 129 72 222 l-1 81 29 -61 c15 -33 48 -81 73 -106z m-246 48
c50 -46 49 -66 -7 -128 -68 -75 -155 -102 -245 -75 -63 18 -121 64 -148 115
l-19 38 97 6 c102 6 194 32 240 66 15 11 30 19 33 18 4 -1 26 -19 49 -40z
m1499 -1 l43 -44 -17 -36 c-39 -83 -159 -145 -248 -131 -75 13 -132 52 -180
125 -10 13 -17 28 -17 32 0 5 28 8 63 8 87 0 189 24 250 58 29 17 54 30 57 31
3 0 25 -19 49 -43z m-1015 -177 c51 -9 72 -19 43 -19 -21 0 -47 -38 -47 -71 0
-14 8 -37 19 -50 19 -24 18 -25 -14 -128 l-32 -103 -16 40 c-18 44 -51 174
-61 237 -4 22 -9 52 -12 68 -5 22 -1 29 18 36 13 6 30 7 38 5 8 -3 37 -10 64
-15z m250 11 c24 -9 26 -13 20 -52 -13 -87 -43 -215 -65 -272 l-22 -60 -32
105 c-31 102 -32 104 -13 128 32 41 19 104 -25 120 -19 8 -17 10 18 16 31 5
74 16 92 24 1 1 13 -3 27 -9z m-956 -136 c2 -1 -4 -14 -13 -28 -15 -23 -16
-28 -1 -57 15 -30 15 -37 -5 -102 -18 -61 -23 -68 -32 -52 -30 54 -59 229 -41
247 5 5 85 -1 92 -8z m1660 -30 c4 -43 -24 -169 -43 -197 -11 -16 -13 -15 -23
10 -30 79 -33 99 -18 129 15 29 12 74 -5 74 -5 0 -9 5 -9 11 0 5 4 8 8 5 5 -3
22 -1 38 4 42 12 49 8 52 -36z"/>
</g>
</svg>
