<svg width="22" height="27" viewBox="0 0 22 27" fill="none" xmlns="http://www.w3.org/2000/svg">
<g clip-path="url(#clip0_82_5440)">
<path d="M2.72422 5.79695C1.80469 6.02898 0.971094 6.70789 0.55 7.56726C0.326562 8.02273 0.300781 8.16023 0.300781 8.93367C0.300781 9.70711 0.326562 9.84461 0.55 10.3001C1.03125 11.2798 2.03672 11.993 3.10234 12.122C4.82109 12.3196 6.48828 10.9618 6.6 9.26883C6.62578 8.86492 6.6 8.71883 6.48828 8.60711C6.15312 8.27195 5.80937 8.52976 5.71484 9.19148C5.55156 10.3774 4.58047 11.2196 3.40312 11.2024C1.71875 11.1766 0.661719 9.4407 1.40937 7.91961C2.04531 6.61336 3.80703 6.23523 4.90703 7.17195L5.19922 7.42117L4.40859 8.21179L3.61797 9.01101L3.05937 8.4782C2.75859 8.18601 2.45781 7.94539 2.38906 7.94539C2.17422 7.94539 1.89062 8.21179 1.89062 8.40945C1.89062 8.6157 3.41172 10.1798 3.61797 10.1798C3.67812 10.1798 4.43437 9.47508 5.30234 8.60711C7.00391 6.91414 7.09844 6.76804 6.6 6.49304C6.38516 6.37273 6.35078 6.37273 6.11016 6.5532L5.85234 6.74226L5.39687 6.39851C5.14766 6.20945 4.76953 5.99461 4.55469 5.92586C4.07344 5.75398 3.15391 5.69383 2.72422 5.79695Z" />
<path d="M9.87419 5.90039C8.01794 6.55351 7.16716 8.6332 8.04373 10.3691C8.83435 11.9246 10.6734 12.5605 12.2461 11.8215C13.2344 11.3574 13.9734 10.3176 14.0679 9.25195C14.1109 8.83086 14.0851 8.73633 13.939 8.59883C13.5609 8.26367 13.1484 8.60742 13.1484 9.24336C13.1484 9.86211 12.5297 10.6785 11.8164 11.0051C10.364 11.6926 8.59373 10.5496 8.59373 8.93398C8.59373 8.15195 9.06638 7.35273 9.77966 6.93164C10.132 6.73398 10.2781 6.69961 10.8711 6.69961C11.6187 6.69961 11.9711 6.81992 12.4094 7.22382L12.65 7.45586L11.8508 8.25508L11.0515 9.05429L10.4758 8.50429C10.1578 8.19492 9.83982 7.9457 9.77966 7.9457C9.5906 7.9457 9.36716 8.22929 9.36716 8.46133C9.36716 8.69336 10.6734 10.0512 10.9828 10.1371C11.1633 10.1887 11.3867 9.99961 12.7273 8.66758C13.5695 7.82539 14.2914 7.06914 14.3172 6.9832C14.3773 6.78554 14.2226 6.51054 13.9992 6.44179C13.8789 6.39883 13.7328 6.44179 13.5609 6.5707L13.3031 6.75976L12.9679 6.48476C12.0656 5.76289 10.8969 5.53945 9.87419 5.90039Z" />
<path d="M17.5227 5.83165C16.6375 6.06368 15.8125 6.78556 15.4 7.67071C15.2023 8.08321 15.168 8.28087 15.168 8.93399C15.168 9.63868 15.1938 9.76759 15.4516 10.2832C16.1133 11.6238 17.5484 12.3543 18.9492 12.0707C20.3328 11.7871 21.3469 10.6871 21.5359 9.25196C21.5789 8.88243 21.5617 8.79649 21.407 8.64181C21.0375 8.27227 20.6852 8.53009 20.5992 9.21759C20.4703 10.3176 19.6367 11.0996 18.5023 11.1941C16.3969 11.3574 15.2367 8.73634 16.7664 7.28399C17.6258 6.46759 19.0523 6.4504 19.8773 7.24102L20.1094 7.46446L19.3187 8.26368L18.5281 9.05431L17.9523 8.50431C17.6344 8.19493 17.3164 7.94571 17.2391 7.94571C17.0586 7.94571 16.7578 8.25509 16.7578 8.43556C16.7578 8.5129 17.1188 8.94259 17.5656 9.38946C18.2531 10.077 18.4078 10.1887 18.5797 10.1371C18.6828 10.1027 19.4477 9.41524 20.2641 8.59884C21.8625 7.0004 21.9742 6.81134 21.5188 6.51915C21.3125 6.38165 21.2953 6.38165 21.0547 6.56212C20.7453 6.78556 20.6937 6.78556 20.4875 6.56212C19.8773 5.89181 18.5281 5.55665 17.5227 5.83165Z" />
<path d="M2.72422 14.6484C1.80469 14.8804 0.971094 15.5594 0.55 16.4187C0.326562 16.8742 0.300781 17.0117 0.300781 17.7851C0.300781 18.5586 0.326562 18.6961 0.55 19.1601C1.5125 21.1195 3.97031 21.5922 5.62031 20.1398C6.47969 19.3836 6.96094 17.5445 6.35078 17.3554C6.03281 17.2523 5.78359 17.5101 5.72344 18.0172C5.61172 18.8765 5.00156 19.6672 4.23672 19.9422C3.84141 20.0797 3.05937 20.0883 2.68984 19.9508C1.76172 19.607 1.16875 18.7648 1.16875 17.7851C1.16875 16.8054 1.76172 15.9633 2.68984 15.6195C3.36016 15.3789 4.35703 15.5594 4.90703 16.0234L5.19922 16.2726L4.40859 17.0633L3.61797 17.8625L3.05937 17.3297C2.75859 17.0375 2.45781 16.7969 2.38906 16.7969C2.17422 16.7969 1.89062 17.0633 1.89062 17.2609C1.89062 17.4672 3.41172 19.0312 3.61797 19.0312C3.67812 19.0312 4.43437 18.3265 5.30234 17.4586C7.00391 15.7656 7.09844 15.6195 6.6 15.3445C6.38516 15.2242 6.35078 15.2242 6.11016 15.4047L5.85234 15.5937L5.39687 15.25C5.14766 15.0609 4.76953 14.8461 4.55469 14.7773C4.07344 14.6054 3.15391 14.5453 2.72422 14.6484Z" />
<path d="M10.2266 14.6744C9.24688 14.958 8.49922 15.5767 8.09531 16.4361C7.88906 16.8658 7.86328 17.0291 7.86328 17.7853C7.86328 18.5416 7.88906 18.7049 8.09531 19.1346C8.68828 20.4064 10.1664 21.1971 11.4984 20.9478C13.0367 20.6557 14.0766 19.5127 14.1625 17.9916C14.2656 16.1525 13.0109 14.726 11.1719 14.5971C10.8539 14.5799 10.45 14.6143 10.2266 14.6744ZM11.6961 15.6111C12.5039 15.8861 13.0711 16.5392 13.2516 17.4072C13.3289 17.7939 13.3203 17.9572 13.2086 18.3525C12.9164 19.3494 12.2031 19.9596 11.232 20.0369C10.2266 20.1228 9.47891 19.7275 8.99766 18.8682C8.31875 17.665 8.92031 16.1096 10.2523 15.6197C10.6133 15.4908 11.3266 15.4822 11.6961 15.6111Z" />
<path d="M18.0811 14.6828C17.8061 14.8031 17.6944 15.018 17.3678 16.0406L17.2647 16.35L16.4483 16.3844C15.6405 16.4102 15.6233 16.4188 15.3741 16.6938C14.9186 17.2008 15.0561 17.6047 15.8983 18.2149C16.2248 18.4469 16.4998 18.6703 16.4998 18.6961C16.4998 18.7219 16.4053 19.0313 16.285 19.375C16.01 20.1828 16.0186 20.3461 16.3194 20.6813C16.6459 21.0508 17.11 21.068 17.5655 20.7242C17.7373 20.5953 18.0037 20.3977 18.1584 20.2774L18.442 20.0711L19.035 20.4922C19.7139 20.9906 19.9287 21.068 20.2897 20.9219C20.8397 20.6899 20.917 20.2774 20.5819 19.2977L20.3756 18.6789L21.003 18.2149C21.6647 17.725 21.742 17.6219 21.742 17.218C21.742 16.5992 21.3639 16.3672 20.3498 16.3672H19.628L19.3873 15.6281C19.1897 15.018 19.1037 14.8633 18.8803 14.7258C18.5623 14.5367 18.442 14.5281 18.0811 14.6828ZM18.6912 16.4531C18.8287 16.8656 18.9834 17.175 19.078 17.2266C19.1639 17.2781 19.5592 17.3125 19.9459 17.3125H20.6506L20.0748 17.7508C19.7569 17.9914 19.4733 18.2492 19.4475 18.3266C19.3959 18.4383 19.4991 18.9195 19.7483 19.7531C19.7827 19.8734 19.6795 19.8305 19.3272 19.5727C18.4506 18.9281 18.4764 18.9281 17.6428 19.5211C17.342 19.7274 17.1014 19.8649 17.1014 19.8219C17.1014 19.7789 17.1787 19.5211 17.2733 19.2461C17.4537 18.7305 17.4881 18.3695 17.3764 18.2063C17.342 18.1547 17.067 17.9313 16.7577 17.7164L16.2077 17.3125H16.9209C17.3077 17.3125 17.703 17.2781 17.7889 17.2266C17.8834 17.175 18.0381 16.8656 18.1756 16.4531C18.3045 16.075 18.4162 15.7656 18.4334 15.7656C18.4506 15.7656 18.5623 16.075 18.6912 16.4531Z" />
</g>
<defs>
<clipPath id="clip0_82_5440">
<rect width="22" height="26"  transform="translate(0 0.359375)"/>
</clipPath>
</defs>
</svg>
