<svg width="22" height="27" viewBox="0 0 22 27" fill="none" xmlns="http://www.w3.org/2000/svg">
<g clip-path="url(#clip0_7_419)">
<path d="M8.47344 3.82031C7.93203 3.95781 7.15859 4.42188 6.78047 4.82578C6.59141 5.03203 6.30781 5.46172 6.16172 5.77969C5.9125 6.30391 5.88672 6.43281 5.88672 7.18047C5.88672 7.95391 5.90391 8.03125 6.20469 8.65C6.59141 9.43203 7.08984 9.91328 7.88906 10.2914C8.41328 10.5406 8.54219 10.5664 9.28125 10.5664C10.0203 10.5664 10.1492 10.5406 10.6734 10.2914C11.4727 9.91328 11.9711 9.43203 12.3578 8.65C12.6586 8.03125 12.6758 7.95391 12.6758 7.17188C12.6758 6.38984 12.6586 6.3125 12.3578 5.69375C11.7734 4.525 10.7422 3.82891 9.47031 3.76875C9.10938 3.75156 8.6625 3.77734 8.47344 3.82031Z" />
<path d="M7.99216 11.4258C4.7781 12.1133 2.55232 14.8805 2.13982 18.6961C2.04529 19.5039 2.05388 19.6586 2.157 19.7274C2.39763 19.8821 4.10779 20.5696 4.89841 20.8274C5.34529 20.9821 6.19607 21.2055 6.78904 21.3258C7.73435 21.5321 8.04372 21.5579 9.36716 21.5493C10.8625 21.5407 11.6617 21.4547 11.6273 21.3C11.6187 21.2571 11.507 20.9735 11.3781 20.6641C10.4156 18.3438 11.4383 15.6539 13.6984 14.5625C14.0851 14.3735 14.4718 14.2188 14.5492 14.2188C14.7726 14.2188 14.7297 14.0899 14.3515 13.6602C13.4922 12.6719 12.1601 11.8211 10.957 11.5032C10.2437 11.3141 8.68825 11.2711 7.99216 11.4258Z" />
<path d="M14.7897 14.8719C12.6155 15.4562 11.2663 17.7164 11.8163 19.8477C12.3921 22.0477 14.6436 23.4141 16.8007 22.8555C18.8374 22.3227 20.178 20.3547 19.8772 18.3094C19.5335 15.8773 17.11 14.2445 14.7897 14.8719ZM15.0991 17.4758L15.9413 18.4984L17.1788 18.5328C18.2444 18.5586 18.4249 18.5758 18.5108 18.7047C18.5796 18.8164 18.5796 18.9023 18.5108 19.0055C18.4249 19.143 18.2358 19.1602 17.0327 19.1859L15.6577 19.2031L14.721 18.0859C14.214 17.4672 13.7843 16.9086 13.7671 16.8312C13.7241 16.6594 13.9046 16.4531 14.0936 16.4531C14.1882 16.4531 14.5921 16.8656 15.0991 17.4758Z" />
</g>
<defs>
<clipPath id="clip0_7_419">
<rect width="22" height="26"  transform="translate(0 0.359375)"/>
</clipPath>
</defs>
</svg>
