<svg version="1.0" xmlns="http://www.w3.org/2000/svg" width="22" height="26" viewBox="0 0 256.000000 256.000000" preserveAspectRatio="xMidYMid meet">
                                        <metadata>
                                            Created by potrace 1.16, written by Peter Selinger 2001-2019
                                        </metadata>
                                        <g transform="translate(0.000000,256.000000) scale(0.100000,-0.100000)" fill="#000000" stroke="none">
                                            <path d="M435 2551 c-11 -5 -31 -21 -45 -36 l-25 -27 -3 -1076 -2 -1077 167
                                        -167 168 -168 717 2 718 3 32 33 33 32 0 1210 0 1210 -33 32 -32 33 -838 2
                                        c-460 1 -846 -2 -857 -6z m955 -185 c21 -13 48 -42 61 -63 22 -35 24 -49 24
                                        -163 0 -114 -2 -128 -24 -163 -13 -21 -42 -50 -64 -65 -34 -22 -52 -27 -106
                                        -27 -79 0 -128 25 -169 88 -23 35 -27 52 -30 141 -2 58 1 119 7 144 14 51 75
                                        117 123 131 53 16 135 6 178 -23z m-333 -451 l21 -34 -36 -12 c-20 -6 -45 -19
                                        -56 -28 -41 -36 -46 -62 -46 -256 l0 -185 27 0 c25 0 93 -52 93 -72 0 -4 -32
                                        -8 -71 -8 -65 0 -73 2 -100 29 l-29 29 0 204 c0 176 3 208 19 243 20 44 59 84
                                        106 108 41 22 47 21 72 -18z m521 16 c20 -11 49 -32 64 -48 52 -55 58 -85 58
                                        -303 l0 -202 -29 -29 c-27 -27 -35 -29 -100 -29 -39 0 -71 3 -71 7 0 4 14 22
                                        32 40 21 22 41 33 60 33 l28 0 0 185 c0 194 -5 220 -46 256 -11 9 -36 22 -56
                                        28 l-36 12 21 34 c12 19 26 34 30 35 4 0 24 -9 45 -19z m-244 -362 c30 -56 30
                                        -57 85 -63 94 -11 104 -39 38 -104 l-43 -43 9 -59 c7 -45 7 -63 -3 -75 -18
                                        -21 -35 -19 -91 12 l-49 26 -49 -26 c-56 -31 -73 -33 -91 -12 -10 12 -10 30
                                        -3 75 l9 59 -43 43 c-67 65 -56 93 39 104 52 6 57 9 73 43 48 102 74 106 119
                                        20z m560 -472 c8 -12 8 -22 0 -35 -10 -16 -52 -17 -609 -20 -616 -2 -625 -2
                                        -625 37 0 41 0 41 623 39 559 -3 601 -4 611 -21z m0 -160 c8 -12 8 -22 0 -35
                                        -10 -16 -52 -17 -609 -20 -616 -2 -625 -2 -625 37 0 41 0 41 623 39 559 -3
                                        601 -4 611 -21z m0 -200 c8 -12 8 -22 0 -35 -10 -16 -52 -17 -609 -20 -616 -2
                                        -625 -2 -625 37 0 41 0 41 623 39 559 -3 601 -4 611 -21z m0 -160 c8 -12 8
                                        -22 0 -35 -10 -16 -52 -17 -609 -20 -616 -2 -625 -2 -625 37 0 41 0 41 623 39
                                        559 -3 601 -4 611 -21z"></path>
                                        </g>
                                    </svg>