<svg width="22" height="27" viewBox="0 0 22 27" fill="none" xmlns="http://www.w3.org/2000/svg">
<g clip-path="url(#clip0_7_397)">
<path d="M10.205 2.40239C8.38743 2.72895 6.92649 4.05669 6.48392 5.77973C6.35501 6.26958 6.31634 6.96137 6.31634 8.74887V10.4375H5.36673C4.29681 10.4375 4.09915 10.4676 3.59212 10.7254C3.17962 10.9317 2.72845 11.3829 2.5222 11.7954C2.21712 12.3969 2.23431 12.0961 2.23431 17.3985C2.23431 22.7008 2.21712 22.4 2.5222 23.0016C2.72845 23.4141 3.17962 23.8653 3.59212 24.0715C4.20228 24.3809 3.69524 24.3594 10.9999 24.3594C18.3046 24.3594 17.7976 24.3809 18.4077 24.0715C18.8202 23.8653 19.2714 23.4141 19.4777 23.0016C19.7827 22.4 19.7656 22.7008 19.7656 17.3985C19.7656 13.1961 19.757 12.5903 19.6968 12.3582C19.4648 11.4645 18.7386 10.7383 17.8449 10.5063C17.6128 10.4461 17.0113 10.4375 12.8261 10.4375H8.06946L8.08665 8.46958C8.10814 6.28676 8.10814 6.27388 8.40892 5.66802C8.62376 5.23403 9.17376 4.67973 9.61204 4.452C10.4671 4.00512 11.5413 4.00512 12.3921 4.452C12.8347 4.68833 13.3804 5.24263 13.5867 5.66802C13.8488 6.20942 13.8788 6.38989 13.8788 7.53286V8.54692H14.764H15.6492L15.632 7.33091C15.6148 6.26098 15.6019 6.08052 15.5202 5.78833C15.1593 4.47348 14.287 3.41645 13.0839 2.82778C12.3964 2.49262 11.9753 2.39809 11.1288 2.38091C10.7378 2.37231 10.3253 2.38091 10.205 2.40239ZM17.5827 12.2981C17.7159 12.3754 17.8277 12.4872 17.905 12.6204L18.0253 12.8223V17.3985V21.9747L17.905 22.1766C17.8277 22.3098 17.7159 22.4215 17.5827 22.4989L17.3808 22.6192H10.9999H4.61907L4.41712 22.4989C4.28392 22.4215 4.1722 22.3098 4.09485 22.1766L3.97454 21.9747V17.3985V12.8223L4.09056 12.6204C4.21946 12.4012 4.4429 12.2422 4.67923 12.195C4.76517 12.1778 7.65696 12.1692 11.1074 12.1735L17.3808 12.1778L17.5827 12.2981Z" />
<path d="M10.437 14.7301C10.1234 14.8547 9.84837 15.0738 9.6722 15.3402C9.45736 15.6625 9.3972 15.8945 9.41439 16.3328C9.43587 16.7711 9.57337 17.0848 9.88275 17.3941L10.089 17.6004L10.1062 18.6273C10.1191 19.607 10.1234 19.6629 10.2222 19.8605C10.2867 19.9895 10.3855 20.1098 10.4972 20.1828C10.6476 20.2816 10.7163 20.2988 10.9999 20.2988C11.3738 20.2988 11.5456 20.2129 11.7347 19.9422C11.8378 19.7918 11.8378 19.7703 11.8507 18.7176L11.8636 17.6434L12.0913 17.4156C12.2202 17.2953 12.3749 17.0805 12.4437 16.9387C12.5554 16.7109 12.5683 16.6465 12.5683 16.2383C12.5683 15.8301 12.5554 15.7613 12.448 15.5422C12.2933 15.2242 12.014 14.9449 11.696 14.7902C11.4898 14.6871 11.391 14.6699 11.0429 14.6613C10.7249 14.6527 10.5917 14.6656 10.437 14.7301Z" />
</g>
<defs>
<clipPath id="clip0_7_397">
<rect width="22" height="26"  transform="translate(0 0.359375)"/>
</clipPath>
</defs>
</svg>
