<svg width="22" height="27" viewBox="0 0 22 27" fill="none" xmlns="http://www.w3.org/2000/svg">
<g clip-path="url(#clip0_111_8002)">
<path d="M12.2936 4.12805C12.1968 4.17205 12.1 4.33485 12.1 4.44925C12.1 4.48005 12.1528 4.56805 12.2144 4.64285C12.276 4.71765 12.3112 4.77925 12.2892 4.77925C12.2716 4.77925 12.0472 4.81005 11.7964 4.84525C9.93518 5.10925 8.21918 5.95405 6.85078 7.28285C6.21718 7.89445 5.64078 8.64685 5.21838 9.40805C5.09518 9.62805 5.06878 9.71165 5.11278 9.72485C5.14358 9.73365 5.29318 9.78205 5.44278 9.83045L5.71998 9.92285L5.95758 9.51365C6.79358 8.09685 8.02118 6.97045 9.51278 6.25325C10.3092 5.87045 11.2508 5.58885 12.034 5.50085L12.298 5.47005L12.2144 5.56685C12.012 5.79125 12.1616 6.14325 12.4608 6.14325C12.5928 6.14325 13.8336 5.45245 13.9392 5.31605C14.0272 5.20165 14.0052 4.98165 13.8952 4.88045C13.7368 4.73965 12.5532 4.07525 12.4652 4.07965C12.4212 4.07965 12.342 4.10165 12.2936 4.12805Z" />
<path d="M19.404 7.67007C19.2588 7.72287 19.184 7.83287 19.184 7.98687C19.184 8.11447 19.2368 8.21127 19.4524 8.47527C20.2268 9.43887 20.7548 10.4729 21.054 11.6257C21.3884 12.9149 21.384 14.4901 21.0452 15.8013C20.2972 18.6789 17.952 21.0021 15.0832 21.6973C12.6984 22.2781 10.2564 21.8161 8.27201 20.4081C7.59001 19.9241 6.53401 18.8461 6.25241 18.3445C6.21281 18.2741 6.18641 18.2785 5.90041 18.4193C5.72881 18.4985 5.58801 18.5777 5.58801 18.5865C5.58801 18.5953 5.72881 18.7933 5.90481 19.0265C6.29201 19.5501 6.97841 20.2629 7.48001 20.6633C9.23121 22.0581 11.5324 22.7753 13.684 22.5993C17.9036 22.2561 21.1816 19.2509 21.8988 15.0533C22.0044 14.4373 22.0044 12.9325 21.8988 12.3253C21.6172 10.7061 20.9484 9.20567 19.9804 8.03527C19.69 7.68327 19.5712 7.60847 19.404 7.67007Z" />
<path d="M3.29118 10.3235C1.79078 10.5787 0.589576 11.6611 0.158376 13.1439C-0.422424 15.1591 0.734776 17.3283 2.72798 17.9707C3.85438 18.3315 5.12598 18.1687 6.10278 17.5307C7.34798 16.7167 8.06078 15.2163 7.87598 13.7775C7.76158 12.8315 7.38758 12.0747 6.70998 11.4015C5.97958 10.6711 4.99838 10.2751 3.93798 10.2839C3.69598 10.2883 3.40558 10.3059 3.29118 10.3235ZM4.18438 12.0791C4.28998 12.1627 4.28998 12.1803 4.30318 13.0251L4.31638 13.8875H5.14358C5.89158 13.8875 5.98398 13.8963 6.07638 13.9711C6.21718 14.0855 6.21718 14.3495 6.07638 14.4639C5.98398 14.5387 5.89158 14.5475 5.14358 14.5475H4.31638L4.30318 15.4099C4.28998 16.2547 4.28998 16.2723 4.18438 16.3559C4.04358 16.4703 3.84558 16.4615 3.71798 16.3295C3.60798 16.2239 3.60798 16.2151 3.60798 15.3835V14.5475H2.77198C1.94038 14.5475 1.93158 14.5475 1.82598 14.4375C1.68518 14.3011 1.68518 14.1339 1.82598 13.9975C1.93158 13.8875 1.94038 13.8875 2.77198 13.8875H3.60798V13.0515C3.60798 12.2199 3.60798 12.2111 3.71798 12.1055C3.84558 11.9735 4.04358 11.9647 4.18438 12.0791Z" />
<path d="M16.5132 10.4421C16.3944 10.5345 15.8752 10.9525 15.3648 11.3749L14.432 12.1405L14.5772 12.2989C14.652 12.3869 14.7488 12.5057 14.7884 12.5673L14.8588 12.6729L15.0744 12.5013C16.28 11.5377 17.1556 10.7853 17.1776 10.6973C17.2128 10.5609 17.1424 10.3849 17.0324 10.3277C16.8784 10.2441 16.7332 10.2749 16.5132 10.4421Z" />
<path d="M12.8216 12.3472C12.1748 12.4792 11.7568 12.9544 11.7128 13.6056C11.6864 14.0324 11.7788 14.3008 12.0604 14.6088C12.3464 14.9256 12.628 15.0488 13.068 15.0488C13.3408 15.0532 13.442 15.0312 13.6488 14.93C13.9348 14.7892 14.1812 14.534 14.3132 14.2436C14.3836 14.0896 14.41 13.9532 14.41 13.6892C14.41 13.28 14.3176 13.038 14.0624 12.7564C13.7852 12.4484 13.2308 12.268 12.8216 12.3472Z" />
<path d="M19.03 13.4694C18.898 13.597 18.8892 13.795 19.0036 13.9358C19.0828 14.037 19.118 14.0414 19.7032 14.0546C20.3632 14.0722 20.4512 14.0502 20.5744 13.8654C20.658 13.7378 20.6316 13.575 20.504 13.4474C20.4248 13.3682 20.3544 13.3594 19.778 13.3594C19.1532 13.3594 19.1312 13.3638 19.03 13.4694Z" />
<path d="M17.1819 17.9134C16.9927 18.0982 17.0323 18.1994 17.4679 18.6702C17.8815 19.119 17.9959 19.207 18.1631 19.2114C18.3127 19.2114 18.4799 19.0222 18.4799 18.8506C18.4799 18.7274 18.4183 18.6438 18.0223 18.2566C17.6351 17.8738 17.5427 17.8034 17.4283 17.8034C17.3359 17.8034 17.2479 17.843 17.1819 17.9134Z" />
<path d="M12.8083 19.6777C12.7247 19.7833 12.7159 19.8537 12.7159 20.3817C12.7159 21.0109 12.7511 21.1517 12.9227 21.2309C13.0855 21.3057 13.1515 21.2925 13.2923 21.1517L13.4199 21.0241V20.3993C13.4199 19.8009 13.4155 19.7745 13.3099 19.6733C13.1603 19.5193 12.9315 19.5237 12.8083 19.6777Z" />
</g>
<defs>
<clipPath id="clip0_111_8002">
<rect width="22" height="26"  transform="translate(0 0.359375)"/>
</clipPath>
</defs>
</svg>
