<svg width="22" height="27" viewBox="0 0 22 27" fill="none" xmlns="http://www.w3.org/2000/svg">
<g clip-path="url(#clip0_83_8654)">
<path d="M12.7336 4.62541C11.99 4.78821 11.4004 5.31181 11.1276 6.05541C11.022 6.33701 11.022 6.36781 11.022 7.85941C11.022 9.35101 11.022 9.38181 11.1276 9.66341C11.3476 10.2706 11.7128 10.6666 12.3112 10.9482L12.672 11.1198V11.8238C12.672 12.5982 12.6984 12.7082 12.936 12.981C13.1604 13.2362 13.3892 13.333 13.75 13.333C14.1108 13.333 14.3308 13.2406 14.5684 12.9766C14.652 12.8842 14.9908 12.4398 15.3296 11.9822L15.9368 11.1594H16.8476C17.4548 11.1594 17.8508 11.1374 18.0444 11.0978C18.8848 10.9174 19.536 10.275 19.734 9.43461C19.822 9.04741 19.8264 6.73741 19.7384 6.31501C19.558 5.47461 18.9156 4.82341 18.0752 4.62541C17.6924 4.53741 13.1472 4.53301 12.7336 4.62541Z" />
<path d="M6.97397 8.50185C6.82877 8.53705 6.54277 8.64705 6.34037 8.74385C5.83437 8.99025 5.28877 9.52705 5.02917 10.0374C4.72557 10.6226 4.62437 11.2034 4.70797 11.815C4.80477 12.5234 5.06877 13.0558 5.56597 13.5574C6.60437 14.5958 8.18837 14.7454 9.41157 13.9138C10.0012 13.5134 10.4632 12.8402 10.6304 12.1494C10.7272 11.749 10.7272 11.089 10.6348 10.7194C10.4192 9.88345 9.79437 9.09585 9.06397 8.74825C8.85717 8.64705 8.56237 8.53705 8.40397 8.50185C8.04757 8.41825 7.32597 8.41825 6.97397 8.50185Z" />
<path d="M3.43199 15.6296C2.93919 15.7616 2.51239 16.14 2.32319 16.6064C2.23079 16.8352 2.22199 16.9188 2.22639 17.6052C2.23079 18.2828 2.23959 18.3884 2.34959 18.7404C2.84239 20.3728 4.23719 21.5608 6.15999 21.9876C7.33479 22.2472 8.69439 22.1856 9.83399 21.8248C11.616 21.2616 12.8964 19.8932 13.156 18.274C13.1868 18.0848 13.2044 17.702 13.1912 17.3764C13.178 16.8396 13.1648 16.7868 13.0328 16.514C12.8568 16.1576 12.5048 15.8232 12.1528 15.6824L11.902 15.5812L7.78799 15.5724C4.26799 15.5636 3.63879 15.5724 3.43199 15.6296Z" />
</g>
<defs>
<clipPath id="clip0_83_8654">
<rect width="22" height="26"  transform="translate(0 0.359375)"/>
</clipPath>
</defs>
</svg>
