<svg width="22" height="27" viewBox="0 0 22 27" fill="none" xmlns="http://www.w3.org/2000/svg">
<g clip-path="url(#clip0_54_4158)">
<path d="M9.96852 3.58828C8.95446 3.88047 8.0779 4.61094 7.69118 5.4875C7.1068 6.81094 7.22712 8.66719 7.99196 10.1797C8.12946 10.4375 8.44743 10.9617 8.71383 11.3398C9.21227 12.0445 9.3154 12.457 9.10915 12.8438C9.06618 12.9297 8.31852 13.3508 7.45915 13.7805C4.97555 15.0094 4.2193 15.6969 4.14196 16.8055C4.07321 17.7336 4.40837 18.2664 5.34508 18.7391C5.72321 18.9281 6.91774 19.2891 7.16696 19.2891C7.21852 19.2891 7.40758 19.0055 7.57946 18.6617C7.75993 18.318 8.09508 17.7937 8.33571 17.5016L8.77399 16.9602L8.59352 16.6766C8.33571 16.2469 8.36149 15.7484 8.67087 15.4047L8.92008 15.1211H10.9912H13.0623L13.2857 15.3445C13.6037 15.6711 13.6638 16.2555 13.4146 16.6594L13.2256 16.9602L13.6638 17.5016C13.9045 17.7937 14.2396 18.318 14.4201 18.6617C14.6006 19.0227 14.7896 19.2891 14.867 19.2891C15.0732 19.2891 16.2591 18.9711 16.5857 18.8336C17.0841 18.6187 17.5826 18.2148 17.7287 17.8883C17.892 17.5445 17.9177 16.7539 17.7888 16.2641C17.6857 15.9031 17.067 15.1813 16.5427 14.8203C16.0787 14.5023 14.8326 13.8836 14.0162 13.5656C12.581 13.0156 12.4607 12.4312 13.492 11.0391C14.2912 9.96484 14.6951 8.74453 14.6951 7.42969C14.6951 5.65937 14.0677 4.49922 12.7529 3.85469C12.1599 3.5625 12.0482 3.52812 11.2318 3.50234C10.6904 3.48516 10.2091 3.51953 9.96852 3.58828Z" />
<path d="M9.18649 15.9031C9.10055 16.0148 9.11774 16.1094 9.33259 16.5047L9.5818 16.9688H10.9998H12.4177L12.667 16.5047C13.0623 15.7742 13.0451 15.7656 10.9998 15.7656C9.56462 15.7656 9.28102 15.7828 9.18649 15.9031Z" />
<path d="M8.98038 17.8454C7.96632 19.0313 7.36476 20.8962 7.64835 21.9532C7.77726 22.4431 8.2671 22.9329 8.76554 23.0876C9.30694 23.2423 12.6929 23.2423 13.2343 23.0876C13.9648 22.8642 14.4374 22.1681 14.4374 21.3001C14.4374 20.372 13.7757 18.722 13.0538 17.8884L12.7015 17.4845H10.9999H9.29835L8.98038 17.8454ZM12.203 18.6532C12.203 18.7478 12.0054 19.0743 11.9108 19.1345C11.8593 19.1688 11.6702 19.2032 11.4898 19.2032C11.2921 19.2032 11.1804 19.2376 11.2148 19.2892C11.2405 19.3321 11.4812 19.3751 11.739 19.3751C11.9968 19.3751 12.203 19.3923 12.203 19.4181C12.203 19.4524 12.1429 19.5813 12.0741 19.7188C11.9624 19.9337 11.8851 19.9767 11.6273 19.9767C11.378 19.9767 11.2577 20.0368 11.0515 20.2603C10.9054 20.4235 10.7249 20.5696 10.6562 20.5954C10.5702 20.6212 10.6905 20.8188 11.1116 21.3087C11.4296 21.6782 11.6874 22.0134 11.6874 22.0563C11.6874 22.0907 11.5327 22.1251 11.3523 22.1251C11.0429 22.1251 10.9827 22.0821 10.4069 21.4032C9.94288 20.8446 9.79679 20.6126 9.79679 20.4149C9.79679 20.1829 9.83116 20.1485 10.0374 20.1485C10.1663 20.1485 10.3296 20.1056 10.3983 20.0626C10.4929 20.0024 10.4499 19.9767 10.2093 19.9767C9.82257 19.9767 9.73663 19.8649 9.9171 19.5899C10.0202 19.4353 10.1405 19.3751 10.3382 19.3751C10.5444 19.3751 10.5788 19.3493 10.4843 19.2892C10.4155 19.2462 10.2523 19.2032 10.1233 19.2032C9.82257 19.2032 9.75382 19.0743 9.9171 18.8165C10.0546 18.6103 10.089 18.6017 11.1288 18.6017C11.7218 18.6017 12.203 18.6274 12.203 18.6532Z" />
</g>
<defs>
<clipPath id="clip0_54_4158">
<rect width="22" height="26"  transform="translate(0 0.359375)"/>
</clipPath>
</defs>
</svg>
