<svg width="22" height="27" viewBox="0 0 22 27" fill="none" xmlns="http://www.w3.org/2000/svg">
<g clip-path="url(#clip0_111_7964)">
<path d="M7.60553 2.42969C6.39381 2.61875 4.79537 3.26328 3.78131 3.98516C3.5235 4.16562 3.02506 4.60391 2.67271 4.93906C-2.07104 9.63125 -0.206192 17.5891 6.14459 19.7633C8.80006 20.6656 11.9712 20.1586 14.2399 18.457L14.7383 18.0789L17.8751 21.207C20.7196 24.0516 21.0462 24.3438 21.2954 24.3438C21.6735 24.3438 22.0001 24.0172 22.0001 23.6391C22.0001 23.3898 21.7079 23.0633 18.8633 20.2188L15.7352 17.082L16.1133 16.5836C16.3196 16.3086 16.6462 15.7672 16.8438 15.3977C19.5165 10.2672 16.7149 4.0625 11.0774 2.61016C10.2524 2.39531 8.44771 2.30078 7.60553 2.42969ZM10.2696 3.84766C13.1571 4.35469 15.4774 6.51172 16.268 9.43359C16.5344 10.4133 16.5344 12.1492 16.268 13.1289C14.7212 18.8352 7.75162 20.7516 3.60943 16.6094C0.644589 13.6531 0.644589 8.90937 3.60943 5.95312C5.37975 4.18281 7.79459 3.41797 10.2696 3.84766Z" />
<path d="M8.03518 8.40252C7.57971 8.55721 7.08127 9.13299 6.9094 9.68299C6.69456 10.3705 6.65159 11.7369 6.82346 12.5103C7.12424 13.8338 8.06096 14.5299 9.13518 14.2033C10.1235 13.9111 10.5703 13.0002 10.5703 11.2814C10.5703 9.61424 10.1406 8.69471 9.20393 8.37674C8.82581 8.24784 8.46487 8.24784 8.03518 8.40252ZM8.99768 9.43377C9.30706 9.64862 9.40159 10.1127 9.39299 11.3244C9.39299 12.1408 9.35862 12.5275 9.25549 12.7596C9.00627 13.3439 8.38752 13.4127 8.10393 12.8885C7.91487 12.5447 7.83752 10.5681 7.99221 10.0096C8.15549 9.37362 8.57659 9.13299 8.99768 9.43377Z" />
<path d="M4.8125 8.57422C4.72656 8.67734 4.68359 9.2875 4.64922 10.9203L4.59766 13.1289L4.34844 13.1547C4.02188 13.1977 3.92734 13.0773 3.86719 12.5875L3.82422 12.1836H3.30859H2.79297L2.80156 12.6305C2.82734 13.55 3.49766 14.2031 4.41719 14.2031C5.01016 14.2031 5.40547 13.9883 5.58594 13.5672C5.71484 13.2664 5.74063 12.8711 5.76641 10.8516L5.80078 8.48828L5.3625 8.4625C5.04453 8.44531 4.89844 8.47109 4.8125 8.57422Z" />
<path d="M11.5071 8.47969C11.4899 8.49687 11.4727 9.76875 11.4813 11.2984L11.4899 14.0742H12.6414C13.9219 14.0656 14.2829 13.9539 14.7211 13.4297C15.2539 12.8023 15.2454 11.7281 14.7125 11.2469C14.5321 11.0922 14.5321 11.0922 14.7039 10.8602C15.2539 10.1125 14.7383 8.80625 13.793 8.53984C13.475 8.45391 11.5844 8.40234 11.5071 8.47969ZM13.5954 9.62266C13.793 9.79453 13.8016 10.3102 13.6039 10.525C13.5094 10.6367 13.3461 10.6797 13.0454 10.6797H12.6329V10.0781V9.47656H13.0368C13.286 9.47656 13.4922 9.52812 13.5954 9.62266ZM13.75 11.8398C13.8704 11.9516 13.9219 12.1062 13.9219 12.3727C13.9219 12.9055 13.7157 13.0859 13.1055 13.0859H12.6329V12.3469V11.6078L13.1055 11.6422C13.3977 11.668 13.6383 11.7453 13.75 11.8398Z" />
</g>
<defs>
<clipPath id="clip0_111_7964">
<rect width="22" height="26"  transform="translate(0 0.34375)"/>
</clipPath>
</defs>
</svg>
