<svg width="22" height="27" viewBox="0 0 22 27" fill="none" xmlns="http://www.w3.org/2000/svg">
<g clip-path="url(#clip0_100_1032)">
<path d="M9.16515 2.38103C8.97819 2.43755 8.74776 2.59407 8.65211 2.72451C8.60428 2.79407 8.47819 3.11146 8.36515 3.42885C8.25211 3.75059 8.15211 4.02451 8.13472 4.0419C8.12167 4.05494 7.97385 4.03755 7.80428 4.00277C7.40863 3.92016 6.22602 3.94625 5.8608 4.05059C4.4608 4.43755 3.44341 5.32016 2.90428 6.60712C2.83037 6.78103 2.72602 7.13755 2.67385 7.40277L2.58254 7.88103L2.39124 7.91581C2.24776 7.94625 2.14776 8.00712 1.97819 8.18103C1.78689 8.37233 1.73906 8.45059 1.69124 8.65929C1.58254 9.15059 1.77384 9.62885 2.17384 9.85059C2.34341 9.9419 2.39558 9.99407 2.41298 10.0984C2.42167 10.168 2.5608 11.7332 2.71732 13.5767C3.25211 19.8376 3.29993 20.2941 3.40428 20.5071C3.59558 20.8897 3.03471 20.8593 9.63906 20.8593H15.4695L15.6043 20.7462C15.6782 20.6854 15.8217 20.4941 15.9304 20.3245C16.2347 19.8376 16.4521 19.2593 16.7478 18.1419L16.8086 17.9245L17.5912 17.9202C18.7695 17.9071 19.1782 17.7767 19.7173 17.2332C20.2086 16.7376 20.3912 16.2941 20.3912 15.5984C20.3912 14.9245 20.1825 14.4028 19.7304 13.9549C19.2434 13.4636 18.7825 13.2941 17.9478 13.2941H17.3912V12.6506C17.3912 12.2984 17.3738 11.9897 17.3565 11.9636C17.2652 11.8202 17.1434 11.8158 14.1782 11.8158C11.8391 11.8158 11.2173 11.8028 11.2173 11.7593C11.2173 11.7332 11.2478 11.3202 11.2912 10.8462L11.3652 9.98103L11.4999 9.91581C11.8738 9.72885 12.0999 9.36798 12.0999 8.95929C12.0999 8.40711 11.8912 8.13755 11.2956 7.90711C11.1956 7.86798 11.1738 7.8332 11.1738 7.72016C11.1738 7.49842 11.013 6.88972 10.8695 6.54625C10.5086 5.69842 9.88254 5.02016 8.89993 4.40277C8.83906 4.36364 8.85211 4.29842 9.02602 3.81581C9.29558 3.07668 9.29124 3.07668 9.98254 3.07668C10.5086 3.07668 10.5304 3.07233 10.6391 2.96364C10.7347 2.86798 10.7478 2.82451 10.726 2.67233C10.6825 2.36798 10.613 2.33755 9.89559 2.3419C9.5608 2.3419 9.23037 2.35929 9.16515 2.38103ZM7.69558 4.77233C8.37819 4.93755 9.09558 5.36364 9.53906 5.86798C9.97819 6.36364 10.3434 7.10712 10.4173 7.65929L10.4478 7.85929H6.89558H3.34776L3.37385 7.67233C3.49124 6.88103 4.01732 5.99407 4.68689 5.45929C5.53906 4.78538 6.66515 4.52885 7.69558 4.77233ZM11.2782 8.72451C11.413 8.85494 11.426 9.02451 11.3043 9.15494C11.2521 9.20712 11.1999 9.25059 11.1825 9.25494C11.1651 9.25494 9.28254 9.26364 6.99993 9.27233C4.3608 9.28103 2.78689 9.27233 2.68254 9.24625C2.4608 9.18972 2.3608 9.0332 2.43471 8.85929C2.54776 8.58538 2.31298 8.59842 6.94341 8.61146L11.1651 8.62016L11.2782 8.72451ZM10.6086 10.0419C10.6086 10.0723 10.5782 10.4854 10.5347 10.9549L10.4608 11.8158H9.25211H8.03906L7.92602 11.9289L7.81732 12.0419L7.84341 12.7419C7.93906 15.0897 8.21732 17.1941 8.60428 18.5202L8.69124 18.8158H6.29993C4.42167 18.8158 3.91298 18.8028 3.91298 18.7593C3.91298 18.7332 3.88254 18.3854 3.84776 17.9897C3.81298 17.5941 3.78254 17.2593 3.78254 17.2376C3.78254 17.2202 4.23906 17.2071 4.79558 17.2071C5.67819 17.2071 5.82602 17.1941 5.97819 17.1245C6.19993 17.0245 6.41732 16.781 6.47385 16.568C6.53906 16.3419 6.53906 12.2897 6.47385 12.0636C6.41732 11.8506 6.19993 11.6071 5.97819 11.5071C5.82167 11.4332 5.6695 11.4245 4.53906 11.4245H3.27385L3.22167 10.8028C3.19124 10.4636 3.1608 10.1419 3.14776 10.0854L3.13037 9.98972H6.8695C9.83037 9.98972 10.6086 10.0028 10.6086 10.0419ZM5.71298 12.2593C5.77385 12.3462 5.78254 12.6158 5.78254 14.3462C5.78254 16.281 5.77819 16.3419 5.69558 16.4245C5.61298 16.5071 5.55211 16.5115 4.65211 16.5115H3.69558V16.4071C3.69558 16.3506 3.61732 15.3767 3.52167 14.2462C3.42602 13.1115 3.34776 12.181 3.34776 12.1767C3.34776 12.168 3.86515 12.1636 4.49558 12.1636C5.63471 12.1636 5.64776 12.1636 5.71298 12.2593ZM16.6086 12.5854C16.6043 12.881 16.5043 14.4376 16.4521 14.9462C16.2304 17.181 15.8347 18.8158 15.2956 19.7723L15.1086 20.0984L12.5999 20.1115L10.0912 20.1202L10.0086 20.0028C9.32602 19.0332 8.79993 16.6158 8.63037 13.6636C8.61732 13.4245 8.59558 13.0767 8.58254 12.8897L8.55645 12.5549H12.5825C14.7956 12.5549 16.6086 12.568 16.6086 12.5854ZM18.6782 14.181C19.1738 14.4289 19.4695 14.8202 19.5738 15.3723C19.7043 16.0723 19.2043 16.868 18.4825 17.1071C18.2825 17.1723 18.1217 17.1854 17.5912 17.1767C17.2347 17.1723 16.9391 17.1593 16.9304 17.1549C16.926 17.1462 16.9434 17.0028 16.9782 16.8376C17.0521 16.4332 17.1565 15.5984 17.2391 14.7593C17.2738 14.381 17.3173 14.0506 17.3304 14.0245C17.3521 13.9941 17.5304 13.9854 17.8608 14.0028C18.3217 14.0245 18.3869 14.0376 18.6782 14.181ZM9.07819 19.8376L9.21732 20.1202H6.60863H3.99993V19.9984C3.99993 19.9332 3.98689 19.8071 3.97385 19.7158L3.94341 19.5549H6.44341H8.93906L9.07819 19.8376Z" />
<path d="M6.09576 5.38118C5.46098 5.5464 4.83489 5.98988 4.48272 6.51596C4.29141 6.80292 4.26968 6.92466 4.36968 7.12031C4.49576 7.36379 4.87402 7.32901 5.04359 7.05944C5.17402 6.84205 5.61315 6.4464 5.85228 6.32466C6.11315 6.19422 6.45663 6.09422 6.78272 6.05509C7.12185 6.01596 7.15663 6.00292 7.20881 5.87683C7.28707 5.71162 7.26968 5.5377 7.16968 5.40727C7.08707 5.30292 7.05663 5.29422 6.74794 5.29857C6.56533 5.29857 6.26968 5.3377 6.09576 5.38118Z"/>
<path d="M13.6001 6.41154C13.561 6.45502 13.5175 6.55067 13.5044 6.62458C13.487 6.70719 13.3827 6.85067 13.2305 6.99415C12.9349 7.2811 12.8305 7.49849 12.8262 7.81154C12.8262 8.12893 12.9479 8.36806 13.2436 8.62023C13.3697 8.73328 13.4783 8.85502 13.4783 8.89849C13.4783 8.93763 13.3697 9.07676 13.2349 9.20719C12.9479 9.4898 12.8305 9.71589 12.8262 9.99849C12.8262 10.2724 12.9305 10.3811 13.187 10.3811C13.4088 10.3811 13.5044 10.2985 13.5697 10.0637C13.5957 9.95936 13.6783 9.85067 13.8088 9.74632C14.1088 9.49849 14.2175 9.2811 14.2175 8.92893C14.2175 8.56371 14.1305 8.3898 13.8088 8.09415C13.674 7.96806 13.5653 7.84197 13.5653 7.80719C13.5653 7.77241 13.6827 7.63328 13.8305 7.49415C13.9783 7.35502 14.1218 7.17676 14.1566 7.09415C14.2479 6.87676 14.2349 6.4985 14.1392 6.41154C14.0262 6.31154 13.687 6.31154 13.6001 6.41154Z"/>
<path d="M15.7522 6.97668C15.6305 6.99842 15.5218 7.14625 15.5218 7.28972C15.5218 7.36799 15.4479 7.46799 15.287 7.62016C14.9435 7.9419 14.8696 8.08538 14.8696 8.43755C14.8696 8.80712 14.9348 8.9419 15.2653 9.25494C15.4044 9.38538 15.5218 9.52451 15.5218 9.55929C15.5218 9.59407 15.4001 9.7419 15.2522 9.88538C14.9435 10.1854 14.8696 10.3332 14.8696 10.6593C14.8696 10.9376 14.9609 11.0332 15.2175 11.0332C15.4305 11.0332 15.5479 10.9376 15.5783 10.7462C15.6001 10.6202 15.6696 10.5245 15.8827 10.3202C16.1653 10.0462 16.2609 9.85494 16.2609 9.55059C16.2609 9.2419 16.174 9.06799 15.887 8.79407C15.7131 8.62886 15.6088 8.49407 15.6088 8.43755C15.6088 8.38103 15.6914 8.27233 15.8305 8.15059C16.3305 7.71146 16.4175 7.0419 15.9783 6.97668C15.9088 6.96799 15.8044 6.96799 15.7522 6.97668Z" />
<path d="M0.35212 21.5463C0.0782072 21.6855 0.0216855 21.8072 0.00864198 22.3289C-5.36684e-05 22.7159 0.00864198 22.8202 0.0782072 22.9463C0.195598 23.1681 0.465164 23.2942 0.830381 23.2942C1.21734 23.2942 1.30864 23.3333 1.57821 23.6289C1.93908 24.0246 2.0869 24.155 2.29995 24.2594L2.49995 24.3594H10.9782H19.4565L19.6956 24.2463C19.8739 24.1637 20.026 24.0376 20.2608 23.7811C20.6391 23.3594 20.7608 23.2942 21.1608 23.2942C21.5347 23.2942 21.8043 23.1724 21.9217 22.9463C21.9913 22.8202 21.9999 22.7159 21.9913 22.3289C21.9782 21.8072 21.9217 21.6855 21.6478 21.5463C21.5086 21.4724 20.9086 21.4681 10.9999 21.4681C1.09125 21.4681 0.491251 21.4724 0.35212 21.5463ZM21.2608 22.3333V22.4985L20.9043 22.5246C20.3478 22.5594 20.0826 22.7029 19.726 23.1594C19.3782 23.5985 20.3347 23.555 10.9695 23.555C2.89125 23.555 2.71299 23.555 2.57821 23.4724C2.50429 23.4246 2.36082 23.2811 2.26082 23.1463C1.93038 22.7115 1.64777 22.5594 1.09995 22.5246L0.739077 22.4985V22.3333V22.1637H10.9999H21.2608V22.3333Z" />
</g>
<defs>
<clipPath id="clip0_100_1032">
<rect width="22" height="26" transform="translate(0 0.359375)"/>
</clipPath>
</defs>
</svg>
