<svg width="22" height="27" viewBox="0 0 22 27" fill="none" xmlns="http://www.w3.org/2000/svg">
<g clip-path="url(#clip0_7_404)">
<path d="M12.7617 3.15C12.7273 3.27891 11.7734 7.74766 11.7734 7.81641C11.7734 7.84219 10.6391 7.85938 9.24688 7.85938C7.33047 7.85938 6.70312 7.88516 6.64297 7.9625C6.6 8.02266 6.51406 8.31484 6.4625 8.61562C6.41094 8.91641 6.24766 9.39766 6.11016 9.68125L5.84375 10.2055V16.1523C5.84375 21.5836 5.85234 22.1164 5.98984 22.2195C6.06719 22.2883 6.33359 22.6406 6.59141 23.0016L7.06406 23.6719H11H14.9359L15.4086 23.0016C15.6664 22.6406 15.9328 22.2883 16.0102 22.2195C16.1477 22.1164 16.1562 21.5836 16.1562 16.1523V10.2055L15.8984 9.69844C15.7523 9.42344 15.5891 8.94219 15.5375 8.63281C15.4859 8.32344 15.4 8.02266 15.357 7.9625C15.3055 7.89375 15.0305 7.85938 14.5492 7.85938C13.8359 7.85938 13.8188 7.85078 13.8617 7.66172C13.8875 7.55859 14.0164 6.93984 14.1453 6.28672L14.3773 5.10938H15.7781H17.1875V4.07812V3.04688H14.9961C13.3117 3.04688 12.7875 3.07266 12.7617 3.15ZM16.5 4.07812V4.41328L15.1508 4.43906L13.8016 4.46484L13.4578 6.15781L13.1227 7.85938H12.7875C12.4695 7.85938 12.4438 7.84219 12.4867 7.66172C12.5641 7.38672 13.3203 3.82031 13.3203 3.77734C13.3203 3.75156 14.0336 3.73438 14.9102 3.73438H16.5V4.07812ZM14.8156 8.65C14.8758 8.88203 15.1422 9.71562 15.1852 9.81016C15.2109 9.89609 15.0477 9.92188 14.4891 9.92188H13.75V10.2656V10.6008L14.5492 10.6266L15.3398 10.6523L14.6953 10.9703C13.8273 11.3914 13.0281 11.5547 11.3438 11.6406C10.5617 11.6836 9.83125 11.7437 9.71094 11.7781C8.72266 12.0188 7.45938 12.5602 6.90078 12.9812C6.75469 13.093 6.60859 13.1875 6.58281 13.1875C6.55703 13.1875 6.53125 12.6031 6.53125 11.8984V10.6094H9.28125H12.0312V10.2656V9.92188H9.40156C7.33047 9.92188 6.78047 9.89609 6.81484 9.81016C6.85781 9.71562 7.12422 8.88203 7.18438 8.65C7.21016 8.57266 8.04375 8.54688 11 8.54688C13.9563 8.54688 14.7898 8.57266 14.8156 8.65ZM15.4688 14.8977V18.4211L15.2109 18.6016C14.4203 19.1602 13.2773 19.4437 11.3438 19.5469C10.5617 19.5898 9.83125 19.65 9.71094 19.6844C8.73984 19.925 7.62266 20.3977 6.93516 20.8703C6.75469 20.9906 6.59141 21.0938 6.57422 21.0938C6.54844 21.0938 6.53125 19.5297 6.53125 17.6219V14.15L6.85781 13.8922C7.34766 13.5055 8.06953 13.0672 8.56797 12.8609C9.37578 12.5172 9.99453 12.4055 11.4469 12.3281C13.0539 12.2422 14.1281 12.0273 14.8672 11.6492C15.125 11.5203 15.3656 11.4 15.4086 11.3914C15.443 11.3914 15.4688 12.9641 15.4688 14.8977ZM15.4688 20.4492V21.6094H11.2922H7.10703L7.33047 21.4289C7.69141 21.1539 8.94609 20.5953 9.54766 20.4492C9.84844 20.3719 10.725 20.2773 11.4984 20.2344C13.0625 20.1398 14.1367 19.925 14.8672 19.5555C15.125 19.4266 15.3656 19.3063 15.4086 19.2977C15.443 19.2977 15.4688 19.8133 15.4688 20.4492ZM14.8156 22.6406L14.5836 22.9844H11H7.41641L7.18438 22.6406L6.96094 22.2969H11H15.0391L14.8156 22.6406Z" />
<path d="M10.4242 13.1188C10.3726 13.1789 10.089 13.8836 9.79686 14.6828C9.38436 15.7828 9.27264 16.161 9.34139 16.2727C9.40155 16.3758 9.59061 16.4188 10.0461 16.436L10.6562 16.4617V17.5617C10.6562 18.7219 10.7164 18.911 11.0601 18.8422C11.2234 18.8078 13.7414 14.9578 13.75 14.7258C13.75 14.468 13.5523 14.3906 12.839 14.3906H12.1344L12.2633 13.8321C12.4437 13.05 12.4008 13.0156 11.3437 13.0156C10.7765 13.0156 10.4758 13.05 10.4242 13.1188ZM11.4469 14.2617C11.2836 15.0094 11.3437 15.0781 12.1258 15.0781C12.4523 15.0781 12.7187 15.0953 12.7187 15.1211C12.7187 15.1469 12.418 15.6453 12.057 16.2211L11.3867 17.2696L11.3609 16.625C11.3437 16.2727 11.2922 15.9375 11.2406 15.8774C11.189 15.8086 10.957 15.7656 10.6476 15.7656C10.364 15.7656 10.1406 15.7485 10.1406 15.7313C10.1406 15.6883 10.8367 13.8492 10.8797 13.7719C10.9055 13.7289 11.0687 13.7031 11.2492 13.7031H11.5758L11.4469 14.2617Z" />
<path d="M7.86328 14.1242C7.47656 14.2961 7.26172 14.6398 7.26172 15.0867C7.26172 15.4477 7.30469 15.5422 7.54531 15.7828C7.78594 16.0234 7.88047 16.0664 8.25 16.0664C8.61953 16.0664 8.71406 16.0234 8.95469 15.7828C9.19531 15.5422 9.23828 15.4477 9.23828 15.0781C9.23828 14.7172 9.19531 14.6141 8.97188 14.382C8.68828 14.0984 8.18125 13.9867 7.86328 14.1242Z" />
<path d="M13.3633 16.5305C12.9766 16.7023 12.7617 17.0461 12.7617 17.493C12.7617 17.8539 12.8047 17.9484 13.0453 18.1891C13.2859 18.4297 13.3805 18.4727 13.75 18.4727C14.1195 18.4727 14.2141 18.4297 14.4547 18.1891C14.6953 17.9484 14.7383 17.8539 14.7383 17.4844C14.7383 17.1234 14.6953 17.0203 14.4719 16.7883C14.1883 16.5047 13.6813 16.393 13.3633 16.5305Z" />
</g>
<defs>
<clipPath id="clip0_7_404">
<rect width="22" height="26"  transform="translate(0 0.359375)"/>
</clipPath>
</defs>
</svg>
