<svg width="22" height="27" viewBox="0 0 22 27" fill="none" xmlns="http://www.w3.org/2000/svg">
<g clip-path="url(#clip0_103_6066)">
<path d="M13.8016 2.81648C13.7501 2.86804 13.6856 2.99265 13.6598 3.09577C13.6341 3.2032 13.5954 3.28913 13.5739 3.28913C13.5524 3.28913 13.5352 3.31062 13.5352 3.3364C13.5352 3.4653 13.213 4.10124 13.0368 4.31179C12.8091 4.59109 12.6673 4.69421 12.1989 4.93054C11.8165 5.1196 11.7692 5.20124 11.8595 5.48484C11.9024 5.61804 11.9454 5.66101 12.07 5.69968C12.4009 5.8071 13.0196 6.21101 13.0196 6.31843C13.0196 6.34421 13.0669 6.41296 13.1227 6.47312C13.2087 6.56335 13.4493 7.02312 13.4493 7.09187C13.4493 7.10046 13.4966 7.21218 13.5524 7.33679C13.6083 7.4614 13.6813 7.63757 13.7114 7.7321C13.7501 7.83093 13.8102 7.91257 13.8704 7.93405C14.154 8.04148 14.3602 7.90827 14.4634 7.55163C14.5278 7.3239 14.7985 6.73523 14.9747 6.44734C15.1294 6.19382 15.8427 5.69968 16.0575 5.69538C16.1477 5.69538 16.2852 5.47194 16.2852 5.32585C16.2852 5.15398 16.1778 5.04226 15.9415 4.96491C15.847 4.93484 15.7696 4.89616 15.7696 4.87898C15.7696 4.86179 15.6923 4.81452 15.5934 4.77155C15.168 4.57819 14.7255 3.94655 14.4848 3.17741C14.4118 2.94538 14.3602 2.85945 14.2657 2.80359C14.1024 2.70476 13.9134 2.71335 13.8016 2.81648ZM14.3774 4.65124C14.4333 4.7114 14.4891 4.79304 14.502 4.83171C14.5149 4.87038 14.6481 4.99499 14.8028 5.1153C14.9532 5.23132 15.0821 5.34304 15.0821 5.36023C15.0821 5.37741 15.0434 5.40319 14.9962 5.41609C14.8802 5.45046 14.4118 5.92312 14.3731 6.03484C14.3602 6.0864 14.3302 6.12507 14.3087 6.12507C14.2872 6.12507 14.227 6.2196 14.1755 6.33991C14.0552 6.60632 14.0552 6.60632 13.7329 6.02624C13.6641 5.90163 13.3376 5.57077 13.1571 5.44616L13.0196 5.34304L13.1571 5.23132C13.4407 4.99499 13.7458 4.65554 13.8317 4.47077C13.8833 4.36335 13.9391 4.27741 13.9606 4.27741C13.9821 4.27741 14.0079 4.23444 14.0251 4.17859C14.0466 4.09694 14.0637 4.11413 14.1626 4.31179C14.227 4.44069 14.3216 4.59109 14.3774 4.65124Z" />
<path d="M17.6733 7.08325C17.6432 7.11333 17.5917 7.1563 17.5573 7.18638C17.5229 7.21645 17.4542 7.38403 17.3983 7.5645C17.3467 7.74067 17.2866 7.88677 17.2694 7.88677C17.2479 7.88677 17.235 7.89966 17.2393 7.91684C17.2436 7.93833 17.1835 8.08442 17.1104 8.2477C17.0331 8.41098 16.9729 8.55708 16.9729 8.57427C16.9729 8.59145 16.9257 8.6602 16.8655 8.72895C16.8053 8.7977 16.7581 8.87934 16.7581 8.90942C16.7581 8.98677 16.2725 9.45942 16.105 9.54536C16.0319 9.58403 15.9374 9.64848 15.8944 9.68716C15.8514 9.72583 15.6753 9.80747 15.5034 9.87192C15.2284 9.97505 15.1811 10.0094 15.1339 10.1297C15.0866 10.2715 15.1038 10.4391 15.1768 10.5379C15.1983 10.568 15.31 10.6196 15.426 10.6583C15.5421 10.6969 15.6409 10.7399 15.6495 10.7571C15.6581 10.7743 15.7698 10.843 15.903 10.9118C16.3671 11.1438 16.8741 11.7368 17.1018 12.3083C17.1534 12.4372 17.2393 12.6434 17.2909 12.7594C17.3467 12.8797 17.4198 13.0731 17.4499 13.1891C17.5401 13.5071 17.7807 13.6317 18.0428 13.4985C18.1374 13.4469 18.1803 13.3739 18.2577 13.1118C18.3092 12.9356 18.3694 12.7852 18.3866 12.7766C18.4038 12.768 18.4725 12.6133 18.537 12.4286C18.6057 12.2438 18.6831 12.0676 18.7132 12.0375C18.7432 12.0075 18.8077 11.9086 18.8592 11.8141C19.0182 11.5219 19.0956 11.4188 19.2503 11.2942C19.3319 11.2297 19.4264 11.1438 19.4651 11.1094C19.4995 11.075 19.6456 10.9848 19.7874 10.9161C19.9292 10.843 20.0495 10.7743 20.0581 10.7571C20.0667 10.7399 20.144 10.7055 20.23 10.6754C20.3159 10.6497 20.4405 10.5766 20.5092 10.5165C20.7499 10.2887 20.6081 10.0266 20.1311 9.84184C19.9678 9.77309 19.7745 9.67427 19.71 9.6227C19.6413 9.56684 19.5725 9.51958 19.551 9.51958C19.5339 9.51958 19.4007 9.40786 19.2632 9.27036C18.9925 9.01255 18.6788 8.51841 18.5241 8.10161C18.4725 7.9727 18.4038 7.81802 18.3737 7.75786C18.3393 7.6977 18.2921 7.5645 18.262 7.46138C18.176 7.13481 17.8366 6.91567 17.6733 7.08325ZM17.9225 8.60434C17.9483 8.69458 17.987 8.77622 18.0042 8.78911C18.0214 8.802 18.0987 8.93091 18.176 9.0813C18.4081 9.51958 18.812 9.94497 19.2073 10.177L19.3663 10.2672L19.1987 10.409C19.1042 10.4864 19.0096 10.5508 18.9925 10.5508C18.9323 10.5508 18.3909 11.1223 18.3909 11.1782C18.3909 11.2083 18.3651 11.2512 18.335 11.2684C18.3007 11.2856 18.176 11.4918 18.06 11.7196L17.8409 12.1321L17.7507 11.9344C17.4671 11.3114 17.1233 10.8559 16.7151 10.568C16.2983 10.2758 16.3069 10.2887 16.4917 10.1813C16.6249 10.0997 16.96 9.82466 17.0675 9.70434C17.2393 9.51098 17.4026 9.30903 17.4026 9.28755C17.4026 9.27466 17.4542 9.18013 17.5186 9.077C17.5831 8.97817 17.6303 8.88364 17.626 8.86216C17.6217 8.84497 17.6389 8.83208 17.6604 8.83208C17.6862 8.83208 17.7034 8.81489 17.7034 8.79341C17.7034 8.74184 17.828 8.44536 17.8495 8.44536C17.8624 8.44536 17.8925 8.51841 17.9225 8.60434Z" />
<path d="M4.38711 8.50987C4.31406 8.59581 4.20664 8.75909 4.14648 8.87081C4.09063 8.98683 4.02617 9.08995 4.00469 9.09855C3.9875 9.10284 3.92305 9.19737 3.86289 9.3048C3.68242 9.62706 3.63516 9.7044 3.56211 9.78605C3.52344 9.82901 3.46758 9.91925 3.4375 9.9837C3.40313 10.0482 3.33438 10.1556 3.28711 10.2286C3.23555 10.2974 3.13242 10.4735 3.05078 10.611C2.97344 10.7528 2.87891 10.8989 2.84453 10.9333C2.62109 11.1868 2.40195 11.754 2.52656 11.754C2.54805 11.754 2.58242 11.797 2.6082 11.8485C2.63398 11.9044 2.71133 12.0161 2.78438 12.0978C3.06367 12.42 3.17969 12.5618 3.17969 12.5833C3.17969 12.5962 3.24414 12.6735 3.32148 12.7552C3.39453 12.8368 3.54922 13.0173 3.66094 13.1548C3.77266 13.2923 3.91445 13.4642 3.97461 13.5372C4.03477 13.606 4.15508 13.7521 4.24531 13.8595C4.33555 13.9669 4.47305 14.1388 4.55469 14.2462C4.63633 14.3536 4.76953 14.5169 4.85117 14.6157C5.01445 14.8048 5.16914 14.9853 5.47422 15.3634C5.58164 15.4923 5.71055 15.647 5.76641 15.7071C5.82227 15.763 5.88672 15.8446 5.9082 15.8833C5.93398 15.922 6.03281 16.0466 6.13164 16.1626C6.23047 16.2786 6.42812 16.5192 6.56992 16.6954C6.85781 17.0521 6.99102 17.211 7.27031 17.5333C7.37344 17.6493 7.48516 17.7868 7.51953 17.8298C7.57969 17.9071 7.57969 17.9114 7.47656 17.8556C7.41641 17.8255 7.36055 17.7868 7.34766 17.7739C7.33477 17.7567 7.14141 17.6708 6.91797 17.5763C6.69453 17.486 6.50117 17.3958 6.48828 17.3829C6.47539 17.3657 6.31211 17.2884 6.12305 17.2153C5.93398 17.138 5.7707 17.0607 5.75781 17.0435C5.74492 17.022 5.55156 16.936 5.32812 16.8458C5.10469 16.7556 4.91133 16.6696 4.89844 16.6482C4.88555 16.631 4.72656 16.5579 4.5418 16.4849C4.35703 16.4118 4.16367 16.3259 4.11211 16.2915C3.88008 16.1454 2.99922 16.0853 2.53516 16.1841C2.1957 16.2571 1.61563 16.588 1.32773 16.8716C1.1043 17.095 1.07422 17.1423 1.07422 17.2927C1.07422 17.4517 1.0957 17.4817 1.35352 17.7009C1.50391 17.8298 1.68867 17.9716 1.76172 18.0103C1.83047 18.0532 1.89062 18.1048 1.89062 18.1177C1.89062 18.1349 1.98086 18.2122 2.09688 18.2896C2.20859 18.3626 2.3375 18.4614 2.38477 18.5087C2.50937 18.6247 2.92188 18.9427 3.12812 19.0802C3.22695 19.1446 3.30859 19.2134 3.30859 19.2306C3.30859 19.2478 3.39023 19.3165 3.49336 19.381C3.59219 19.4454 3.7125 19.5357 3.75977 19.5786C3.85859 19.6689 4.24102 19.9696 4.49023 20.1501C4.58477 20.2189 4.68359 20.2962 4.70508 20.3263C4.73086 20.3521 4.83398 20.438 4.94141 20.511C5.15195 20.6657 5.44844 20.8935 5.65039 21.0567C5.72344 21.1169 5.94258 21.2931 6.14453 21.4435C6.34648 21.5982 6.54844 21.7614 6.5957 21.8044C6.64297 21.8431 6.77187 21.9419 6.88359 22.0192C6.99961 22.0923 7.08984 22.1696 7.08984 22.1868C7.08984 22.204 7.17578 22.2728 7.2832 22.3372C7.39062 22.406 7.48945 22.4833 7.51094 22.5091C7.52813 22.5392 7.61836 22.6165 7.71719 22.681C7.81172 22.7454 7.92773 22.8314 7.975 22.8743C8.01797 22.9173 8.15547 23.0161 8.27148 23.0978C8.3918 23.1794 8.49922 23.2696 8.51641 23.2911C8.5293 23.3169 8.68398 23.4028 8.86016 23.4845C9.03203 23.5661 9.18242 23.6478 9.19531 23.665C9.22539 23.7036 9.64219 23.8196 10.0332 23.8927C10.4973 23.9786 10.9484 23.9743 11.4125 23.8755C11.623 23.8282 11.9023 23.7681 12.0312 23.7423C12.1602 23.7122 12.2891 23.6735 12.3105 23.6564C12.3363 23.6392 12.6629 23.5489 13.041 23.463C13.4191 23.3728 13.75 23.2868 13.7715 23.2696C13.7973 23.2525 14.0938 23.1708 14.4375 23.0935C14.7812 23.0118 15.0691 22.9388 15.082 22.9216C15.0949 22.9044 15.4215 22.8185 15.8125 22.7282C16.2035 22.638 16.5301 22.5521 16.543 22.5349C16.5559 22.5177 16.8438 22.4403 17.1875 22.363C17.5312 22.2857 17.8191 22.204 17.8234 22.1868C17.832 22.1696 18.4551 22.1525 19.2027 22.1525C20.6121 22.1525 20.8012 22.131 20.8828 21.9806C20.9645 21.8259 20.9301 21.6368 20.8012 21.5036L20.6766 21.379H19.3059C18.0727 21.379 17.9137 21.3876 17.7031 21.4607C17.5742 21.5036 17.2262 21.5982 16.9297 21.6626C16.6332 21.7314 16.384 21.7958 16.3711 21.813C16.3582 21.8259 16.0488 21.9118 15.6836 21.9978C15.3184 22.0837 14.9789 22.1739 14.9316 22.1954C14.8242 22.247 13.8016 22.4962 13.6984 22.4962C13.6555 22.4962 13.6211 22.5134 13.6211 22.5306C13.6211 22.5521 13.2988 22.6423 12.9035 22.7325C12.5039 22.8271 12.173 22.913 12.1602 22.9302C12.1473 22.9431 11.9539 23.0032 11.7305 23.0591C11.391 23.145 11.2148 23.1622 10.6777 23.1622C10.1191 23.1622 9.99023 23.1493 9.71094 23.0591C9.53477 23.0075 9.38008 22.9474 9.36719 22.9302C9.3543 22.913 9.25977 22.8571 9.15234 22.8056C9.04492 22.754 8.86445 22.6337 8.74844 22.5392C8.63242 22.4446 8.48203 22.3329 8.41758 22.2942C8.34883 22.2513 8.29297 22.204 8.29297 22.1868C8.29297 22.1696 8.21992 22.1095 8.13398 22.0536C8.04375 21.9935 7.91484 21.8989 7.8418 21.8388C7.57539 21.611 7.22734 21.3446 7.05547 21.2286C6.95664 21.1642 6.875 21.0954 6.875 21.0782C6.875 21.061 6.77617 20.9837 6.66016 20.9064C6.53984 20.829 6.42812 20.7474 6.41094 20.7173C6.39375 20.6915 6.30352 20.6142 6.20898 20.5497C6.11445 20.4853 5.89102 20.3177 5.71484 20.1759C5.53867 20.0341 5.30664 19.8579 5.19922 19.7806C5.0918 19.7075 4.99727 19.6259 4.98867 19.6087C4.98438 19.5872 4.90703 19.5271 4.8168 19.4712C4.73086 19.4153 4.60625 19.3208 4.5332 19.2607C4.46445 19.2005 4.24102 19.0243 4.03906 18.8696C3.83711 18.715 3.63516 18.556 3.58789 18.5087C3.54063 18.4657 3.41172 18.3669 3.3 18.2896C3.18398 18.2165 3.09375 18.1349 3.09375 18.1134C3.09375 18.0919 3.05938 18.0661 3.01641 18.0532C2.97344 18.036 2.87031 17.963 2.78438 17.8857C2.70273 17.8126 2.53945 17.6837 2.42344 17.6021C2.30742 17.5204 2.16562 17.4044 2.10547 17.3485C2.00234 17.2454 2.00234 17.2454 2.08398 17.1853C2.13125 17.1509 2.21289 17.1122 2.26875 17.095C2.32031 17.0821 2.36328 17.0564 2.36328 17.0349C2.36328 16.9446 2.84883 16.8587 3.26133 16.8759C3.61367 16.8888 3.7125 16.9103 3.95312 17.0263C4.10781 17.0993 4.33984 17.2067 4.46875 17.2583C4.59766 17.3142 4.71367 17.37 4.72656 17.3829C4.73945 17.4001 4.88555 17.4646 5.04883 17.529C5.21641 17.5978 5.41406 17.6837 5.49141 17.731C5.56875 17.7739 5.7793 17.8728 5.96406 17.9501C6.14453 18.0232 6.30352 18.1005 6.31641 18.1177C6.3293 18.1349 6.50977 18.2165 6.72031 18.3025C6.93516 18.3884 7.11562 18.47 7.12852 18.4915C7.14141 18.5087 7.2918 18.5775 7.46367 18.6462C7.74297 18.7579 7.76445 18.7751 7.72148 18.8482C7.69141 18.8954 7.65703 18.9298 7.63984 18.9298C7.62695 18.9298 7.51953 19.0501 7.40781 19.1962C7.1457 19.54 7.05977 19.8536 7.13711 20.2146C7.20156 20.5239 7.23594 20.5884 7.45078 20.7989C7.90195 21.2286 7.95781 21.2415 9.25977 21.1513C9.80547 21.1126 10.4629 21.061 10.7207 21.0396C11.2191 20.9923 13.8488 20.8204 14.0336 20.8204C14.1539 20.8204 14.3945 20.597 14.3945 20.4853C14.3945 20.322 14.3387 20.2232 14.2055 20.1544C14.0723 20.0814 13.982 20.0814 12.0914 20.1974C11.0086 20.2618 10.0805 20.3306 10.0332 20.3478C9.98594 20.3692 9.56484 20.4079 9.09648 20.4337C8.15547 20.4896 8.06094 20.4767 7.93633 20.2661C7.8332 20.09 7.84609 19.8622 7.96211 19.6946C8.19844 19.3638 8.61094 19.0028 8.82148 18.9513C8.88594 18.9341 8.9375 18.904 8.9375 18.8868C8.9375 18.8653 9.12656 18.7794 9.35859 18.6892C9.58633 18.5989 9.78398 18.513 9.79688 18.4958C9.80977 18.4786 9.98594 18.4013 10.1836 18.3282C10.3855 18.2552 10.5875 18.1692 10.6348 18.1392C10.682 18.1091 10.8969 18.0189 11.1074 17.9415C11.3223 17.8599 11.5328 17.7739 11.5801 17.7439C11.6273 17.7181 11.8594 17.6321 12.0957 17.5548C12.332 17.4775 12.534 17.4001 12.5469 17.3829C12.5598 17.3614 12.7703 17.2884 13.0195 17.211C13.2688 17.138 13.5309 17.0478 13.5996 17.0177C14.098 16.7942 14.9531 16.747 15.6191 16.906C15.8297 16.9575 16.0145 17.0134 16.0273 17.0306C16.0402 17.0478 16.2207 17.1165 16.4313 17.1853C16.6375 17.2583 16.8309 17.3357 16.8609 17.3614C16.8867 17.3872 16.977 17.4345 17.0586 17.4689C17.3035 17.5634 17.6301 17.731 17.6902 17.7954C17.8148 17.9157 18.0898 17.9415 19.3188 17.9415C20.6078 17.9415 20.8012 17.92 20.8828 17.7696C20.9559 17.6321 20.9344 17.3915 20.8398 17.297C20.7582 17.2153 20.698 17.211 19.4863 17.211C18.425 17.211 18.193 17.1982 18.0469 17.1423C17.9523 17.1036 17.875 17.0564 17.875 17.0392C17.875 17.022 17.7074 16.936 17.5012 16.8458C17.2906 16.7556 17.1145 16.6696 17.1016 16.6525C17.0887 16.6353 16.8953 16.5622 16.6719 16.4849C16.4484 16.4075 16.2078 16.3216 16.1348 16.2872C15.6406 16.0638 14.5363 16.0079 13.8359 16.1755C13.6125 16.2271 13.4191 16.2829 13.4062 16.3001C13.3934 16.3173 13.1613 16.3989 12.8906 16.4806C12.6199 16.5579 12.3879 16.6396 12.375 16.6525C12.3621 16.6696 12.1301 16.7556 11.8594 16.8458C11.5887 16.936 11.3566 17.0263 11.3438 17.0435C11.3309 17.0607 11.1461 17.138 10.9355 17.2153C10.7207 17.2927 10.5102 17.3786 10.4629 17.4087C10.4156 17.4388 10.2137 17.5247 10.0117 17.5978C9.81406 17.6708 9.63789 17.7439 9.625 17.761C9.61211 17.7782 9.54766 17.8169 9.4832 17.847L9.35859 17.8985L9.44453 17.7825C9.4918 17.7138 9.58203 17.615 9.64219 17.5591C9.70234 17.4989 9.75391 17.4345 9.75391 17.413C9.75391 17.3915 9.83125 17.2798 9.93008 17.1724C10.1965 16.8716 10.3727 16.661 10.6605 16.3087C10.8023 16.1325 10.9613 15.9392 11.0086 15.879C11.0602 15.8189 11.1676 15.6857 11.2492 15.5782C11.3309 15.4708 11.434 15.3591 11.477 15.329C11.5242 15.2989 11.5586 15.2517 11.5586 15.2259C11.5586 15.2001 11.6402 15.0884 11.7434 14.9724C11.9539 14.736 12.1 14.5599 12.4609 14.1173C12.925 13.5415 13.1227 13.3009 13.2559 13.1505C13.3289 13.0689 13.4664 12.9013 13.5652 12.7767C13.6684 12.6521 13.8875 12.3857 14.0551 12.1837C14.2227 11.9817 14.3773 11.7755 14.3988 11.7239C14.4375 11.6122 14.4031 11.3673 14.3473 11.3673C14.3258 11.3673 14.2699 11.2857 14.2184 11.1825C14.1668 11.0837 14.0336 10.8646 13.9176 10.6927C13.8016 10.5208 13.707 10.3661 13.707 10.3446C13.707 10.3232 13.677 10.2802 13.6426 10.2501C13.6082 10.22 13.5008 10.0567 13.402 9.88058C13.3074 9.7087 13.2129 9.55401 13.1871 9.54112C13.1656 9.52394 13.1012 9.42081 13.041 9.3048C12.9852 9.19308 12.9121 9.07276 12.882 9.03839C12.8176 8.96964 12.7016 8.78487 12.6027 8.58722C12.5641 8.51417 12.4867 8.43253 12.4309 8.40675C12.3578 8.37237 11.1676 8.35948 8.42617 8.35948H4.52031L4.38711 8.50987ZM7.61406 9.1587C7.5625 9.19308 7.51953 9.24894 7.51953 9.27472C7.51953 9.3048 7.44648 9.40792 7.35625 9.50675C7.27031 9.60987 7.15 9.76026 7.08984 9.8419C7.02969 9.92354 6.90938 10.0739 6.82344 10.1771C6.7332 10.2759 6.66016 10.3704 6.66016 10.3876C6.66016 10.4091 6.62148 10.4607 6.57422 10.5079C6.52695 10.5552 6.43672 10.6669 6.36797 10.7614L6.24336 10.9333L5.88242 10.2157C5.68477 9.82042 5.50859 9.48956 5.4957 9.47667C5.46992 9.45519 5.32812 9.14151 5.32812 9.10714C5.32812 9.09855 5.86523 9.08995 6.51836 9.08995C7.60977 9.08995 7.7043 9.09425 7.61406 9.1587ZM11.5113 9.2919C11.4641 9.40792 11.3996 9.52823 11.3695 9.56261C11.3438 9.59698 11.2535 9.76886 11.1719 9.93644C11.0902 10.1083 11.0129 10.2501 11 10.2501C10.9871 10.2501 10.9098 10.4048 10.8281 10.5939C10.6906 10.9204 10.6777 10.9333 10.6047 10.8646C10.5617 10.8259 10.5273 10.7743 10.5273 10.7485C10.5273 10.7228 10.4629 10.6282 10.3813 10.5423C10.2996 10.4564 10.1707 10.2888 10.0934 10.1771C10.0117 10.0653 9.92578 9.95792 9.9 9.94073C9.87422 9.92354 9.79688 9.82901 9.72813 9.73019C9.65938 9.62706 9.56484 9.50245 9.51758 9.45089C9.47031 9.39933 9.38867 9.2962 9.33281 9.22315L9.22969 9.08995H10.4156H11.5973L11.5113 9.2919ZM8.74844 9.67433C9.04922 10.0653 9.26836 10.336 9.46172 10.5681C9.53906 10.6583 9.63359 10.7872 9.67656 10.8474C9.71523 10.9075 9.79688 11.015 9.85703 11.0837C9.91719 11.1525 9.96875 11.2169 9.96875 11.2255C9.96875 11.2298 9.27695 11.2384 8.43477 11.2384C7.58828 11.2384 6.91797 11.2212 6.93945 11.204C6.99531 11.1653 7.46797 10.5767 7.60547 10.379C7.66133 10.2974 7.74297 10.2028 7.78594 10.1728C7.82891 10.1427 7.86328 10.0911 7.86328 10.0653C7.86328 10.0353 7.94492 9.92354 8.04805 9.81183C8.14688 9.70011 8.27148 9.54972 8.32734 9.48097C8.3832 9.40792 8.44336 9.34776 8.46055 9.34776C8.47773 9.34776 8.60664 9.49386 8.74844 9.67433ZM5.07031 10.2372C5.09609 10.2673 5.10039 10.2931 5.0832 10.2931C5.06602 10.2931 5.07031 10.3103 5.09609 10.3275C5.11758 10.3446 5.20352 10.5079 5.28516 10.6884C5.3625 10.8732 5.44414 11.0235 5.45703 11.0235C5.47422 11.0235 5.50859 11.0708 5.53438 11.131L5.58594 11.2384H4.55469H3.52344L3.575 11.131C3.60078 11.0708 3.63945 11.0235 3.65664 11.0235C3.67813 11.0235 3.73398 10.9462 3.78125 10.8517C3.83281 10.7528 3.96602 10.5337 4.08203 10.3575C4.20234 10.1857 4.29688 10.0267 4.29688 10.0052C4.29688 9.9837 4.33555 9.92784 4.37852 9.87628C4.42578 9.82901 4.50313 9.7044 4.55469 9.60128L4.65352 9.41651L4.83828 9.79894C4.93711 10.0138 5.04453 10.2114 5.07031 10.2372ZM12.3578 9.62706C12.3922 9.7087 12.4352 9.77745 12.4566 9.77745C12.4738 9.77745 12.5254 9.8505 12.5727 9.93644C12.6156 10.0267 12.7445 10.2372 12.8605 10.4091C12.9723 10.581 13.0625 10.7357 13.0625 10.7528C13.0625 10.77 13.1184 10.8517 13.1871 10.9333C13.2559 11.015 13.3246 11.1181 13.3332 11.161C13.3547 11.2341 13.3031 11.2384 12.3492 11.2384H11.348L11.709 10.5165C11.9066 10.1212 12.0871 9.77745 12.1043 9.75597C12.1258 9.73019 12.1645 9.66144 12.1902 9.59269C12.259 9.4423 12.2805 9.44659 12.3578 9.62706ZM6.01562 12.2653C6.06289 12.4243 6.10156 12.5704 6.10156 12.5833C6.10156 12.5962 6.12305 12.6607 6.14883 12.7294C6.17461 12.7939 6.1875 12.8497 6.17891 12.854C6.17031 12.854 6.1875 12.8841 6.21328 12.9185C6.24336 12.9528 6.3293 13.1892 6.40234 13.4513C6.47969 13.7091 6.55703 13.9411 6.57422 13.9669C6.5957 13.9884 6.68164 14.2505 6.77187 14.547C6.85781 14.8435 6.94375 15.0927 6.96094 15.1056C6.97383 15.1185 7.05117 15.3505 7.13281 15.6212C7.21016 15.8919 7.2875 16.1239 7.30469 16.1368C7.32188 16.1497 7.34766 16.197 7.36055 16.2442C7.37344 16.2915 7.39492 16.3732 7.41211 16.4247C7.45078 16.5665 7.36914 16.545 7.27461 16.3946C7.23164 16.3259 7.12422 16.1884 7.03398 16.0853C6.94375 15.9821 6.75898 15.7544 6.61289 15.5782C6.47109 15.4021 6.3207 15.2173 6.27773 15.17C6.05859 14.9251 5.71484 14.504 5.71484 14.4782C5.71484 14.461 5.6332 14.3579 5.53438 14.2462C5.32812 14.0185 5.18633 13.8509 4.8082 13.3868C4.58047 13.1032 4.39141 12.8712 4.01328 12.42C3.95312 12.347 3.8457 12.2181 3.77695 12.1278L3.64375 11.9689H4.78672H5.92539L6.01562 12.2653ZM10.1105 12.2997C10.0547 12.4845 9.96445 12.7509 9.90859 12.8927C9.85273 13.0345 9.7625 13.3052 9.71094 13.4942C9.65938 13.6833 9.58203 13.9153 9.53906 14.0099C9.49609 14.1044 9.41016 14.3665 9.3457 14.59C9.28125 14.8134 9.20391 15.0454 9.16953 15.1056C9.13945 15.1657 9.04922 15.4235 8.97617 15.6857C8.89883 15.9435 8.81719 16.197 8.78711 16.2442C8.76133 16.2915 8.67969 16.5235 8.61523 16.7599C8.55078 16.9962 8.47344 17.2067 8.45195 17.2325C8.42188 17.2626 8.42188 17.254 8.44336 17.2153C8.46055 17.1853 8.45625 17.1466 8.43477 17.1294C8.41328 17.1165 8.33164 16.8888 8.2543 16.631C8.17266 16.3689 8.09531 16.1368 8.07812 16.1153C8.04375 16.0681 7.77734 15.2259 7.77734 15.1743C7.77734 15.1528 7.74727 15.0798 7.71289 15.0067C7.63555 14.8306 7.39922 14.1044 7.36484 13.9153C7.35195 13.838 7.32188 13.7735 7.30469 13.7735C7.2875 13.7735 7.21016 13.5544 7.13281 13.288C7.05547 13.0259 6.97813 12.7853 6.96094 12.7638C6.94375 12.738 6.88359 12.5833 6.83633 12.42C6.78477 12.2525 6.7332 12.0849 6.72031 12.0419C6.69883 11.9732 6.80195 11.9689 8.45625 11.9689H10.2137L10.1105 12.2997ZM13.2086 12.0462C13.1613 12.0849 13.1012 12.1536 13.0797 12.1923C13.0582 12.2353 12.968 12.3513 12.8777 12.4501C12.7918 12.5532 12.5941 12.7896 12.4395 12.9786C12.2891 13.1677 12.1258 13.361 12.0828 13.4083C12.0398 13.4556 11.9367 13.5802 11.8551 13.6876C11.7734 13.7907 11.666 13.9153 11.6145 13.9583C11.5586 14.0013 11.5156 14.0571 11.5156 14.0829C11.5156 14.1087 11.4426 14.2118 11.3566 14.3107C11.2664 14.4095 11.1246 14.5728 11.043 14.6759C10.9613 14.7747 10.798 14.9681 10.682 15.1013C10.5703 15.2345 10.4457 15.3892 10.407 15.4493C10.3684 15.5095 10.2738 15.6255 10.1922 15.7071C10.1105 15.7888 10.0203 15.9091 9.99023 15.9692C9.95586 16.0294 9.88281 16.1153 9.82266 16.154C9.7582 16.1927 9.71094 16.2485 9.71094 16.2786C9.71094 16.3087 9.65508 16.3903 9.58203 16.4591C9.44023 16.5966 9.41875 16.5751 9.51758 16.4032C9.55195 16.3388 9.64219 16.0724 9.71523 15.8146C9.79258 15.5525 9.86563 15.3333 9.88281 15.3204C9.9 15.3075 9.97734 15.0755 10.0547 14.8048C10.132 14.5341 10.2223 14.2634 10.2523 14.2032C10.2824 14.1431 10.3598 13.9196 10.4242 13.7091C10.4844 13.4942 10.5703 13.2364 10.6133 13.129C10.6562 13.0216 10.7551 12.7337 10.8324 12.4845C10.9055 12.2353 10.9785 12.0204 10.9871 11.9989C10.9957 11.9817 11.5199 11.9689 12.1516 11.9689C13.243 11.9732 13.2945 11.9732 13.2086 12.0462Z" />
</g>
<defs>
<clipPath id="clip0_103_6066">
<rect width="22" height="26"  transform="translate(0 0.34375)"/>
</clipPath>
</defs>
</svg>
