<svg width="22" height="27" viewBox="0 0 22 27" fill="none" xmlns="http://www.w3.org/2000/svg">
<g clip-path="url(#clip0_100_895)">
<path d="M3.4375 11.7094V20.3633L5.09609 22.0219L6.74609 23.6719H12.6586H18.5625V13.3594V3.04688H11H3.4375V11.7094ZM4.8125 6.20078V8.67578L5.67188 7.81641L6.53125 6.95703L7.39062 7.81641L8.25 8.67578V6.20078V3.73438H13.0625H17.875V13.3594V22.9844H12.4438H7.00391L5.56875 21.5492L4.125 20.1055V11.9242V3.73438H4.46875H4.8125V6.20078ZM7.5625 5.38437V7.03437L7.04688 6.52734L6.53125 6.02031L6.01562 6.52734L5.5 7.03437V5.38437V3.73438H6.53125H7.5625V5.38437Z" />
<path d="M8.9375 5.45312V5.79688H9.79688H10.6562V6.48438V7.17188H9.79688H8.9375V7.51562V7.85938H9.79688H10.6562V13.0156V18.1719H8.07812H5.5V13.557V8.94219L5.15625 9.27734L4.8125 9.6125V14.2359V18.8594H11H17.1875V11.9844V5.10938H13.0625H8.9375V5.45312ZM16.5 6.48438V7.17188H13.9219H11.3438V6.48438V5.79688H13.9219H16.5V6.48438ZM16.5 13.0156V18.1719H13.9219H11.3438V13.0156V7.85938H13.9219H16.5V13.0156Z" />
<path d="M12.0312 8.89062V9.23438H13.9219H15.8125V8.89062V8.54688H13.9219H12.0312V8.89062Z" />
<path d="M12.0312 10.2656V10.6094H13.9219H15.8125V10.2656V9.92188H13.9219H12.0312V10.2656Z" />
<path d="M12.0312 11.6406V11.9844H13.9219H15.8125V11.6406V11.2969H13.9219H12.0312V11.6406Z" />
<path d="M12.0312 13.0156V13.3594H13.9219H15.8125V13.0156V12.6719H13.9219H12.0312V13.0156Z" />
<path d="M12.0312 14.3906V14.7344H13.9219H15.8125V14.3906V14.0469H13.9219H12.0312V14.3906Z" />
<path d="M12.0312 15.7656V16.1094H13.9219H15.8125V15.7656V15.4219H13.9219H12.0312V15.7656Z" />
<path d="M12.0312 17.1406V17.4844H13.9219H15.8125V17.1406V16.7969H13.9219H12.0312V17.1406Z" />
<path d="M6.1875 10.2656V10.6094H8.07812H9.96875V10.2656V9.92188H8.07812H6.1875V10.2656Z" />
<path d="M6.1875 11.6406V11.9844H8.07812H9.96875V11.6406V11.2969H8.07812H6.1875V11.6406Z" />
<path d="M6.1875 13.0156V13.3594H8.07812H9.96875V13.0156V12.6719H8.07812H6.1875V13.0156Z" />
<path d="M6.1875 14.3906V14.7344H8.07812H9.96875V14.3906V14.0469H8.07812H6.1875V14.3906Z" />
<path d="M6.1875 15.7656V16.1094H8.07812H9.96875V15.7656V15.4219H8.07812H6.1875V15.7656Z" />
<path d="M6.1875 17.1406V17.4844H8.07812H9.96875V17.1406V16.7969H8.07812H6.1875V17.1406Z" />
<path d="M4.8125 19.8906V20.2344H5.84375H6.875V21.2656V22.2969H7.21875H7.5625V20.9219V19.5469H6.1875H4.8125V19.8906Z" />
</g>
<defs>
<clipPath id="clip0_100_895">
<rect width="22" height="26"  transform="translate(0 0.359375)"/>
</clipPath>
</defs>
</svg>
