<svg width="22" height="27" viewBox="0 0 22 27" fill="none" xmlns="http://www.w3.org/2000/svg">
<g clip-path="url(#clip0_100_861)">
<path d="M9.86121 2.5184C9.29832 2.54848 9.00613 2.67738 8.79988 2.99535C8.62371 3.25746 8.59363 3.48949 8.59363 4.49926V5.43598L8.26277 5.5391C8.07801 5.59496 7.74285 5.73246 7.51941 5.84418L7.10691 6.04613L6.46668 5.4016C6.11004 5.04496 5.7534 4.7098 5.66746 4.65395C5.4784 4.53793 5.10027 4.46059 4.84676 4.49066C4.74793 4.50356 4.57176 4.56371 4.46434 4.62387C4.20652 4.76137 2.36316 6.61332 2.24285 6.85394C2.07098 7.1934 2.09676 7.71332 2.29441 8.02699C2.35027 8.11293 2.68543 8.47387 3.04207 8.82621L3.6909 9.47504L3.50613 9.81879C3.40731 10.0079 3.26981 10.3387 3.20106 10.5579L3.08074 10.9532H2.13973C1.13426 10.9532 0.89793 10.9832 0.635821 11.1551C0.455352 11.2754 0.274883 11.5204 0.21043 11.7309C0.158868 11.9028 0.14168 14.6786 0.193243 14.9063C0.249102 15.1641 0.511211 15.4864 0.773321 15.6196L1.00965 15.7442L2.0452 15.7571L3.08074 15.77L3.15379 16.0149C3.19676 16.1481 3.26551 16.3371 3.30418 16.4317C3.34715 16.5262 3.4116 16.6809 3.44168 16.7754C3.47606 16.87 3.51473 16.9559 3.52762 16.9688C3.54051 16.9817 3.58348 17.0461 3.62215 17.1192L3.6909 17.2481L2.99051 17.9571C2.37176 18.5844 2.27723 18.6961 2.19129 18.9239C2.10535 19.1602 2.10106 19.2075 2.14402 19.5039C2.1784 19.7188 2.22996 19.8778 2.30301 19.9809C2.39754 20.1227 3.66941 21.4161 4.17645 21.893C4.41277 22.1164 4.70496 22.2282 5.04441 22.2282C5.48699 22.2239 5.64598 22.125 6.42801 21.3473L7.11551 20.6598L7.22723 20.75C7.28738 20.7973 7.36043 20.836 7.38192 20.836C7.4034 20.836 7.5366 20.8875 7.6741 20.952C7.8159 21.0164 8.07371 21.1196 8.24988 21.1797L8.57215 21.2871L8.59363 22.3184C8.61512 23.1864 8.63231 23.3754 8.69676 23.5215C8.79988 23.7493 9.15652 24.0758 9.37996 24.1446C9.51316 24.1832 9.96004 24.2004 11.0514 24.1961C12.7315 24.1918 12.71 24.1961 13.0452 23.8653C13.3889 23.5215 13.4061 23.4399 13.4061 22.2883V21.2743L13.5264 21.2442C13.5909 21.227 13.6854 21.2055 13.737 21.1969C13.7886 21.1883 14.0721 21.068 14.3643 20.9262L14.8929 20.677L15.5975 21.3774C16.3753 22.1551 16.4655 22.211 16.9811 22.2239C17.4452 22.2368 17.5827 22.1422 18.6999 21.0207C19.7999 19.9164 19.8729 19.809 19.8643 19.3407C19.8514 18.825 19.7956 18.7348 19.0179 17.9571L18.3175 17.2524L18.5667 16.7282C18.7042 16.4403 18.8245 16.1567 18.8374 16.1008C18.846 16.0493 18.8675 15.9504 18.8846 15.8817L18.9147 15.7657H19.9288C21.0847 15.7657 21.1663 15.7442 21.51 15.3918C21.8366 15.0567 21.8323 15.0868 21.8366 13.411C21.8409 12.3196 21.8237 11.8727 21.785 11.7395C21.7163 11.5161 21.3897 11.1594 21.162 11.0563C21.0159 10.9918 20.8268 10.9746 19.9589 10.9532L18.9276 10.9317L18.8159 10.6094C18.7557 10.4332 18.6526 10.1754 18.5925 10.0336C18.528 9.89613 18.4764 9.76293 18.4764 9.74145C18.4764 9.71996 18.4378 9.64691 18.3905 9.58676L18.3003 9.47504L18.9878 8.78754C19.7784 7.99691 19.8686 7.84652 19.8643 7.38676C19.86 6.87973 19.7999 6.79379 18.7429 5.73246C18.2186 5.20824 17.7159 4.72699 17.63 4.66684C17.5182 4.58949 17.3636 4.53793 17.1444 4.50356C16.8479 4.46059 16.8007 4.46488 16.5643 4.55082C16.3366 4.63676 16.2249 4.73129 15.5975 5.34574L14.8886 6.04613L14.7511 5.97738C14.6737 5.93871 14.6093 5.89574 14.6093 5.87426C14.6093 5.85707 14.5835 5.83988 14.5491 5.83988C14.5147 5.83988 14.3643 5.78402 14.2139 5.71957C14.0679 5.65512 13.8229 5.56488 13.6768 5.52191L13.4104 5.44027L13.3975 4.40473L13.3846 3.36918L13.26 3.13285C13.1225 2.86215 12.796 2.60004 12.5425 2.55277C12.3964 2.52699 10.2866 2.50121 9.86121 2.5184ZM11.9882 5.28559V6.61332H12.0999C12.246 6.61332 13.1741 6.85824 13.3374 6.93988C13.4061 6.96996 13.4835 7.00004 13.5136 7.00004C13.621 7.00004 14.8241 7.63598 14.996 7.78637C15.0432 7.82504 15.1163 7.85942 15.1593 7.85942C15.1979 7.85942 15.6362 7.45551 16.1346 6.95707L17.037 6.05473L17.6987 6.72504L18.3647 7.39535L17.4194 8.31059L16.4784 9.22152L16.603 9.47504C16.6761 9.61684 16.7534 9.75004 16.7835 9.78012C16.8952 9.89184 17.4624 11.125 17.5011 11.3399C17.5139 11.4 17.5526 11.5418 17.5913 11.6621C17.6257 11.7782 17.6643 11.9329 17.6772 12.0059C17.6858 12.0746 17.7116 12.1993 17.7245 12.2723L17.7589 12.4141H19.0608H20.3671V13.3809V14.3477H19.0651H17.7675L17.7073 14.5926C17.6772 14.7301 17.6429 14.8891 17.63 14.9493C17.5956 15.1469 17.4366 15.6539 17.3593 15.8301C17.312 15.9246 17.2003 16.1739 17.1014 16.3887C17.0069 16.5993 16.8307 16.9215 16.7147 17.102C16.5944 17.2782 16.4999 17.4457 16.4999 17.4758C16.4999 17.5016 16.8952 17.9184 17.3807 18.3996C17.8663 18.8809 18.2616 19.2934 18.2616 19.3149C18.2616 19.3664 17.0069 20.6211 16.9554 20.6211C16.9339 20.6211 16.5214 20.2258 16.0401 19.7403C15.5589 19.2547 15.1421 18.8594 15.1163 18.8594C15.0905 18.8594 14.8714 18.9754 14.635 19.1172C14.3944 19.2547 14.085 19.4223 13.9432 19.4825C13.8014 19.5469 13.5866 19.6414 13.4663 19.6973C13.2257 19.809 12.8346 19.925 12.3018 20.0454L11.9452 20.127V21.4246V22.7266H10.9999H10.0546V21.4204V20.1141L9.77098 20.0668C9.61629 20.0368 9.40145 19.9852 9.29402 19.9508C9.1866 19.9121 9.0577 19.8778 9.01043 19.8649C8.88152 19.8434 8.61942 19.7532 8.57215 19.7188C8.55066 19.7059 8.43465 19.6543 8.31434 19.6114C8.0952 19.5297 7.46356 19.1989 7.34754 19.1C7.31316 19.07 7.19285 19.0012 7.08113 18.9411L6.87488 18.8379L5.95535 19.7575L5.03582 20.6727L4.38699 20.0325C4.03035 19.6801 3.73816 19.375 3.73816 19.3493C3.73816 19.3278 4.14637 18.9024 4.64051 18.4082C5.13895 17.9141 5.54285 17.4844 5.54285 17.4543C5.54285 17.4286 5.52566 17.3985 5.50418 17.3899C5.43113 17.3641 4.68348 15.9891 4.68348 15.8817C4.68348 15.8516 4.6534 15.7743 4.61473 15.7012C4.52449 15.5293 4.35262 14.8934 4.27957 14.4637L4.24949 14.3047H2.92176H1.59402L1.59832 13.3594L1.60262 12.4141H2.90457C4.35691 12.4141 4.21941 12.4485 4.27957 12.0918C4.29676 11.9973 4.32254 11.8899 4.33973 11.8555C4.36121 11.8211 4.38699 11.7223 4.39988 11.6407C4.46434 11.2325 4.86824 10.3086 5.29363 9.59965C5.40535 9.41059 5.49988 9.24301 5.49988 9.22582C5.49988 9.20863 5.09168 8.78754 4.58895 8.2891L3.67801 7.38246L4.35262 6.71215L5.02293 6.03754L5.92957 6.94848C6.42801 7.45121 6.86199 7.85942 6.88777 7.85942C6.91785 7.85942 7.05535 7.79066 7.19715 7.70473C8.05223 7.1848 8.74832 6.89262 9.61199 6.69496L10.0546 6.59184V5.27699V3.96645L11.0214 3.95785L11.9882 3.95355V5.28559Z" />
<path d="M10.3338 9.27734C9.68063 9.37187 8.93727 9.70273 8.44313 10.1109C7.71266 10.7211 7.33883 11.2668 7.04235 12.1777C6.81891 12.8609 6.82321 13.8621 7.05524 14.6055C7.28297 15.3531 7.81149 16.1223 8.40016 16.5734C8.54196 16.6809 8.66656 16.784 8.67946 16.7969C8.77399 16.9172 9.7193 17.3254 10.033 17.3812C10.4927 17.4672 10.6861 17.4844 11.0857 17.4844C11.4509 17.4844 11.6271 17.4586 12.0095 17.3555C12.2716 17.2824 12.5209 17.218 12.5638 17.2051C12.7228 17.1664 13.2857 16.8184 13.6123 16.5562C13.797 16.4102 14.0634 16.1437 14.2052 15.9633C14.463 15.6367 14.8068 15.0781 14.8455 14.9234C14.8584 14.8805 14.9228 14.627 14.9959 14.3691C15.1677 13.7418 15.172 13.2219 15.0216 12.3926C14.9658 12.0789 14.5576 11.1336 14.4373 11.0391C14.4244 11.0262 14.3213 10.9016 14.2138 10.7598C13.6295 9.99492 12.6541 9.43203 11.6572 9.28164C11.322 9.23008 10.6732 9.23008 10.3338 9.27734ZM11.9365 10.8672C12.3748 11.0434 12.5509 11.1637 12.9205 11.5418C13.4576 12.0918 13.6939 12.7277 13.6509 13.5055C13.6166 14.1328 13.4791 14.498 13.0966 14.975C12.5595 15.641 11.9537 15.9633 11.1459 16.0105C10.3681 16.0535 9.73219 15.8172 9.18219 15.2801C8.80406 14.9105 8.68375 14.7344 8.50328 14.2875C8.38297 13.9824 8.37008 13.8922 8.36149 13.4711C8.35719 12.9254 8.38297 12.7406 8.50758 12.4055C8.81266 11.5934 9.67633 10.8586 10.4584 10.7512C10.5572 10.7383 10.6431 10.7211 10.656 10.7082C10.6689 10.6953 10.888 10.6953 11.1416 10.7125C11.5197 10.7297 11.6658 10.7598 11.9365 10.8672Z" />
</g>
<defs>
<clipPath id="clip0_100_861">
<rect width="22" height="26"  transform="translate(0 0.359375)"/>
</clipPath>
</defs>
</svg>
