<svg width="22" height="27" viewBox="0 0 22 27" fill="none" xmlns="http://www.w3.org/2000/svg">
<g clip-path="url(#clip0_100_957)">
<path d="M10.7635 2.83631C10.1405 2.89646 9.26392 3.08553 8.58072 3.30896C5.22486 4.40467 2.66822 7.30076 1.98072 10.7726C1.83033 11.5246 1.79165 12.0961 1.81744 13.1101C1.85181 14.5926 2.02798 15.4691 2.52212 16.6336L2.71978 17.0976L1.56822 20.359C0.498295 23.3969 0.420951 23.6332 0.468217 23.7535C0.498295 23.8222 0.579936 23.9039 0.644389 23.9297C0.756108 23.9769 1.06548 23.8824 4.13345 22.8597C5.9854 22.241 7.52369 21.7383 7.55376 21.7383C7.58814 21.7383 7.83306 21.8242 8.09947 21.9316C9.19517 22.3656 10.1491 22.5547 11.3995 22.5847C12.71 22.6191 13.6596 22.4859 14.8413 22.0949C17.3249 21.2742 19.4174 19.4394 20.5819 17.0762C22.0944 14.0082 21.9096 10.3558 20.1049 7.46404C19.3358 6.23513 18.1713 5.06639 16.9467 4.30154C15.1163 3.15857 12.912 2.63865 10.7635 2.83631ZM12.6241 3.51951C13.8186 3.65271 14.8327 3.9492 15.8682 4.47342C18.137 5.62498 19.8213 7.64021 20.5389 10.0551C21.3167 12.6762 20.8913 15.5508 19.4002 17.7851C17.9006 20.0281 15.6018 21.4762 12.9335 21.85C12.276 21.9445 11.0514 21.9445 10.4198 21.85C9.5647 21.7211 8.75689 21.4933 7.96626 21.1496L7.61392 20.9992L4.49009 22.039C2.77564 22.6105 1.36197 23.0703 1.35337 23.0617C1.34478 23.0531 1.79165 21.7597 2.34595 20.1914C2.90025 18.6187 3.3772 17.2652 3.40298 17.1793C3.44595 17.0332 3.43306 16.9902 3.28697 16.6851C2.87447 15.8129 2.65962 15.0523 2.53501 14.0254C2.45767 13.3937 2.46626 12.066 2.5522 11.4558C2.94751 8.65427 4.57173 6.20935 7.00376 4.75701C8.64517 3.77732 10.7335 3.31756 12.6241 3.51951Z" />
<path d="M6.03291 9.02814C5.98135 9.04962 5.91689 9.11837 5.89111 9.17423C5.82666 9.32032 5.82666 12.4098 5.89111 12.5559C5.97275 12.7406 6.08877 12.7578 7.15439 12.7578C8.09111 12.7578 8.16416 12.7621 8.16416 12.8352C8.16416 13.007 8.07393 13.6215 8.01377 13.8578C7.91494 14.2317 7.70869 14.6484 7.52822 14.8332C7.36494 15.0051 7.10283 15.1641 6.98682 15.1641C6.8665 15.1641 6.71182 15.2586 6.66455 15.366C6.6001 15.5078 6.6001 17.4414 6.66455 17.5875C6.74189 17.7551 6.91377 17.8024 7.31338 17.7637C9.09658 17.609 10.3384 16.4102 10.8927 14.3047C11.1247 13.4152 11.1419 13.209 11.1591 11.1981C11.1806 9.18712 11.1763 9.11837 10.9743 9.02384C10.8325 8.95939 6.16611 8.96368 6.03291 9.02814ZM10.4845 11.2109C10.4845 12.8781 10.4458 13.3465 10.2438 14.1156C10.0032 15.0567 9.65947 15.7012 9.11377 16.2383C8.62822 16.7195 8.14697 16.9645 7.46807 17.0762L7.30479 17.102V16.4402V15.7785L7.51533 15.6797C7.91924 15.4906 8.29736 15.0395 8.5208 14.4766C8.74854 13.9008 8.92471 12.5688 8.81299 12.2938C8.72705 12.0875 8.63252 12.0703 7.54111 12.0703H6.53135V10.8672V9.66407H8.50791H10.4845V11.2109Z" />
<path d="M12.9938 9.02814C12.9423 9.04962 12.8778 9.11837 12.8521 9.17423C12.7876 9.32032 12.7876 12.4098 12.8521 12.5559C12.9337 12.7406 13.0497 12.7578 14.1153 12.7578C15.0521 12.7578 15.1251 12.7621 15.1251 12.8352C15.1251 13.007 15.0349 13.6215 14.9747 13.8578C14.8759 14.2317 14.6696 14.6484 14.4892 14.8332C14.3259 15.0051 14.0638 15.1641 13.9478 15.1641C13.8274 15.1641 13.6728 15.2586 13.6255 15.366C13.561 15.5078 13.561 17.4414 13.6255 17.5875C13.7028 17.7551 13.8747 17.8024 14.2743 17.7637C16.0489 17.609 17.3036 16.4016 17.845 14.3262C18.0856 13.4109 18.1028 13.2176 18.12 11.1981C18.1415 9.18712 18.1372 9.11837 17.9353 9.02384C17.7935 8.95939 13.1271 8.96368 12.9938 9.02814ZM17.4454 11.2109C17.4454 12.8781 17.4067 13.3465 17.2048 14.1156C16.9642 15.0567 16.6204 15.7012 16.0747 16.2383C15.5892 16.7195 15.1079 16.9645 14.429 17.0762L14.2657 17.102V16.4402V15.7785L14.4763 15.6797C14.8802 15.4906 15.2583 15.0395 15.4817 14.4766C15.7095 13.9008 15.8856 12.5688 15.7739 12.2938C15.688 12.0875 15.5935 12.0703 14.5021 12.0703H13.4923V10.8672V9.66407H15.4688H17.4454V11.2109Z" />
</g>
<defs>
<clipPath id="clip0_100_957">
<rect width="22" height="26"  transform="translate(0 0.359375)"/>
</clipPath>
</defs>
</svg>
