<svg width="22" height="27" viewBox="0 0 22 27" fill="none" xmlns="http://www.w3.org/2000/svg">
<g clip-path="url(#clip0_54_4173)">
<path d="M8.45184 3.26602C7.97488 3.33906 8.00926 3.30898 4.46004 6.8582C2.23856 9.08828 1.09559 10.2613 1.03543 10.3816C0.923712 10.6094 0.87215 10.9574 0.906525 11.241C0.962384 11.6793 1.05692 11.8039 2.29442 13.0457L3.45887 14.2188H3.64793C3.76824 14.2188 3.87567 14.1887 3.9659 14.1242C4.13348 14.0039 4.38699 13.9953 4.50731 14.107C4.66199 14.2445 4.66199 14.4035 4.50731 14.6785C4.39988 14.8762 4.3741 14.9578 4.39988 15.0566C4.42137 15.1512 5.51707 16.2727 8.45613 19.2074C11.6874 22.4344 12.5253 23.2508 12.6971 23.3324C12.8776 23.4184 12.9807 23.4355 13.3202 23.4355C13.6596 23.4355 13.7628 23.4184 13.9432 23.3324C14.1151 23.2508 14.8327 22.5547 17.5354 19.852C20.7538 16.6379 20.9214 16.4617 21.0073 16.2254C21.1276 15.8945 21.1276 15.4648 21.0073 15.134C20.9214 14.8977 20.7323 14.7 16.8694 10.8328L12.8261 6.78516H12.6499C12.5339 6.78516 12.4307 6.81523 12.3577 6.87539C12.2932 6.92695 12.1686 6.97422 12.0741 6.98711C11.928 7.00859 11.8893 6.99141 11.7733 6.87969C11.61 6.71641 11.61 6.60039 11.7733 6.35977C11.9151 6.14922 11.9323 6.02031 11.8421 5.84844C11.7432 5.66797 9.58192 3.54531 9.36277 3.4207C9.13504 3.2875 8.74832 3.22305 8.45184 3.26602ZM9.02332 4.25C9.08348 4.29297 9.52606 4.72695 10.003 5.2082L10.8796 6.08476L10.8323 6.25234C10.596 7.09883 11.1846 7.87656 12.0526 7.87226C12.2202 7.87226 12.405 7.85078 12.4651 7.825C12.5725 7.78203 12.7143 7.91953 16.3839 11.5891C20.5132 15.7227 20.3155 15.5035 20.1995 15.8602C20.1651 15.9633 19.2327 16.9215 16.8737 19.2762C13.4061 22.7395 13.5136 22.6449 13.1827 22.5762C13.0667 22.5547 12.2975 21.807 9.22098 18.7305C5.73192 15.2457 5.40965 14.9062 5.43973 14.816C5.46121 14.7602 5.4784 14.5496 5.4784 14.3477C5.4784 14.0297 5.46551 13.9566 5.36238 13.7848C5.23348 13.5656 5.01434 13.3594 4.79949 13.2477C4.61902 13.1531 4.0991 13.1187 3.88856 13.1875L3.72957 13.2391L2.78856 12.3023C2.16551 11.6793 1.83035 11.3141 1.80027 11.2238C1.69715 10.9059 1.59832 11.0176 5.08309 7.52422C6.88348 5.71953 8.41746 4.21562 8.48621 4.18125C8.6409 4.1082 8.86863 4.13828 9.02332 4.25Z" />
<path d="M7.8332 10.1925C5.48281 12.5386 5.41406 12.6117 5.41406 12.7707C5.41406 12.9812 5.46992 13.0843 5.6375 13.1703C5.95117 13.3336 5.86523 13.398 8.45195 10.8156C10.9914 8.27613 10.9484 8.3234 10.8281 8.02691C10.7637 7.87652 10.5875 7.7734 10.3898 7.7734C10.2609 7.7734 10.0461 7.97535 7.8332 10.1925Z" />
<path d="M11.0644 11.0132C10.9397 11.1378 10.8925 11.2968 10.9354 11.4558C10.9741 11.6277 14.3257 14.9792 14.5019 15.0308C14.8112 15.1167 15.1292 14.8331 15.0604 14.5281C15.0433 14.4421 14.5104 13.8835 13.2858 12.6589L11.5327 10.9101H11.3522C11.2147 10.9101 11.1417 10.9359 11.0644 11.0132Z" />
<path d="M8.76992 13.3337C8.63672 13.4068 8.55508 13.5614 8.55078 13.7462C8.55078 13.888 8.70117 14.047 11.202 16.5478C13.3547 18.7005 13.8832 19.2075 13.9949 19.229C14.2957 19.2849 14.5836 18.9454 14.4762 18.6532C14.4289 18.52 9.36289 13.4282 9.18672 13.3337C9.04492 13.2607 8.90313 13.2607 8.76992 13.3337Z" />
</g>
<defs>
<clipPath id="clip0_54_4173">
<rect width="22" height="26"  transform="translate(0 0.359375)"/>
</clipPath>
</defs>
</svg>
